<mxfile compressed="false" host="Electron" agent="Mozilla/5.0 (Windows NT 10.0; Win64; x64) AppleWebKit/537.36 (KHTML, like Gecko) draw.io/26.2.2 Chrome/134.0.6998.178 Electron/35.1.2 Safari/537.36" version="26.2.2" pages="2">
  <diagram id="76GRS2Xc1XjIpx6CAf1f" name="agent_setup">
    <mxGraphModel dx="943" dy="545" grid="1" gridSize="10" guides="1" tooltips="1" connect="1" arrows="1" fold="1" page="1" pageScale="1" pageWidth="1169" pageHeight="1654" math="0" shadow="0">
      <root>
        <mxCell id="0" />
        <mxCell id="1" parent="0" />
        <mxCell id="x8B2lODSbnbWZ4_KUf8C-1" value="client02&#xa;192.168.22.11" style="shape=image;verticalLabelPosition=top;verticalAlign=bottom;imageAspect=0;aspect=fixed;image=data:image/svg+xml,PHN2ZyB4bWxuczp4bGluaz0iaHR0cDovL3d3dy53My5vcmcvMTk5OS94bGluayIgeG1sbnM9Imh0dHA6Ly93d3cudzMub3JnLzIwMDAvc3ZnIiB4bWw6c3BhY2U9InByZXNlcnZlIiBzdHlsZT0iZW5hYmxlLWJhY2tncm91bmQ6bmV3IDAgMCAxMjAgMTIwOyIgdmlld0JveD0iMCAwIDEyMCAxMjAiIHk9IjBweCIgeD0iMHB4IiBpZD0iTGF5ZXJfMSIgdmVyc2lvbj0iMS4xIj4mI3hhOzxzdHlsZSB0eXBlPSJ0ZXh0L2NzcyI+JiN4YTsJLnN0MHtmaWxsOm5vbmU7fSYjeGE7CS5zdDF7ZmlsbDpub25lO3N0cm9rZTojMDAxMTM1O3N0cm9rZS13aWR0aDo0O3N0cm9rZS1saW5lY2FwOnJvdW5kO3N0cm9rZS1saW5lam9pbjpyb3VuZDtzdHJva2UtbWl0ZXJsaW1pdDoxMDt9JiN4YTsJLnN0MntmaWxsOiMwMDExMzU7fSYjeGE7CS5zdDN7ZmlsbDpub25lO3N0cm9rZTojMDAxMTM1O3N0cm9rZS13aWR0aDo0O3N0cm9rZS1taXRlcmxpbWl0OjEwO30mI3hhOwkuc3Q0e2ZpbGw6bm9uZTtzdHJva2U6IzAwMTEzNTtzdHJva2Utd2lkdGg6NDtzdHJva2UtbGluZWNhcDpyb3VuZDtzdHJva2UtbGluZWpvaW46cm91bmQ7fSYjeGE7CS5zdDV7ZmlsbDojMDAxMTM1O3N0cm9rZTojMDAxMTM1O3N0cm9rZS13aWR0aDo0O3N0cm9rZS1saW5lY2FwOnJvdW5kO3N0cm9rZS1saW5lam9pbjpyb3VuZDtzdHJva2UtbWl0ZXJsaW1pdDoxMDt9JiN4YTsJLnN0NntmaWxsOm5vbmU7c3Ryb2tlOiMwMDExMzU7c3Ryb2tlLXdpZHRoOjQuMjMzMztzdHJva2UtbGluZWNhcDpyb3VuZDtzdHJva2UtbGluZWpvaW46cm91bmQ7c3Ryb2tlLW1pdGVybGltaXQ6MTA7fSYjeGE7CS5zdDd7ZmlsbDpub25lO3N0cm9rZTojMDAxMTM1O3N0cm9rZS13aWR0aDo0O3N0cm9rZS1saW5lY2FwOnJvdW5kO3N0cm9rZS1taXRlcmxpbWl0OjEwO30mI3hhOwkuc3Q4e2ZpbGw6IzAwMTEzNTtzdHJva2U6IzAwMTEzNTtzdHJva2Utd2lkdGg6NDtzdHJva2UtbWl0ZXJsaW1pdDoxMDt9JiN4YTsJLnN0OXtmaWxsOiMwMDExMzU7c3Ryb2tlOiMwMDExMzU7c3Ryb2tlLXdpZHRoOjQ7fSYjeGE7CS5zdDEwe2ZpbGw6bm9uZTtzdHJva2U6IzAwMTEzNTtzdHJva2Utd2lkdGg6NDt9JiN4YTsJLnN0MTF7ZmlsbDojMjYyNjI2O3N0cm9rZTojMDAxMTM1O3N0cm9rZS13aWR0aDo0LjIzMzM7fSYjeGE7CS5zdDEye2ZpbGwtcnVsZTpldmVub2RkO2NsaXAtcnVsZTpldmVub2RkO2ZpbGw6bm9uZTtzdHJva2U6IzAwMTEzNTtzdHJva2Utd2lkdGg6NDtzdHJva2UtbWl0ZXJsaW1pdDoxMDt9JiN4YTsJLnN0MTN7ZmlsbC1ydWxlOmV2ZW5vZGQ7Y2xpcC1ydWxlOmV2ZW5vZGQ7ZmlsbDojMDAxMTM1O3N0cm9rZTojMDAxMTM1O3N0cm9rZS13aWR0aDo0O30mI3hhOwkuc3QxNHtmaWxsOiNGRkZGRkY7c3Ryb2tlOiMwMDExMzU7c3Ryb2tlLXdpZHRoOjQ7c3Ryb2tlLW1pdGVybGltaXQ6MTA7fSYjeGE7CS5zdDE1e2ZpbGw6bm9uZTtzdHJva2U6IzAwMTEzNTtzdHJva2Utd2lkdGg6NC4yMzMzO3N0cm9rZS1saW5lY2FwOnJvdW5kO3N0cm9rZS1saW5lam9pbjpyb3VuZDt9JiN4YTsJLnN0MTZ7ZmlsbDpub25lO3N0cm9rZTojMDAxMTM1O3N0cm9rZS13aWR0aDo0O3N0cm9rZS1saW5lY2FwOnJvdW5kO30mI3hhOwkuc3QxN3tmaWxsOiMwMDExMzU7c3Ryb2tlOiMwMDExMzU7c3Ryb2tlLW1pdGVybGltaXQ6MTA7fSYjeGE7CS5zdDE4e2ZpbGw6IzI2MjYyNjtzdHJva2U6IzAwMTEzNTtzdHJva2Utd2lkdGg6NDtzdHJva2UtbWl0ZXJsaW1pdDoxMDt9JiN4YTsJLnN0MTl7ZmlsbDojRkZGRkZGO3N0cm9rZTojMDAxMTM1O3N0cm9rZS13aWR0aDo0O3N0cm9rZS1saW5lY2FwOnJvdW5kO3N0cm9rZS1saW5lam9pbjpyb3VuZDtzdHJva2UtbWl0ZXJsaW1pdDoxMDt9JiN4YTsJLnN0MjB7ZmlsbDojMDAxMTM1O3N0cm9rZTojMDAxMTM1O3N0cm9rZS13aWR0aDo0O3N0cm9rZS1saW5lY2FwOnJvdW5kO3N0cm9rZS1saW5lam9pbjpyb3VuZDt9JiN4YTs8L3N0eWxlPiYjeGE7PHJlY3QgaGVpZ2h0PSIxMjAiIHdpZHRoPSIxMjAiIGNsYXNzPSJzdDAiLz4mI3hhOzxnPiYjeGE7CTxwYXRoIGQ9Ik0xMDAsOTEuMUgyMEgxMDB6IE04OS4xLDMyLjVjMC0wLjUsMC0xLTAuMi0xLjRjLTAuMi0wLjUtMC40LTAuOS0wLjgtMS4yYy0wLjMtMC4zLTAuOC0wLjYtMS4yLTAuOCYjMTA7JiM5OyYjOTtjLTAuNS0wLjItMC45LTAuMi0xLjQtMC4ySDM0LjZjLTAuNSwwLTEsMC0xLjQsMC4yYy0wLjUsMC4yLTAuOSwwLjQtMS4yLDAuOGMtMC4zLDAuMy0wLjYsMC44LTAuOCwxLjJjLTAuMiwwLjUtMC4yLDAuOS0wLjIsMS40JiMxMDsmIzk7JiM5O1Y3Nmg1OC4yVjMyLjV6IiBjbGFzcz0ic3Q0Ii8+JiN4YTs8L2c+JiN4YTs8L3N2Zz4=;fontFamily=Courier New;labelPosition=center;align=center;" parent="1" vertex="1">
          <mxGeometry x="285" y="125" width="50" height="50" as="geometry" />
        </mxCell>
        <mxCell id="x8B2lODSbnbWZ4_KUf8C-2" value="" style="edgeStyle=none;rounded=0;orthogonalLoop=1;jettySize=auto;html=1;endArrow=none;endFill=0;strokeColor=#99CCFF;strokeWidth=2;fontFamily=Courier New;entryX=0;entryY=0;entryDx=0;entryDy=0;exitX=1;exitY=1;exitDx=0;exitDy=0;" parent="1" source="x8B2lODSbnbWZ4_KUf8C-12" target="x8B2lODSbnbWZ4_KUf8C-16" edge="1">
          <mxGeometry relative="1" as="geometry">
            <mxPoint x="480" y="130.5" as="sourcePoint" />
            <mxPoint x="500" y="250.5" as="targetPoint" />
          </mxGeometry>
        </mxCell>
        <mxCell id="x8B2lODSbnbWZ4_KUf8C-3" value="PE2" style="shape=image;verticalLabelPosition=top;verticalAlign=bottom;imageAspect=0;aspect=fixed;image=data:image/svg+xml,PHN2ZyB4bWxuczp4bGluaz0iaHR0cDovL3d3dy53My5vcmcvMTk5OS94bGluayIgeG1sbnM9Imh0dHA6Ly93d3cudzMub3JnLzIwMDAvc3ZnIiB4bWw6c3BhY2U9InByZXNlcnZlIiBzdHlsZT0iZW5hYmxlLWJhY2tncm91bmQ6bmV3IDAgMCAxMjAgMTIwOyIgdmlld0JveD0iMCAwIDEyMCAxMjAiIHk9IjBweCIgeD0iMHB4IiBpZD0iTGF5ZXJfMSIgdmVyc2lvbj0iMS4xIj4mI3hhOzxzdHlsZSB0eXBlPSJ0ZXh0L2NzcyI+JiN4YTsJLnN0MHtmaWxsOiMwMDExMzU7fSYjeGE7CS5zdDF7ZmlsbDpub25lO3N0cm9rZTojRkZGRkZGO3N0cm9rZS13aWR0aDo0O3N0cm9rZS1saW5lY2FwOnJvdW5kO3N0cm9rZS1saW5lam9pbjpyb3VuZDtzdHJva2UtbWl0ZXJsaW1pdDoxMDt9JiN4YTsJLnN0MntmaWxsOiNGRkZGRkY7fSYjeGE7CS5zdDN7ZmlsbDpub25lO3N0cm9rZTojRkZGRkZGO3N0cm9rZS13aWR0aDo0O3N0cm9rZS1taXRlcmxpbWl0OjEwO30mI3hhOwkuc3Q0e2ZpbGw6bm9uZTtzdHJva2U6I0ZGRkZGRjtzdHJva2Utd2lkdGg6NDtzdHJva2UtbGluZWNhcDpyb3VuZDtzdHJva2UtbGluZWpvaW46cm91bmQ7fSYjeGE7CS5zdDV7ZmlsbDojRkZGRkZGO3N0cm9rZTojRkZGRkZGO3N0cm9rZS13aWR0aDo0O3N0cm9rZS1saW5lY2FwOnJvdW5kO3N0cm9rZS1saW5lam9pbjpyb3VuZDtzdHJva2UtbWl0ZXJsaW1pdDoxMDt9JiN4YTsJLnN0NntmaWxsOm5vbmU7c3Ryb2tlOiNGRkZGRkY7c3Ryb2tlLXdpZHRoOjQuMjMzMztzdHJva2UtbGluZWNhcDpyb3VuZDtzdHJva2UtbGluZWpvaW46cm91bmQ7c3Ryb2tlLW1pdGVybGltaXQ6MTA7fSYjeGE7CS5zdDd7ZmlsbDpub25lO3N0cm9rZTojRkZGRkZGO3N0cm9rZS13aWR0aDo0O3N0cm9rZS1saW5lY2FwOnJvdW5kO3N0cm9rZS1taXRlcmxpbWl0OjEwO30mI3hhOwkuc3Q4e2ZpbGw6I0ZGRkZGRjtzdHJva2U6I0ZGRkZGRjtzdHJva2Utd2lkdGg6NDtzdHJva2UtbWl0ZXJsaW1pdDoxMDt9JiN4YTsJLnN0OXtmaWxsOiNGRkZGRkY7c3Ryb2tlOiNGRkZGRkY7c3Ryb2tlLXdpZHRoOjQ7fSYjeGE7CS5zdDEwe2ZpbGw6bm9uZTtzdHJva2U6I0ZGRkZGRjtzdHJva2Utd2lkdGg6NDt9JiN4YTsJLnN0MTF7ZmlsbDojMjYyNjI2O3N0cm9rZTojRkZGRkZGO3N0cm9rZS13aWR0aDo0LjIzMzM7fSYjeGE7CS5zdDEye2ZpbGwtcnVsZTpldmVub2RkO2NsaXAtcnVsZTpldmVub2RkO2ZpbGw6bm9uZTtzdHJva2U6I0ZGRkZGRjtzdHJva2Utd2lkdGg6NDtzdHJva2UtbWl0ZXJsaW1pdDoxMDt9JiN4YTsJLnN0MTN7ZmlsbC1ydWxlOmV2ZW5vZGQ7Y2xpcC1ydWxlOmV2ZW5vZGQ7ZmlsbDojRkZGRkZGO3N0cm9rZTojRkZGRkZGO3N0cm9rZS13aWR0aDo0O30mI3hhOwkuc3QxNHtmaWxsOm5vbmU7c3Ryb2tlOiNGRkZGRkY7c3Ryb2tlLXdpZHRoOjQuMjMzMztzdHJva2UtbGluZWNhcDpyb3VuZDtzdHJva2UtbGluZWpvaW46cm91bmQ7fSYjeGE7CS5zdDE1e2ZpbGw6bm9uZTtzdHJva2U6I0ZGRkZGRjtzdHJva2Utd2lkdGg6NDtzdHJva2UtbGluZWNhcDpyb3VuZDt9JiN4YTsJLnN0MTZ7ZmlsbDojRkZGRkZGO3N0cm9rZTojRkZGRkZGO3N0cm9rZS1taXRlcmxpbWl0OjEwO30mI3hhOwkuc3QxN3tmaWxsOiMyNjI2MjY7c3Ryb2tlOiNGRkZGRkY7c3Ryb2tlLXdpZHRoOjQ7c3Ryb2tlLW1pdGVybGltaXQ6MTA7fSYjeGE7CS5zdDE4e2ZpbGw6I0ZGRkZGRjtzdHJva2U6I0ZGRkZGRjtzdHJva2Utd2lkdGg6NDtzdHJva2UtbGluZWNhcDpyb3VuZDtzdHJva2UtbGluZWpvaW46cm91bmQ7fSYjeGE7PC9zdHlsZT4mI3hhOzxyZWN0IGhlaWdodD0iMTIwIiB3aWR0aD0iMTIwIiBjbGFzcz0ic3QwIi8+JiN4YTs8Zz4mI3hhOwk8Zz4mI3hhOwkJPHBhdGggZD0iTTcxLjcsMTkuN1Y0OGgyOCIgY2xhc3M9InN0MSIvPiYjeGE7CQk8cGF0aCBkPSJNOTEuMiwzOC41bDcuNSw3LjZjMS4zLDEuMywxLjMsMy4xLDAsNC4zTDkxLjEsNTgiIGNsYXNzPSJzdDEiLz4mI3hhOwk8L2c+JiN4YTsJPGc+JiN4YTsJCTxwYXRoIGQ9Ik0yMCw0Ny44aDI4LjR2LTI4IiBjbGFzcz0ic3QxIi8+JiN4YTsJCTxwYXRoIGQ9Ik0zOC44LDI4LjNsNy42LTcuNWMxLjMtMS4zLDMuMS0xLjMsNC4zLDBsNy43LDcuNiIgY2xhc3M9InN0MSIvPiYjeGE7CTwvZz4mI3hhOwk8Zz4mI3hhOwkJPHBhdGggZD0iTTQ4LDEwMC4zVjcySDIwIiBjbGFzcz0ic3QxIi8+JiN4YTsJCTxwYXRoIGQ9Ik0yOC41LDgxLjVMMjEsNzMuOWMtMS4zLTEuMy0xLjMtMy4xLDAtNC4zbDcuNi03LjciIGNsYXNzPSJzdDEiLz4mI3hhOwk8L2c+JiN4YTsJPGc+JiN4YTsJCTxwYXRoIGQ9Ik0xMDAsNzEuOUg3MS42djI4IiBjbGFzcz0ic3QxIi8+JiN4YTsJCTxwYXRoIGQ9Ik04MS4yLDkxLjRsLTcuNiw3LjVjLTEuMywxLjMtMy4xLDEuMy00LjMsMGwtNy43LTcuNiIgY2xhc3M9InN0MSIvPiYjeGE7CTwvZz4mI3hhOzwvZz4mI3hhOzwvc3ZnPg==;flipH=0;fontFamily=Courier New;labelPosition=center;align=center;" parent="1" vertex="1">
          <mxGeometry x="238" y="243.25" width="50" height="50" as="geometry" />
        </mxCell>
        <mxCell id="x8B2lODSbnbWZ4_KUf8C-4" value="spine11" style="shape=image;verticalLabelPosition=bottom;verticalAlign=top;imageAspect=0;aspect=fixed;image=data:image/svg+xml,PHN2ZyB4bWxuczp4bGluaz0iaHR0cDovL3d3dy53My5vcmcvMTk5OS94bGluayIgeG1sbnM9Imh0dHA6Ly93d3cudzMub3JnLzIwMDAvc3ZnIiB4bWw6c3BhY2U9InByZXNlcnZlIiBzdHlsZT0iZW5hYmxlLWJhY2tncm91bmQ6bmV3IDAgMCAxMjAgMTIwOyIgdmlld0JveD0iMCAwIDEyMCAxMjAiIHk9IjBweCIgeD0iMHB4IiBpZD0iTGF5ZXJfMSIgdmVyc2lvbj0iMS4xIj4mI3hhOzxzdHlsZSB0eXBlPSJ0ZXh0L2NzcyI+JiN4YTsJLnN0MHtmaWxsOiMwMDExMzU7fSYjeGE7CS5zdDF7ZmlsbDpub25lO3N0cm9rZTojRkZGRkZGO3N0cm9rZS13aWR0aDo0O3N0cm9rZS1saW5lY2FwOnJvdW5kO3N0cm9rZS1saW5lam9pbjpyb3VuZDtzdHJva2UtbWl0ZXJsaW1pdDoxMDt9JiN4YTsJLnN0MntmaWxsOiNGRkZGRkY7fSYjeGE7CS5zdDN7ZmlsbDpub25lO3N0cm9rZTojRkZGRkZGO3N0cm9rZS13aWR0aDo0O3N0cm9rZS1taXRlcmxpbWl0OjEwO30mI3hhOwkuc3Q0e2ZpbGw6bm9uZTtzdHJva2U6I0ZGRkZGRjtzdHJva2Utd2lkdGg6NDtzdHJva2UtbGluZWNhcDpyb3VuZDtzdHJva2UtbGluZWpvaW46cm91bmQ7fSYjeGE7CS5zdDV7ZmlsbDojRkZGRkZGO3N0cm9rZTojRkZGRkZGO3N0cm9rZS13aWR0aDo0O3N0cm9rZS1saW5lY2FwOnJvdW5kO3N0cm9rZS1saW5lam9pbjpyb3VuZDtzdHJva2UtbWl0ZXJsaW1pdDoxMDt9JiN4YTsJLnN0NntmaWxsOm5vbmU7c3Ryb2tlOiNGRkZGRkY7c3Ryb2tlLXdpZHRoOjQuMjMzMztzdHJva2UtbGluZWNhcDpyb3VuZDtzdHJva2UtbGluZWpvaW46cm91bmQ7c3Ryb2tlLW1pdGVybGltaXQ6MTA7fSYjeGE7CS5zdDd7ZmlsbDpub25lO3N0cm9rZTojRkZGRkZGO3N0cm9rZS13aWR0aDo0O3N0cm9rZS1saW5lY2FwOnJvdW5kO3N0cm9rZS1taXRlcmxpbWl0OjEwO30mI3hhOwkuc3Q4e2ZpbGw6I0ZGRkZGRjtzdHJva2U6I0ZGRkZGRjtzdHJva2Utd2lkdGg6NDtzdHJva2UtbWl0ZXJsaW1pdDoxMDt9JiN4YTsJLnN0OXtmaWxsOiNGRkZGRkY7c3Ryb2tlOiNGRkZGRkY7c3Ryb2tlLXdpZHRoOjQ7fSYjeGE7CS5zdDEwe2ZpbGw6bm9uZTtzdHJva2U6I0ZGRkZGRjtzdHJva2Utd2lkdGg6NDt9JiN4YTsJLnN0MTF7ZmlsbDojMjYyNjI2O3N0cm9rZTojRkZGRkZGO3N0cm9rZS13aWR0aDo0LjIzMzM7fSYjeGE7CS5zdDEye2ZpbGwtcnVsZTpldmVub2RkO2NsaXAtcnVsZTpldmVub2RkO2ZpbGw6bm9uZTtzdHJva2U6I0ZGRkZGRjtzdHJva2Utd2lkdGg6NDtzdHJva2UtbWl0ZXJsaW1pdDoxMDt9JiN4YTsJLnN0MTN7ZmlsbC1ydWxlOmV2ZW5vZGQ7Y2xpcC1ydWxlOmV2ZW5vZGQ7ZmlsbDojRkZGRkZGO3N0cm9rZTojRkZGRkZGO3N0cm9rZS13aWR0aDo0O30mI3hhOwkuc3QxNHtmaWxsOm5vbmU7c3Ryb2tlOiNGRkZGRkY7c3Ryb2tlLXdpZHRoOjQuMjMzMztzdHJva2UtbGluZWNhcDpyb3VuZDtzdHJva2UtbGluZWpvaW46cm91bmQ7fSYjeGE7CS5zdDE1e2ZpbGw6bm9uZTtzdHJva2U6I0ZGRkZGRjtzdHJva2Utd2lkdGg6NDtzdHJva2UtbGluZWNhcDpyb3VuZDt9JiN4YTsJLnN0MTZ7ZmlsbDojRkZGRkZGO3N0cm9rZTojRkZGRkZGO3N0cm9rZS1taXRlcmxpbWl0OjEwO30mI3hhOwkuc3QxN3tmaWxsOiMyNjI2MjY7c3Ryb2tlOiNGRkZGRkY7c3Ryb2tlLXdpZHRoOjQ7c3Ryb2tlLW1pdGVybGltaXQ6MTA7fSYjeGE7CS5zdDE4e2ZpbGw6I0ZGRkZGRjtzdHJva2U6I0ZGRkZGRjtzdHJva2Utd2lkdGg6NDtzdHJva2UtbGluZWNhcDpyb3VuZDtzdHJva2UtbGluZWpvaW46cm91bmQ7fSYjeGE7PC9zdHlsZT4mI3hhOzxyZWN0IGhlaWdodD0iMTIwIiB3aWR0aD0iMTIwIiBjbGFzcz0ic3QwIi8+JiN4YTs8Zz4mI3hhOwk8Zz4mI3hhOwkJPHBhdGggZD0iTTcxLjcsMTkuN1Y0OGgyOCIgY2xhc3M9InN0MSIvPiYjeGE7CQk8cGF0aCBkPSJNOTEuMiwzOC41bDcuNSw3LjZjMS4zLDEuMywxLjMsMy4xLDAsNC4zTDkxLjEsNTgiIGNsYXNzPSJzdDEiLz4mI3hhOwk8L2c+JiN4YTsJPGc+JiN4YTsJCTxwYXRoIGQ9Ik0yMCw0Ny44aDI4LjR2LTI4IiBjbGFzcz0ic3QxIi8+JiN4YTsJCTxwYXRoIGQ9Ik0zOC44LDI4LjNsNy42LTcuNWMxLjMtMS4zLDMuMS0xLjMsNC4zLDBsNy43LDcuNiIgY2xhc3M9InN0MSIvPiYjeGE7CTwvZz4mI3hhOwk8Zz4mI3hhOwkJPHBhdGggZD0iTTQ4LDEwMC4zVjcySDIwIiBjbGFzcz0ic3QxIi8+JiN4YTsJCTxwYXRoIGQ9Ik0yOC41LDgxLjVMMjEsNzMuOWMtMS4zLTEuMy0xLjMtMy4xLDAtNC4zbDcuNi03LjciIGNsYXNzPSJzdDEiLz4mI3hhOwk8L2c+JiN4YTsJPGc+JiN4YTsJCTxwYXRoIGQ9Ik0xMDAsNzEuOUg3MS42djI4IiBjbGFzcz0ic3QxIi8+JiN4YTsJCTxwYXRoIGQ9Ik04MS4yLDkxLjRsLTcuNiw3LjVjLTEuMywxLjMtMy4xLDEuMy00LjMsMGwtNy43LTcuNiIgY2xhc3M9InN0MSIvPiYjeGE7CTwvZz4mI3hhOzwvZz4mI3hhOzwvc3ZnPg==;flipH=0;fontFamily=Courier New;spacing=-2;" parent="1" vertex="1">
          <mxGeometry x="420" y="240.5" width="50" height="50" as="geometry" />
        </mxCell>
        <mxCell id="x8B2lODSbnbWZ4_KUf8C-5" value="spine12" style="shape=image;verticalLabelPosition=top;verticalAlign=bottom;imageAspect=0;aspect=fixed;image=data:image/svg+xml,PHN2ZyB4bWxuczp4bGluaz0iaHR0cDovL3d3dy53My5vcmcvMTk5OS94bGluayIgeG1sbnM9Imh0dHA6Ly93d3cudzMub3JnLzIwMDAvc3ZnIiB4bWw6c3BhY2U9InByZXNlcnZlIiBzdHlsZT0iZW5hYmxlLWJhY2tncm91bmQ6bmV3IDAgMCAxMjAgMTIwOyIgdmlld0JveD0iMCAwIDEyMCAxMjAiIHk9IjBweCIgeD0iMHB4IiBpZD0iTGF5ZXJfMSIgdmVyc2lvbj0iMS4xIj4mI3hhOzxzdHlsZSB0eXBlPSJ0ZXh0L2NzcyI+JiN4YTsJLnN0MHtmaWxsOiMwMDExMzU7fSYjeGE7CS5zdDF7ZmlsbDpub25lO3N0cm9rZTojRkZGRkZGO3N0cm9rZS13aWR0aDo0O3N0cm9rZS1saW5lY2FwOnJvdW5kO3N0cm9rZS1saW5lam9pbjpyb3VuZDtzdHJva2UtbWl0ZXJsaW1pdDoxMDt9JiN4YTsJLnN0MntmaWxsOiNGRkZGRkY7fSYjeGE7CS5zdDN7ZmlsbDpub25lO3N0cm9rZTojRkZGRkZGO3N0cm9rZS13aWR0aDo0O3N0cm9rZS1taXRlcmxpbWl0OjEwO30mI3hhOwkuc3Q0e2ZpbGw6bm9uZTtzdHJva2U6I0ZGRkZGRjtzdHJva2Utd2lkdGg6NDtzdHJva2UtbGluZWNhcDpyb3VuZDtzdHJva2UtbGluZWpvaW46cm91bmQ7fSYjeGE7CS5zdDV7ZmlsbDojRkZGRkZGO3N0cm9rZTojRkZGRkZGO3N0cm9rZS13aWR0aDo0O3N0cm9rZS1saW5lY2FwOnJvdW5kO3N0cm9rZS1saW5lam9pbjpyb3VuZDtzdHJva2UtbWl0ZXJsaW1pdDoxMDt9JiN4YTsJLnN0NntmaWxsOm5vbmU7c3Ryb2tlOiNGRkZGRkY7c3Ryb2tlLXdpZHRoOjQuMjMzMztzdHJva2UtbGluZWNhcDpyb3VuZDtzdHJva2UtbGluZWpvaW46cm91bmQ7c3Ryb2tlLW1pdGVybGltaXQ6MTA7fSYjeGE7CS5zdDd7ZmlsbDpub25lO3N0cm9rZTojRkZGRkZGO3N0cm9rZS13aWR0aDo0O3N0cm9rZS1saW5lY2FwOnJvdW5kO3N0cm9rZS1taXRlcmxpbWl0OjEwO30mI3hhOwkuc3Q4e2ZpbGw6I0ZGRkZGRjtzdHJva2U6I0ZGRkZGRjtzdHJva2Utd2lkdGg6NDtzdHJva2UtbWl0ZXJsaW1pdDoxMDt9JiN4YTsJLnN0OXtmaWxsOiNGRkZGRkY7c3Ryb2tlOiNGRkZGRkY7c3Ryb2tlLXdpZHRoOjQ7fSYjeGE7CS5zdDEwe2ZpbGw6bm9uZTtzdHJva2U6I0ZGRkZGRjtzdHJva2Utd2lkdGg6NDt9JiN4YTsJLnN0MTF7ZmlsbDojMjYyNjI2O3N0cm9rZTojRkZGRkZGO3N0cm9rZS13aWR0aDo0LjIzMzM7fSYjeGE7CS5zdDEye2ZpbGwtcnVsZTpldmVub2RkO2NsaXAtcnVsZTpldmVub2RkO2ZpbGw6bm9uZTtzdHJva2U6I0ZGRkZGRjtzdHJva2Utd2lkdGg6NDtzdHJva2UtbWl0ZXJsaW1pdDoxMDt9JiN4YTsJLnN0MTN7ZmlsbC1ydWxlOmV2ZW5vZGQ7Y2xpcC1ydWxlOmV2ZW5vZGQ7ZmlsbDojRkZGRkZGO3N0cm9rZTojRkZGRkZGO3N0cm9rZS13aWR0aDo0O30mI3hhOwkuc3QxNHtmaWxsOm5vbmU7c3Ryb2tlOiNGRkZGRkY7c3Ryb2tlLXdpZHRoOjQuMjMzMztzdHJva2UtbGluZWNhcDpyb3VuZDtzdHJva2UtbGluZWpvaW46cm91bmQ7fSYjeGE7CS5zdDE1e2ZpbGw6bm9uZTtzdHJva2U6I0ZGRkZGRjtzdHJva2Utd2lkdGg6NDtzdHJva2UtbGluZWNhcDpyb3VuZDt9JiN4YTsJLnN0MTZ7ZmlsbDojRkZGRkZGO3N0cm9rZTojRkZGRkZGO3N0cm9rZS1taXRlcmxpbWl0OjEwO30mI3hhOwkuc3QxN3tmaWxsOiMyNjI2MjY7c3Ryb2tlOiNGRkZGRkY7c3Ryb2tlLXdpZHRoOjQ7c3Ryb2tlLW1pdGVybGltaXQ6MTA7fSYjeGE7CS5zdDE4e2ZpbGw6I0ZGRkZGRjtzdHJva2U6I0ZGRkZGRjtzdHJva2Utd2lkdGg6NDtzdHJva2UtbGluZWNhcDpyb3VuZDtzdHJva2UtbGluZWpvaW46cm91bmQ7fSYjeGE7PC9zdHlsZT4mI3hhOzxyZWN0IGhlaWdodD0iMTIwIiB3aWR0aD0iMTIwIiBjbGFzcz0ic3QwIi8+JiN4YTs8Zz4mI3hhOwk8Zz4mI3hhOwkJPHBhdGggZD0iTTcxLjcsMTkuN1Y0OGgyOCIgY2xhc3M9InN0MSIvPiYjeGE7CQk8cGF0aCBkPSJNOTEuMiwzOC41bDcuNSw3LjZjMS4zLDEuMywxLjMsMy4xLDAsNC4zTDkxLjEsNTgiIGNsYXNzPSJzdDEiLz4mI3hhOwk8L2c+JiN4YTsJPGc+JiN4YTsJCTxwYXRoIGQ9Ik0yMCw0Ny44aDI4LjR2LTI4IiBjbGFzcz0ic3QxIi8+JiN4YTsJCTxwYXRoIGQ9Ik0zOC44LDI4LjNsNy42LTcuNWMxLjMtMS4zLDMuMS0xLjMsNC4zLDBsNy43LDcuNiIgY2xhc3M9InN0MSIvPiYjeGE7CTwvZz4mI3hhOwk8Zz4mI3hhOwkJPHBhdGggZD0iTTQ4LDEwMC4zVjcySDIwIiBjbGFzcz0ic3QxIi8+JiN4YTsJCTxwYXRoIGQ9Ik0yOC41LDgxLjVMMjEsNzMuOWMtMS4zLTEuMy0xLjMtMy4xLDAtNC4zbDcuNi03LjciIGNsYXNzPSJzdDEiLz4mI3hhOwk8L2c+JiN4YTsJPGc+JiN4YTsJCTxwYXRoIGQ9Ik0xMDAsNzEuOUg3MS42djI4IiBjbGFzcz0ic3QxIi8+JiN4YTsJCTxwYXRoIGQ9Ik04MS4yLDkxLjRsLTcuNiw3LjVjLTEuMywxLjMtMy4xLDEuMy00LjMsMGwtNy43LTcuNiIgY2xhc3M9InN0MSIvPiYjeGE7CTwvZz4mI3hhOzwvZz4mI3hhOzwvc3ZnPg==;flipH=0;fontFamily=Courier New;labelPosition=center;align=center;" parent="1" vertex="1">
          <mxGeometry x="420" y="80.5" width="50" height="50" as="geometry" />
        </mxCell>
        <mxCell id="x8B2lODSbnbWZ4_KUf8C-6" value="leaf13" style="shape=image;verticalLabelPosition=top;verticalAlign=bottom;imageAspect=0;aspect=fixed;image=data:image/svg+xml,PHN2ZyB4bWxuczp4bGluaz0iaHR0cDovL3d3dy53My5vcmcvMTk5OS94bGluayIgeG1sbnM9Imh0dHA6Ly93d3cudzMub3JnLzIwMDAvc3ZnIiB4bWw6c3BhY2U9InByZXNlcnZlIiBzdHlsZT0iZW5hYmxlLWJhY2tncm91bmQ6bmV3IDAgMCAxMjAgMTIwOyIgdmlld0JveD0iMCAwIDEyMCAxMjAiIHk9IjBweCIgeD0iMHB4IiBpZD0iTGF5ZXJfMSIgdmVyc2lvbj0iMS4xIj4mI3hhOzxzdHlsZSB0eXBlPSJ0ZXh0L2NzcyI+JiN4YTsJLnN0MHtmaWxsOiMwMDExMzU7fSYjeGE7CS5zdDF7ZmlsbDpub25lO3N0cm9rZTojRkZGRkZGO3N0cm9rZS13aWR0aDo0O3N0cm9rZS1saW5lY2FwOnJvdW5kO3N0cm9rZS1saW5lam9pbjpyb3VuZDtzdHJva2UtbWl0ZXJsaW1pdDoxMDt9JiN4YTsJLnN0MntmaWxsOiNGRkZGRkY7fSYjeGE7CS5zdDN7ZmlsbDpub25lO3N0cm9rZTojRkZGRkZGO3N0cm9rZS13aWR0aDo0O3N0cm9rZS1taXRlcmxpbWl0OjEwO30mI3hhOwkuc3Q0e2ZpbGw6bm9uZTtzdHJva2U6I0ZGRkZGRjtzdHJva2Utd2lkdGg6NDtzdHJva2UtbGluZWNhcDpyb3VuZDtzdHJva2UtbGluZWpvaW46cm91bmQ7fSYjeGE7CS5zdDV7ZmlsbDojRkZGRkZGO3N0cm9rZTojRkZGRkZGO3N0cm9rZS13aWR0aDo0O3N0cm9rZS1saW5lY2FwOnJvdW5kO3N0cm9rZS1saW5lam9pbjpyb3VuZDtzdHJva2UtbWl0ZXJsaW1pdDoxMDt9JiN4YTsJLnN0NntmaWxsOm5vbmU7c3Ryb2tlOiNGRkZGRkY7c3Ryb2tlLXdpZHRoOjQuMjMzMztzdHJva2UtbGluZWNhcDpyb3VuZDtzdHJva2UtbGluZWpvaW46cm91bmQ7c3Ryb2tlLW1pdGVybGltaXQ6MTA7fSYjeGE7CS5zdDd7ZmlsbDpub25lO3N0cm9rZTojRkZGRkZGO3N0cm9rZS13aWR0aDo0O3N0cm9rZS1saW5lY2FwOnJvdW5kO3N0cm9rZS1taXRlcmxpbWl0OjEwO30mI3hhOwkuc3Q4e2ZpbGw6I0ZGRkZGRjtzdHJva2U6I0ZGRkZGRjtzdHJva2Utd2lkdGg6NDtzdHJva2UtbWl0ZXJsaW1pdDoxMDt9JiN4YTsJLnN0OXtmaWxsOiNGRkZGRkY7c3Ryb2tlOiNGRkZGRkY7c3Ryb2tlLXdpZHRoOjQ7fSYjeGE7CS5zdDEwe2ZpbGw6bm9uZTtzdHJva2U6I0ZGRkZGRjtzdHJva2Utd2lkdGg6NDt9JiN4YTsJLnN0MTF7ZmlsbDojMjYyNjI2O3N0cm9rZTojRkZGRkZGO3N0cm9rZS13aWR0aDo0LjIzMzM7fSYjeGE7CS5zdDEye2ZpbGwtcnVsZTpldmVub2RkO2NsaXAtcnVsZTpldmVub2RkO2ZpbGw6bm9uZTtzdHJva2U6I0ZGRkZGRjtzdHJva2Utd2lkdGg6NDtzdHJva2UtbWl0ZXJsaW1pdDoxMDt9JiN4YTsJLnN0MTN7ZmlsbC1ydWxlOmV2ZW5vZGQ7Y2xpcC1ydWxlOmV2ZW5vZGQ7ZmlsbDojRkZGRkZGO3N0cm9rZTojRkZGRkZGO3N0cm9rZS13aWR0aDo0O30mI3hhOwkuc3QxNHtmaWxsOm5vbmU7c3Ryb2tlOiNGRkZGRkY7c3Ryb2tlLXdpZHRoOjQuMjMzMztzdHJva2UtbGluZWNhcDpyb3VuZDtzdHJva2UtbGluZWpvaW46cm91bmQ7fSYjeGE7CS5zdDE1e2ZpbGw6bm9uZTtzdHJva2U6I0ZGRkZGRjtzdHJva2Utd2lkdGg6NDtzdHJva2UtbGluZWNhcDpyb3VuZDt9JiN4YTsJLnN0MTZ7ZmlsbDojRkZGRkZGO3N0cm9rZTojRkZGRkZGO3N0cm9rZS1taXRlcmxpbWl0OjEwO30mI3hhOwkuc3QxN3tmaWxsOiMyNjI2MjY7c3Ryb2tlOiNGRkZGRkY7c3Ryb2tlLXdpZHRoOjQ7c3Ryb2tlLW1pdGVybGltaXQ6MTA7fSYjeGE7CS5zdDE4e2ZpbGw6I0ZGRkZGRjtzdHJva2U6I0ZGRkZGRjtzdHJva2Utd2lkdGg6NDtzdHJva2UtbGluZWNhcDpyb3VuZDtzdHJva2UtbGluZWpvaW46cm91bmQ7fSYjeGE7PC9zdHlsZT4mI3hhOzxyZWN0IGhlaWdodD0iMTIwIiB3aWR0aD0iMTIwIiBjbGFzcz0ic3QwIi8+JiN4YTs8Zz4mI3hhOwk8cGF0aCBkPSJNOTEuNSwyNy4zbDcuNiw3LjZjMS4zLDEuMywxLjMsMy4xLDAsNC4zbC03LjYsNy43IiBjbGFzcz0ic3QxIi8+JiN4YTsJPHBhdGggZD0iTTI4LjUsNDYuOWwtNy42LTcuNmMtMS4zLTEuMy0xLjMtMy4xLDAtNC4zbDcuNi03LjciIGNsYXNzPSJzdDEiLz4mI3hhOwk8cGF0aCBkPSJNOTEuNSw3My4xbDcuNiw3LjZjMS4zLDEuMywxLjMsMy4xLDAsNC4zbC03LjYsNy43IiBjbGFzcz0ic3QxIi8+JiN4YTsJPHBhdGggZD0iTTI4LjUsOTIuN2wtNy42LTcuNmMtMS4zLTEuMy0xLjMtMy4xLDAtNC4zbDcuNi03LjciIGNsYXNzPSJzdDEiLz4mI3hhOwk8Zz4mI3hhOwkJPHBhdGggZD0iTTk2LjYsMzYuOEg2Ny45bC0xNiw0NS45SDIzLjIiIGNsYXNzPSJzdDEiLz4mI3hhOwkJPHBhdGggZD0iTTk2LjYsODIuN0g2Ny45bC0xNi00NS45SDIzLjIiIGNsYXNzPSJzdDEiLz4mI3hhOwk8L2c+JiN4YTs8L2c+JiN4YTs8L3N2Zz4=;fontFamily=Courier New;labelPosition=center;align=center;" parent="1" vertex="1">
          <mxGeometry x="520" y="80.5" width="50" height="50" as="geometry" />
        </mxCell>
        <mxCell id="x8B2lODSbnbWZ4_KUf8C-7" style="edgeStyle=none;rounded=0;orthogonalLoop=1;jettySize=auto;html=1;endArrow=none;endFill=0;strokeColor=#99CCFF;strokeWidth=2;fontFamily=Courier New;entryX=1;entryY=1;entryDx=0;entryDy=0;exitX=1;exitY=0;exitDx=0;exitDy=0;" parent="1" source="x8B2lODSbnbWZ4_KUf8C-13" target="x8B2lODSbnbWZ4_KUf8C-17" edge="1">
          <mxGeometry relative="1" as="geometry">
            <mxPoint x="480" y="230.5" as="sourcePoint" />
            <mxPoint x="510" y="130.5" as="targetPoint" />
          </mxGeometry>
        </mxCell>
        <mxCell id="x8B2lODSbnbWZ4_KUf8C-8" style="edgeStyle=none;rounded=0;orthogonalLoop=1;jettySize=auto;html=1;endArrow=none;endFill=0;strokeColor=#99CCFF;strokeWidth=2;fontFamily=Courier New;entryX=0;entryY=0.5;entryDx=0;entryDy=0;exitX=1;exitY=0.5;exitDx=0;exitDy=0;" parent="1" source="x8B2lODSbnbWZ4_KUf8C-11" target="x8B2lODSbnbWZ4_KUf8C-18" edge="1">
          <mxGeometry relative="1" as="geometry">
            <mxPoint x="490" y="90.5" as="sourcePoint" />
            <mxPoint x="500" y="80.5" as="targetPoint" />
          </mxGeometry>
        </mxCell>
        <mxCell id="x8B2lODSbnbWZ4_KUf8C-9" value="leaf11" style="shape=image;verticalLabelPosition=bottom;verticalAlign=top;imageAspect=0;aspect=fixed;image=data:image/svg+xml,PHN2ZyB4bWxuczp4bGluaz0iaHR0cDovL3d3dy53My5vcmcvMTk5OS94bGluayIgeG1sbnM9Imh0dHA6Ly93d3cudzMub3JnLzIwMDAvc3ZnIiB4bWw6c3BhY2U9InByZXNlcnZlIiBzdHlsZT0iZW5hYmxlLWJhY2tncm91bmQ6bmV3IDAgMCAxMjAgMTIwOyIgdmlld0JveD0iMCAwIDEyMCAxMjAiIHk9IjBweCIgeD0iMHB4IiBpZD0iTGF5ZXJfMSIgdmVyc2lvbj0iMS4xIj4mI3hhOzxzdHlsZSB0eXBlPSJ0ZXh0L2NzcyI+JiN4YTsJLnN0MHtmaWxsOiMwMDExMzU7fSYjeGE7CS5zdDF7ZmlsbDpub25lO3N0cm9rZTojRkZGRkZGO3N0cm9rZS13aWR0aDo0O3N0cm9rZS1saW5lY2FwOnJvdW5kO3N0cm9rZS1saW5lam9pbjpyb3VuZDtzdHJva2UtbWl0ZXJsaW1pdDoxMDt9JiN4YTsJLnN0MntmaWxsOiNGRkZGRkY7fSYjeGE7CS5zdDN7ZmlsbDpub25lO3N0cm9rZTojRkZGRkZGO3N0cm9rZS13aWR0aDo0O3N0cm9rZS1taXRlcmxpbWl0OjEwO30mI3hhOwkuc3Q0e2ZpbGw6bm9uZTtzdHJva2U6I0ZGRkZGRjtzdHJva2Utd2lkdGg6NDtzdHJva2UtbGluZWNhcDpyb3VuZDtzdHJva2UtbGluZWpvaW46cm91bmQ7fSYjeGE7CS5zdDV7ZmlsbDojRkZGRkZGO3N0cm9rZTojRkZGRkZGO3N0cm9rZS13aWR0aDo0O3N0cm9rZS1saW5lY2FwOnJvdW5kO3N0cm9rZS1saW5lam9pbjpyb3VuZDtzdHJva2UtbWl0ZXJsaW1pdDoxMDt9JiN4YTsJLnN0NntmaWxsOm5vbmU7c3Ryb2tlOiNGRkZGRkY7c3Ryb2tlLXdpZHRoOjQuMjMzMztzdHJva2UtbGluZWNhcDpyb3VuZDtzdHJva2UtbGluZWpvaW46cm91bmQ7c3Ryb2tlLW1pdGVybGltaXQ6MTA7fSYjeGE7CS5zdDd7ZmlsbDpub25lO3N0cm9rZTojRkZGRkZGO3N0cm9rZS13aWR0aDo0O3N0cm9rZS1saW5lY2FwOnJvdW5kO3N0cm9rZS1taXRlcmxpbWl0OjEwO30mI3hhOwkuc3Q4e2ZpbGw6I0ZGRkZGRjtzdHJva2U6I0ZGRkZGRjtzdHJva2Utd2lkdGg6NDtzdHJva2UtbWl0ZXJsaW1pdDoxMDt9JiN4YTsJLnN0OXtmaWxsOiNGRkZGRkY7c3Ryb2tlOiNGRkZGRkY7c3Ryb2tlLXdpZHRoOjQ7fSYjeGE7CS5zdDEwe2ZpbGw6bm9uZTtzdHJva2U6I0ZGRkZGRjtzdHJva2Utd2lkdGg6NDt9JiN4YTsJLnN0MTF7ZmlsbDojMjYyNjI2O3N0cm9rZTojRkZGRkZGO3N0cm9rZS13aWR0aDo0LjIzMzM7fSYjeGE7CS5zdDEye2ZpbGwtcnVsZTpldmVub2RkO2NsaXAtcnVsZTpldmVub2RkO2ZpbGw6bm9uZTtzdHJva2U6I0ZGRkZGRjtzdHJva2Utd2lkdGg6NDtzdHJva2UtbWl0ZXJsaW1pdDoxMDt9JiN4YTsJLnN0MTN7ZmlsbC1ydWxlOmV2ZW5vZGQ7Y2xpcC1ydWxlOmV2ZW5vZGQ7ZmlsbDojRkZGRkZGO3N0cm9rZTojRkZGRkZGO3N0cm9rZS13aWR0aDo0O30mI3hhOwkuc3QxNHtmaWxsOm5vbmU7c3Ryb2tlOiNGRkZGRkY7c3Ryb2tlLXdpZHRoOjQuMjMzMztzdHJva2UtbGluZWNhcDpyb3VuZDtzdHJva2UtbGluZWpvaW46cm91bmQ7fSYjeGE7CS5zdDE1e2ZpbGw6bm9uZTtzdHJva2U6I0ZGRkZGRjtzdHJva2Utd2lkdGg6NDtzdHJva2UtbGluZWNhcDpyb3VuZDt9JiN4YTsJLnN0MTZ7ZmlsbDojRkZGRkZGO3N0cm9rZTojRkZGRkZGO3N0cm9rZS1taXRlcmxpbWl0OjEwO30mI3hhOwkuc3QxN3tmaWxsOiMyNjI2MjY7c3Ryb2tlOiNGRkZGRkY7c3Ryb2tlLXdpZHRoOjQ7c3Ryb2tlLW1pdGVybGltaXQ6MTA7fSYjeGE7CS5zdDE4e2ZpbGw6I0ZGRkZGRjtzdHJva2U6I0ZGRkZGRjtzdHJva2Utd2lkdGg6NDtzdHJva2UtbGluZWNhcDpyb3VuZDtzdHJva2UtbGluZWpvaW46cm91bmQ7fSYjeGE7PC9zdHlsZT4mI3hhOzxyZWN0IGhlaWdodD0iMTIwIiB3aWR0aD0iMTIwIiBjbGFzcz0ic3QwIi8+JiN4YTs8Zz4mI3hhOwk8cGF0aCBkPSJNOTEuNSwyNy4zbDcuNiw3LjZjMS4zLDEuMywxLjMsMy4xLDAsNC4zbC03LjYsNy43IiBjbGFzcz0ic3QxIi8+JiN4YTsJPHBhdGggZD0iTTI4LjUsNDYuOWwtNy42LTcuNmMtMS4zLTEuMy0xLjMtMy4xLDAtNC4zbDcuNi03LjciIGNsYXNzPSJzdDEiLz4mI3hhOwk8cGF0aCBkPSJNOTEuNSw3My4xbDcuNiw3LjZjMS4zLDEuMywxLjMsMy4xLDAsNC4zbC03LjYsNy43IiBjbGFzcz0ic3QxIi8+JiN4YTsJPHBhdGggZD0iTTI4LjUsOTIuN2wtNy42LTcuNmMtMS4zLTEuMy0xLjMtMy4xLDAtNC4zbDcuNi03LjciIGNsYXNzPSJzdDEiLz4mI3hhOwk8Zz4mI3hhOwkJPHBhdGggZD0iTTk2LjYsMzYuOEg2Ny45bC0xNiw0NS45SDIzLjIiIGNsYXNzPSJzdDEiLz4mI3hhOwkJPHBhdGggZD0iTTk2LjYsODIuN0g2Ny45bC0xNi00NS45SDIzLjIiIGNsYXNzPSJzdDEiLz4mI3hhOwk8L2c+JiN4YTs8L2c+JiN4YTs8L3N2Zz4=;fontFamily=Courier New;spacing=-2;" parent="1" vertex="1">
          <mxGeometry x="520" y="240.5" width="50" height="50" as="geometry" />
        </mxCell>
        <mxCell id="x8B2lODSbnbWZ4_KUf8C-10" style="edgeStyle=none;rounded=0;orthogonalLoop=1;jettySize=auto;html=1;endArrow=none;endFill=0;strokeColor=#99CCFF;strokeWidth=2;fontFamily=Courier New;exitX=1;exitY=0.5;exitDx=0;exitDy=0;" parent="1" source="x8B2lODSbnbWZ4_KUf8C-14" edge="1">
          <mxGeometry relative="1" as="geometry">
            <mxPoint x="490" y="270.5" as="sourcePoint" />
            <mxPoint x="510" y="276.5" as="targetPoint" />
          </mxGeometry>
        </mxCell>
        <mxCell id="x8B2lODSbnbWZ4_KUf8C-11" value="3" style="ellipse;whiteSpace=wrap;html=1;aspect=fixed;fontColor=#FFFFFF;fontSize=6;strokeColor=#0066CC;fontFamily=Courier New;fillColor=#66B2FF;rotation=0;" parent="1" vertex="1">
          <mxGeometry x="470" y="91" width="8" height="8" as="geometry" />
        </mxCell>
        <mxCell id="x8B2lODSbnbWZ4_KUf8C-12" value="1" style="ellipse;whiteSpace=wrap;html=1;aspect=fixed;fontColor=#FFFFFF;fontSize=6;strokeColor=#0066CC;fontFamily=Courier New;fillColor=#66B2FF;rotation=0;" parent="1" vertex="1">
          <mxGeometry x="470" y="112" width="8" height="8" as="geometry" />
        </mxCell>
        <mxCell id="x8B2lODSbnbWZ4_KUf8C-13" value="3" style="ellipse;whiteSpace=wrap;html=1;aspect=fixed;fontColor=#FFFFFF;fontSize=6;strokeColor=#0066CC;fontFamily=Courier New;fillColor=#66B2FF;rotation=0;" parent="1" vertex="1">
          <mxGeometry x="470" y="251" width="8" height="8" as="geometry" />
        </mxCell>
        <mxCell id="x8B2lODSbnbWZ4_KUf8C-14" value="1" style="ellipse;whiteSpace=wrap;html=1;aspect=fixed;fontColor=#FFFFFF;fontSize=6;strokeColor=#0066CC;fontFamily=Courier New;fillColor=#66B2FF;rotation=0;" parent="1" vertex="1">
          <mxGeometry x="470" y="272" width="8" height="8" as="geometry" />
        </mxCell>
        <mxCell id="x8B2lODSbnbWZ4_KUf8C-15" value="49" style="ellipse;whiteSpace=wrap;html=1;aspect=fixed;fontColor=#FFFFFF;fontSize=6;strokeColor=#0066CC;fontFamily=Courier New;fillColor=#66B2FF;rotation=0;direction=south;" parent="1" vertex="1">
          <mxGeometry x="512" y="272" width="8" height="8" as="geometry" />
        </mxCell>
        <mxCell id="x8B2lODSbnbWZ4_KUf8C-16" value="50" style="ellipse;whiteSpace=wrap;html=1;aspect=fixed;fontColor=#FFFFFF;fontSize=6;strokeColor=#0066CC;fontFamily=Courier New;fillColor=#66B2FF;rotation=0;" parent="1" vertex="1">
          <mxGeometry x="512" y="251" width="8" height="8" as="geometry" />
        </mxCell>
        <mxCell id="x8B2lODSbnbWZ4_KUf8C-17" value="49" style="ellipse;whiteSpace=wrap;html=1;aspect=fixed;fontColor=#FFFFFF;fontSize=6;strokeColor=#0066CC;fontFamily=Courier New;fillColor=#66B2FF;rotation=0;direction=south;" parent="1" vertex="1">
          <mxGeometry x="512" y="112" width="8" height="8" as="geometry" />
        </mxCell>
        <mxCell id="x8B2lODSbnbWZ4_KUf8C-18" value="50" style="ellipse;whiteSpace=wrap;html=1;aspect=fixed;fontColor=#FFFFFF;fontSize=6;strokeColor=#0066CC;fontFamily=Courier New;fillColor=#66B2FF;rotation=0;" parent="1" vertex="1">
          <mxGeometry x="512" y="91" width="8" height="8" as="geometry" />
        </mxCell>
        <mxCell id="x8B2lODSbnbWZ4_KUf8C-19" value="32" style="ellipse;whiteSpace=wrap;html=1;aspect=fixed;fontColor=#FFFFFF;fontSize=6;strokeColor=#0066CC;fontFamily=Courier New;fillColor=#66B2FF;rotation=0;" parent="1" vertex="1">
          <mxGeometry x="412" y="101.5" width="8" height="8" as="geometry" />
        </mxCell>
        <mxCell id="x8B2lODSbnbWZ4_KUf8C-20" value="" style="group;spacing=-8;" parent="1" vertex="1" connectable="0">
          <mxGeometry x="687" y="251" width="50" height="50" as="geometry" />
        </mxCell>
        <mxCell id="x8B2lODSbnbWZ4_KUf8C-21" value="client11" style="shape=image;verticalLabelPosition=bottom;verticalAlign=top;imageAspect=0;aspect=fixed;image=data:image/svg+xml,PHN2ZyB4bWxuczp4bGluaz0iaHR0cDovL3d3dy53My5vcmcvMTk5OS94bGluayIgeG1sbnM9Imh0dHA6Ly93d3cudzMub3JnLzIwMDAvc3ZnIiB4bWw6c3BhY2U9InByZXNlcnZlIiBzdHlsZT0iZW5hYmxlLWJhY2tncm91bmQ6bmV3IDAgMCAxMjAgMTIwOyIgdmlld0JveD0iMCAwIDEyMCAxMjAiIHk9IjBweCIgeD0iMHB4IiBpZD0iTGF5ZXJfMSIgdmVyc2lvbj0iMS4xIj4mI3hhOzxzdHlsZSB0eXBlPSJ0ZXh0L2NzcyI+JiN4YTsJLnN0MHtmaWxsOm5vbmU7fSYjeGE7CS5zdDF7ZmlsbDpub25lO3N0cm9rZTojMDAxMTM1O3N0cm9rZS13aWR0aDo0O3N0cm9rZS1saW5lY2FwOnJvdW5kO3N0cm9rZS1saW5lam9pbjpyb3VuZDtzdHJva2UtbWl0ZXJsaW1pdDoxMDt9JiN4YTsJLnN0MntmaWxsOiMwMDExMzU7fSYjeGE7CS5zdDN7ZmlsbDpub25lO3N0cm9rZTojMDAxMTM1O3N0cm9rZS13aWR0aDo0O3N0cm9rZS1taXRlcmxpbWl0OjEwO30mI3hhOwkuc3Q0e2ZpbGw6bm9uZTtzdHJva2U6IzAwMTEzNTtzdHJva2Utd2lkdGg6NDtzdHJva2UtbGluZWNhcDpyb3VuZDtzdHJva2UtbGluZWpvaW46cm91bmQ7fSYjeGE7CS5zdDV7ZmlsbDojMDAxMTM1O3N0cm9rZTojMDAxMTM1O3N0cm9rZS13aWR0aDo0O3N0cm9rZS1saW5lY2FwOnJvdW5kO3N0cm9rZS1saW5lam9pbjpyb3VuZDtzdHJva2UtbWl0ZXJsaW1pdDoxMDt9JiN4YTsJLnN0NntmaWxsOm5vbmU7c3Ryb2tlOiMwMDExMzU7c3Ryb2tlLXdpZHRoOjQuMjMzMztzdHJva2UtbGluZWNhcDpyb3VuZDtzdHJva2UtbGluZWpvaW46cm91bmQ7c3Ryb2tlLW1pdGVybGltaXQ6MTA7fSYjeGE7CS5zdDd7ZmlsbDpub25lO3N0cm9rZTojMDAxMTM1O3N0cm9rZS13aWR0aDo0O3N0cm9rZS1saW5lY2FwOnJvdW5kO3N0cm9rZS1taXRlcmxpbWl0OjEwO30mI3hhOwkuc3Q4e2ZpbGw6IzAwMTEzNTtzdHJva2U6IzAwMTEzNTtzdHJva2Utd2lkdGg6NDtzdHJva2UtbWl0ZXJsaW1pdDoxMDt9JiN4YTsJLnN0OXtmaWxsOiMwMDExMzU7c3Ryb2tlOiMwMDExMzU7c3Ryb2tlLXdpZHRoOjQ7fSYjeGE7CS5zdDEwe2ZpbGw6bm9uZTtzdHJva2U6IzAwMTEzNTtzdHJva2Utd2lkdGg6NDt9JiN4YTsJLnN0MTF7ZmlsbDojMjYyNjI2O3N0cm9rZTojMDAxMTM1O3N0cm9rZS13aWR0aDo0LjIzMzM7fSYjeGE7CS5zdDEye2ZpbGwtcnVsZTpldmVub2RkO2NsaXAtcnVsZTpldmVub2RkO2ZpbGw6bm9uZTtzdHJva2U6IzAwMTEzNTtzdHJva2Utd2lkdGg6NDtzdHJva2UtbWl0ZXJsaW1pdDoxMDt9JiN4YTsJLnN0MTN7ZmlsbC1ydWxlOmV2ZW5vZGQ7Y2xpcC1ydWxlOmV2ZW5vZGQ7ZmlsbDojMDAxMTM1O3N0cm9rZTojMDAxMTM1O3N0cm9rZS13aWR0aDo0O30mI3hhOwkuc3QxNHtmaWxsOiNGRkZGRkY7c3Ryb2tlOiMwMDExMzU7c3Ryb2tlLXdpZHRoOjQ7c3Ryb2tlLW1pdGVybGltaXQ6MTA7fSYjeGE7CS5zdDE1e2ZpbGw6bm9uZTtzdHJva2U6IzAwMTEzNTtzdHJva2Utd2lkdGg6NC4yMzMzO3N0cm9rZS1saW5lY2FwOnJvdW5kO3N0cm9rZS1saW5lam9pbjpyb3VuZDt9JiN4YTsJLnN0MTZ7ZmlsbDpub25lO3N0cm9rZTojMDAxMTM1O3N0cm9rZS13aWR0aDo0O3N0cm9rZS1saW5lY2FwOnJvdW5kO30mI3hhOwkuc3QxN3tmaWxsOiMwMDExMzU7c3Ryb2tlOiMwMDExMzU7c3Ryb2tlLW1pdGVybGltaXQ6MTA7fSYjeGE7CS5zdDE4e2ZpbGw6IzI2MjYyNjtzdHJva2U6IzAwMTEzNTtzdHJva2Utd2lkdGg6NDtzdHJva2UtbWl0ZXJsaW1pdDoxMDt9JiN4YTsJLnN0MTl7ZmlsbDojRkZGRkZGO3N0cm9rZTojMDAxMTM1O3N0cm9rZS13aWR0aDo0O3N0cm9rZS1saW5lY2FwOnJvdW5kO3N0cm9rZS1saW5lam9pbjpyb3VuZDtzdHJva2UtbWl0ZXJsaW1pdDoxMDt9JiN4YTsJLnN0MjB7ZmlsbDojMDAxMTM1O3N0cm9rZTojMDAxMTM1O3N0cm9rZS13aWR0aDo0O3N0cm9rZS1saW5lY2FwOnJvdW5kO3N0cm9rZS1saW5lam9pbjpyb3VuZDt9JiN4YTs8L3N0eWxlPiYjeGE7PHJlY3QgaGVpZ2h0PSIxMjAiIHdpZHRoPSIxMjAiIGNsYXNzPSJzdDAiLz4mI3hhOzxnPiYjeGE7CTxwYXRoIGQ9Ik0xMDAsOTEuMUgyMEgxMDB6IE04OS4xLDMyLjVjMC0wLjUsMC0xLTAuMi0xLjRjLTAuMi0wLjUtMC40LTAuOS0wLjgtMS4yYy0wLjMtMC4zLTAuOC0wLjYtMS4yLTAuOCYjMTA7JiM5OyYjOTtjLTAuNS0wLjItMC45LTAuMi0xLjQtMC4ySDM0LjZjLTAuNSwwLTEsMC0xLjQsMC4yYy0wLjUsMC4yLTAuOSwwLjQtMS4yLDAuOGMtMC4zLDAuMy0wLjYsMC44LTAuOCwxLjJjLTAuMiwwLjUtMC4yLDAuOS0wLjIsMS40JiMxMDsmIzk7JiM5O1Y3Nmg1OC4yVjMyLjV6IiBjbGFzcz0ic3Q0Ii8+JiN4YTs8L2c+JiN4YTs8L3N2Zz4=;fontFamily=Courier New;spacing=-4;" parent="x8B2lODSbnbWZ4_KUf8C-20" vertex="1">
          <mxGeometry width="50" height="50" as="geometry" />
        </mxCell>
        <mxCell id="x8B2lODSbnbWZ4_KUf8C-22" value="" style="shape=image;verticalLabelPosition=bottom;labelBackgroundColor=default;verticalAlign=top;aspect=fixed;imageAspect=0;image=data:image/svg+xml,PHN2ZyB4bWxucz0iaHR0cDovL3d3dy53My5vcmcvMjAwMC9zdmciIHZpZXdCb3g9IjAgMCAyNCAyNCI+PHBhdGggZD0ibTEyLjUwMyAwYy0uMTU1IDAtLjMxNS4wMDgtLjQ3OS4wMjEtNC4yMjcuMzMzLTMuMTA2IDQuODA3LTMuMTcgNi4yOTgtLjA3NyAxLjA5My0uMyAxLjk1NC0xLjA1MSAzLjAyMS0uODg1IDEuMDUxLTIuMTI3IDIuNzUtMi43MTYgNC41MjEtLjI3OC44MzItLjQxIDEuNjg0LS4yODcgMi40ODktLjAzOS4wMzQtLjA3Ni4wNjgtLjExMS4xMzUtLjI2LjI2OC0uNDQ5LjYwMS0uNjYyLjgzOS0uMTk5LjE5OS0uNDg1LjI2Ny0uNzk3LjQtLjMxMy4xMzYtLjY1OC4yNjktLjg2NC42ODEtLjA5LjE4OC0uMTM2LjM5My0uMTMyLjYwMSAwIC4xOTkuMDI3LjQwMS4wNTUuNTM2LjA1OC4zOTkuMTE2LjcyOS4wMzkuOTctLjI0OC42OC0uMjc5IDEuMTQ2LS4xMDUgMS40ODUuMTc0LjMzNC41MzUuNDY5LjkzOS42MDEuODExLjIgMS45MS4xMzUgMi43NzUuNTk5LjkyNi40NjcgMS44NjYuNjcxIDIuNjE2LjQ3LjUyNi0uMTE1Ljk3LS40NjMgMS4yMDgtLjk0NS41ODctLjAwMyAxLjIzLS4yNjkgMi4yNi0uMzM0LjY5OS0uMDU4IDEuNTc0LjI2NyAyLjU3OC4xOTkuMDI1LjEzNS4wNjMuMTk5LjExNC4zMzRsLjAwMy4wMDNjLjM5MS43NzggMS4xMTMgMS4xMzIgMS44ODQgMS4wNzEuNzcxLS4wNiAxLjU5Mi0uNTM2IDIuMjU3LTEuMzA2LjYzMS0uNzY1IDEuNjgzLTEuMDg0IDIuMzc4LTEuNTAzLjM0OC0uMTk5LjYyOS0uNDY5LjY0OS0uODUzLjAyMy0uNC0uMTk5LS44MTItLjcxNC0xLjM3N3YtLjA5N2wtLjAwMy0uMDAzYy0uMTctLjItLjI1LS41MzUtLjMzOC0uOTI2LS4wODUtLjQwMS0uMTgyLS43ODYtLjQ5Mi0xLjA0NmgtLjAwM2MtLjA1OS0uMDU0LS4xMjMtLjA2Ny0uMTg4LS4xMzUtLjA1Ni0uMDM4LS4xMjEtLjA2Mi0uMTktLjA2NC40MzEtMS4yNzguMjY0LTIuNTUtLjE3My0zLjY5NC0uNTMzLTEuNDEtMS40NjUtMi42MzgtMi4xNzUtMy40ODMtLjc5Ni0xLjAwNS0xLjU3Ni0xLjk1Ny0xLjU2MS0zLjM2OS4wMjctMi4xNTIuMjM3LTYuMTMzLTMuNTQ0LTYuMTM5em0uNTI5IDMuNDA1aC4wMTNjLjIxMyAwIC4zOTYuMDYyLjU4NC4xOTguMTkxLjEzNS4zMy4zMzIuNDM5LjUzMy4xMDUuMjU5LjE1OC40NTkuMTY2LjcyNCAwLS4wMi4wMDYtLjA0LjAwNi0uMDU5di4xMDRjLS4wMDItLjAwNy0uMDA0LS4wMTUtLjAwNC0uMDIxbC0uMDA0LS4wMjRjLS4wMDIuMjQzLS4wNTMuNDgzLS4xNS43MDYtLjA0Ny4xMjUtLjExOS4yNC0uMjEzLjMzNS0uMDI5LS4wMTYtLjA1Ny0uMDMtLjA4OC0uMDQyLS4xMDUtLjA0NS0uMTk5LS4wNjQtLjI4NS0uMTMzLS4wNzEtLjAyOC0uMTQ1LS4wNTEtLjIxOS0uMDY2LjA0OS0uMDU5LjE0NS0uMTMzLjE4Mi0uMTk4LjA1My0uMTI4LjA4Mi0uMjY0LjA4OC0uNDAydi0uMDE5Yy4wMDItLjEzNS0uMDE4LS4yNzEtLjA2MS0uNC0uMDQ1LS4xMzUtLjEwMS0uMjAxLS4xODMtLjMzNC0uMDg0LS4wNjYtLjE2Ny0uMTMyLS4yNjctLjEzMmgtLjAxNmMtLjA5MyAwLS4xNzYuMDMtLjI2Mi4xMzItLjA5NS4wOTQtLjE2Ni4yMDctLjIwNS4zMzQtLjA1My4xMjctLjA4NC4yNjQtLjA5LjR2LjAxOWMuMDAyLjA4OS4wMDguMTc5LjAyLjI2Ny0uMTkzLS4wNjctLjQzOC0uMTM1LS42MDctLjIwMi0uMDEtLjA2NS0uMDE2LS4xMzItLjAxOC0uMTk5di0uMDJjLS4wMDgtLjI2NC4wNDMtLjUyNi4xNS0uNzY5LjA4Mi0uMjE5LjIzMi0uNDA2LjQzLS41MzMuMTcxLS4xMjkuMzc5LS4xOTkuNTk0LS4xOTl6bS0yLjk2Mi4wNTloLjAzNmMuMTQyIDAgLjI3LjA0OC4zOTkuMTM1LjE0Ni4xMjkuMjY0LjI4OC4zNDQuNDY1LjA5LjE5OS4xNDEuNDAxLjE1My42Njd2LjAwNGMuMDA3LjEzNC4wMDYuMjAxLS4wMDIuMjY2di4wOGMtLjAzLjAwNy0uMDU2LjAxOC0uMDgzLjAyNC0uMTUyLjA1NS0uMjc0LjEzNS0uMzkzLjIuMDEyLS4wODkuMDEzLS4xNzkuMDAzLS4yNjd2LS4wMTVjLS4wMTItLjEzMy0uMDM5LS4xOTktLjA4Mi0uMzMzLS4wMzEtLjEwMi0uMDg4LS4xOTMtLjE2Ni0uMjY3LS4wNDktLjA0NS0uMTE1LS4wNjgtLjE4My0uMDY0aC0uMDIxYy0uMDcxLjAwNi0uMTMuMDQxLS4xODYuMTMyLS4wNjQuMDc3LS4xMDUuMTcxLS4xMi4yNy0uMDI3LjEwOC0uMDM1LjIxOS0uMDIzLjMzMXYuMDE0Yy4wMTIuMTM1LjAzNy4yMDEuMDgxLjMzNC4wNDUuMTM0LjA5Ny4yLjE2NS4yNjguMDExLjAwOS4wMjEuMDE4LjAzNC4wMjQtLjA3LjA1Ny0uMTE3LjA3LS4xNzYuMTM2LS4wMzcuMDI4LS4wOC4wNi0uMTMxLjA2OC0uMTA0LS4xMjUtLjE5Ni0uMjYtLjI3NS0uNDAyLS4wOTYtLjIxLS4xNDYtLjQzOC0uMTU1LS42NjctLjAxNy0uMjI2LjAxMS0uNDUyLjA4LS42NjguMDU1LS4xOTcuMTUyLS4zNzkuMjgzLS41MzUuMTI4LS4xMzMuMjYtLjIuNDE4LS4yem0xLjM3MSAxLjcwNmMuMzMxIDAgLjczMi4wNjUgMS4yMTUuMzk5LjI5My4yLjUyMy4yNjkgMS4wNTMuNDY4aC4wMDNjLjI1NS4xMzYuNDA1LjI2Ni40NzguMzk5di0uMTMxYy4wNzMuMTQ3LjA3OC4zMTguMDE2LjQ3LS4xMjMuMzExLS41MTYuNjQ0LTEuMDY0Ljg0M3YuMDAyYy0uMjY4LjEzNS0uNTAxLjMzMy0uNzc1LjQ2NS0uMjc2LjEzNS0uNTg4LjI5Mi0xLjAxMi4yNjctLjE1Mi4wMDgtLjMwNS0uMDE1LS40NDgtLjA2Ny0uMTEtLjA2LS4yMTgtLjEyNi0uMzIyLS4xOTgtLjE5NS0uMTM1LS4zNjMtLjMzMi0uNjEyLS40NjV2LS4wMDVoLS4wMDVjLS40LS4yNDYtLjYxNi0uNTEyLS42ODYtLjcxMS0uMDY5LS4yNjgtLjAwNS0uNDY5LjE5My0uNi4yMjQtLjEzNS4zOC0uMjcxLjQ4My0uMzM2LjEwNC0uMDc0LjE0My0uMTAyLjE3Ni0uMTMxaC4wMDJ2LS4wMDNjLjE2OS0uMjAyLjQzNi0uNDY5LjgzOS0uNjAxLjEzOS0uMDM2LjI5NC0uMDY1LjQ2Ni0uMDY1em0yLjc5OSAyLjE0M2MuMzU5IDEuNDE3IDEuMTk3IDMuNDc1IDEuNzM2IDQuNDczLjI4Ni41MzQuODU1IDEuNjU5IDEuMTAyIDMuMDI0LjE1Ni0uMDA1LjMyOS4wMTguNTEzLjA2NC42NDYtMS42NzEtLjU0Ni0zLjQ2Ny0xLjA4OS0zLjk2Ni0uMjIxLS4yMDEtLjIzMi0uMzM1LS4xMjMtLjMzNS41ODkuNTM0IDEuMzY1IDEuNTcyIDEuNjQ2IDIuNzU3LjEyOS41MzUuMTU5IDEuMTA0LjAyMSAxLjY3LjA2Ny4wMjguMTM1LjA2MS4yMDUuMDY3IDEuMDMyLjUzNCAxLjQxMy45MzggMS4yMyAxLjUzN3YtLjA0M2MtLjA2MS0uMDAzLS4xMiAwLS4xODEgMGgtLjAxNWMuMTUxLS40NjctLjE4Mi0uODI1LTEuMDY1LTEuMjI0LS45MTUtLjQtMS42NDYtLjMzNi0xLjc3MS40NjUtLjAwNy4wNDMtLjAxMi4wNjYtLjAxNy4xMzUtLjA2OC4wMjMtLjEzOS4wNTMtLjIwOS4wNjQtLjQzLjI2OC0uNjYyLjY2OS0uNzkzIDEuMTg3LS4xMy41MzMtLjE3IDEuMTU2LS4yMDUgMS44Njl2LjAwM2MtLjAyMS4zMzQtLjE3MS44MzgtLjMxOSAxLjM1MS0xLjUgMS4wNzItMy41OCAxLjUzOC01LjM0OS4zMzQtLjExMS0uMTkzLS4yNDYtLjM3NC0uNDAyLS41MzMtLjA3NC0uMTI1LS4xNjgtLjIzNy0uMjc1LS4zMzQuMTgyIDAgLjMzOC0uMDI5LjQ2NS0uMDY3LjE0NS0uMDY3LjI1Ny0uMTg4LjMxNC0uMzM0LjEwOC0uMjY3IDAtLjY5Ny0uMzQ1LTEuMTYzLS4zNDUtLjQ2Ny0uOTMxLS45OTUtMS43ODgtMS41MjEtLjYzLS4zOTktLjk4Ni0uODctMS4xNS0xLjM5Ni0uMTY1LS41MzQtLjE0My0xLjA4NS0uMDE1LTEuNjQ1LjI0NS0xLjA3Ljg3My0yLjExIDEuMjc0LTIuNzYzLjEwNy0uMDY1LjAzNy4xMzUtLjQwOC45NzQtLjM5Ni43NTEtMS4xNDEgMi40OTctLjEyMiAzLjg1NC4wMzgtLjk4OS4yNTgtMS45NjUuNjQ3LTIuODc2LjU2NC0xLjI3OCAxLjc0My0zLjUwNCAxLjgzNi01LjI2OC4wNDguMDM2LjIxNy4xMzUuMjg5LjIwMi4yMTguMTMzLjM4LjMzMy41OS40NjUuMjExLjIwMS40NzcuMzM1Ljg3Ni4zMzUuMDM5LjAwMy4wNzUuMDA2LjExMS4wMDYuNDExIDAgLjcyOS0uMTM0Ljk5Ni0uMjY4LjI5LS4xMzQuNTIxLS4zMzQuNzQtLjRoLjAwNWMuNDY3LS4xMzUuODM2LS40MDIgMS4wNDUtLjd6bTIuMTg2IDguOTU4Yy4wMzcuNjAxLjM0MyAxLjI0NS44ODIgMS4zNzcuNTg4LjEzNCAxLjQzNC0uMzMzIDEuNzkxLS43NjVsLjIxMS0uMDA5Yy4zMTUtLjAwOC41NzcuMDEuODQ3LjI2N2wuMDAzLjAwM2MuMjA4LjE5OS4zMDUuNTMxLjM5MS44NzYuMDg1LjQwMS4xNTQuNzguNDA5IDEuMDY2LjQ4Ni41MjcuNjQ1LjkwNi42MzYgMS4xNGwuMDAzLS4wMDZ2LjAxOGwtLjAwMy0uMDEyYy0uMDE1LjI2Mi0uMTg1LjM5Ni0uNDk4LjU5NS0uNjMuNDAxLTEuNzQ2LjcxMi0yLjQ1NyAxLjU3LS42MTguNzM3LTEuMzcxIDEuMTM5LTIuMDM2IDEuMTkxLS42NjQuMDUzLTEuMjM3LS4yLTEuNTc0LS44OThsLS4wMDUtLjAwM2MtLjIxLS40MDEtLjEyLTEuMDI1LjA1Ni0xLjY5LjE3Ni0uNjY4LjQyOC0xLjM0NS40NjMtMS44OTguMDM3LS43MTQuMDc2LTEuMzM1LjE5NS0xLjgxNC4xMi0uNDY1LjMwOC0uNzk3LjY0MS0uOTg0bC4wNDUtLjAyMnptLTEwLjgxNS4wNDloLjAxYy4wNTMgMCAuMTA1LjAwNS4xNTcuMDE0LjM3Ni4wNTUuNzA2LjMzMyAxLjAyMy43NTJsLjkxIDEuNjY0LjAwMy4wMDNjLjI0My41MzMuNzU0IDEuMDY0IDEuMTg5IDEuNjM4LjQzNC41OTguNzcgMS4xMzEuNzI5IDEuNTd2LjAwNmMtLjA1Ny43NDQtLjQ3OSAxLjE0OC0xLjEyNSAxLjI5NC0uNjQ1LjEzNS0xLjUyLjAwMi0yLjM5NS0uNDY0LS45NjgtLjUzNi0yLjExOC0uNDY5LTIuODU3LS42MDItLjM2OS0uMDY2LS42MTEtLjIwMS0uNzIzLS40MDEtLjExMS0uMTk5LS4xMTMtLjYwMS4xMjMtMS4yM3YtLjAwM2wuMDAyLS4wMDNjLjExNy0uMzM0LjAzLS43NTMtLjAyNy0xLjExOS0uMDU1LS40MDEtLjA4My0uNzA5LjA0My0uOTQuMTYtLjMzNC4zOTYtLjM5OS42ODktLjUzMy4yOTUtLjEzNS42NDEtLjIwMi45MTYtLjQ2OWguMDAydi0uMDAzYy4yNTYtLjI2OC40NDUtLjYwMS42NjgtLjgzOC4xOS0uMjAxLjM4LS4zMzYuNjYzLS4zMzZ6bTcuMTU5LTkuMDc0Yy0uNDM1LjIwMS0uOTQ1LjUzNS0xLjQ4OC41MzUtLjU0MiAwLS45Ny0uMjY3LTEuMjc5LS40NjYtLjE1NS0uMTM0LS4yOC0uMjY4LS4zNzQtLjMzNS0uMTY0LS4xMzQtLjE0NC0uMzM0LS4wNzQtLjMzNC4xMDkuMDE2LjEyOS4xMzUuMTk5LjIwMS4wOTYuMDY2LjIxNS4xOTkuMzYxLjMzMy4yOTEuMi42OC40NjcgMS4xNjYuNDY3LjQ4NSAwIDEuMDUzLS4yNjcgMS4zOTgtLjQ2Ni4xOTUtLjEzNS40NDUtLjMzNC42NDgtLjQ2Ny4xNTYtLjEzNy4xNDktLjI2OC4yNzktLjI2OC4xMjkuMDE2LjAzNC4xMzQtLjE0Ny4zMzMtLjE4MS4xMzUtLjQ2MS4zMzUtLjY5LjQ2OHYtLjAwMXptLTEuMDgyLTEuNTg0di0uMDIyYy0uMDA2LS4wMTkuMDEzLS4wNDIuMDI5LS4wNS4wNzQtLjA0My4xOC0uMDI3LjI2LjAwNC4wNjMgMCAuMTYuMDY3LjE1LjEzNS0uMDA2LjA0OS0uMDg1LjA2Ni0uMTM1LjA2Ni0uMDU1IDAtLjA5Mi0uMDQzLS4xNDEtLjA2OC0uMDUyLS4wMTgtLjE0Ni0uMDA4LS4xNjMtLjA2NXptLS41NTEgMGMtLjAyLjA1OC0uMTEzLjA0OS0uMTY2LjA2Ni0uMDQ3LjAyNS0uMDg2LjA2OC0uMTM5LjA2OC0uMDUxIDAtLjEzMS0uMDE5LS4xMzctLjA2OC0uMDA5LS4wNjYuMDg4LS4xMzMuMTUtLjEzMy4wODEtLjAzMS4xODQtLjA0Ny4yNTktLjAwNS4wMTkuMDA5LjAzNi4wMy4wMy4wNXYuMDIxaC4wMDN6Ii8+PC9zdmc+;" parent="x8B2lODSbnbWZ4_KUf8C-20" vertex="1">
          <mxGeometry x="17" y="13" width="16" height="16" as="geometry" />
        </mxCell>
        <mxCell id="x8B2lODSbnbWZ4_KUf8C-23" value="1" style="ellipse;whiteSpace=wrap;html=1;aspect=fixed;fontColor=#FFFFFF;fontSize=6;strokeColor=#0066CC;fontFamily=Courier New;fillColor=#66B2FF;rotation=0;" parent="x8B2lODSbnbWZ4_KUf8C-20" vertex="1">
          <mxGeometry y="21" width="8" height="8" as="geometry" />
        </mxCell>
        <mxCell id="x8B2lODSbnbWZ4_KUf8C-24" value="1" style="ellipse;whiteSpace=wrap;html=1;aspect=fixed;fontColor=#FFFFFF;fontSize=6;strokeColor=#0066CC;fontFamily=Courier New;fillColor=#66B2FF;rotation=0;" parent="1" vertex="1">
          <mxGeometry x="570" y="272" width="8" height="8" as="geometry" />
        </mxCell>
        <mxCell id="x8B2lODSbnbWZ4_KUf8C-25" style="edgeStyle=none;rounded=0;orthogonalLoop=1;jettySize=auto;html=1;endArrow=none;endFill=0;strokeColor=#99CCFF;strokeWidth=2;fontFamily=Courier New;entryX=1;entryY=0.5;entryDx=0;entryDy=0;exitX=0;exitY=0.5;exitDx=0;exitDy=0;" parent="1" source="x8B2lODSbnbWZ4_KUf8C-21" target="x8B2lODSbnbWZ4_KUf8C-24" edge="1">
          <mxGeometry relative="1" as="geometry">
            <mxPoint x="631" y="222.5" as="sourcePoint" />
            <mxPoint x="588" y="265.5" as="targetPoint" />
          </mxGeometry>
        </mxCell>
        <mxCell id="x8B2lODSbnbWZ4_KUf8C-26" value="" style="group;spacing=-8;" parent="1" vertex="1" connectable="0">
          <mxGeometry x="687" y="70" width="50" height="50" as="geometry" />
        </mxCell>
        <mxCell id="x8B2lODSbnbWZ4_KUf8C-27" value="client13" style="shape=image;verticalLabelPosition=bottom;verticalAlign=top;imageAspect=0;aspect=fixed;image=data:image/svg+xml,PHN2ZyB4bWxuczp4bGluaz0iaHR0cDovL3d3dy53My5vcmcvMTk5OS94bGluayIgeG1sbnM9Imh0dHA6Ly93d3cudzMub3JnLzIwMDAvc3ZnIiB4bWw6c3BhY2U9InByZXNlcnZlIiBzdHlsZT0iZW5hYmxlLWJhY2tncm91bmQ6bmV3IDAgMCAxMjAgMTIwOyIgdmlld0JveD0iMCAwIDEyMCAxMjAiIHk9IjBweCIgeD0iMHB4IiBpZD0iTGF5ZXJfMSIgdmVyc2lvbj0iMS4xIj4mI3hhOzxzdHlsZSB0eXBlPSJ0ZXh0L2NzcyI+JiN4YTsJLnN0MHtmaWxsOm5vbmU7fSYjeGE7CS5zdDF7ZmlsbDpub25lO3N0cm9rZTojMDAxMTM1O3N0cm9rZS13aWR0aDo0O3N0cm9rZS1saW5lY2FwOnJvdW5kO3N0cm9rZS1saW5lam9pbjpyb3VuZDtzdHJva2UtbWl0ZXJsaW1pdDoxMDt9JiN4YTsJLnN0MntmaWxsOiMwMDExMzU7fSYjeGE7CS5zdDN7ZmlsbDpub25lO3N0cm9rZTojMDAxMTM1O3N0cm9rZS13aWR0aDo0O3N0cm9rZS1taXRlcmxpbWl0OjEwO30mI3hhOwkuc3Q0e2ZpbGw6bm9uZTtzdHJva2U6IzAwMTEzNTtzdHJva2Utd2lkdGg6NDtzdHJva2UtbGluZWNhcDpyb3VuZDtzdHJva2UtbGluZWpvaW46cm91bmQ7fSYjeGE7CS5zdDV7ZmlsbDojMDAxMTM1O3N0cm9rZTojMDAxMTM1O3N0cm9rZS13aWR0aDo0O3N0cm9rZS1saW5lY2FwOnJvdW5kO3N0cm9rZS1saW5lam9pbjpyb3VuZDtzdHJva2UtbWl0ZXJsaW1pdDoxMDt9JiN4YTsJLnN0NntmaWxsOm5vbmU7c3Ryb2tlOiMwMDExMzU7c3Ryb2tlLXdpZHRoOjQuMjMzMztzdHJva2UtbGluZWNhcDpyb3VuZDtzdHJva2UtbGluZWpvaW46cm91bmQ7c3Ryb2tlLW1pdGVybGltaXQ6MTA7fSYjeGE7CS5zdDd7ZmlsbDpub25lO3N0cm9rZTojMDAxMTM1O3N0cm9rZS13aWR0aDo0O3N0cm9rZS1saW5lY2FwOnJvdW5kO3N0cm9rZS1taXRlcmxpbWl0OjEwO30mI3hhOwkuc3Q4e2ZpbGw6IzAwMTEzNTtzdHJva2U6IzAwMTEzNTtzdHJva2Utd2lkdGg6NDtzdHJva2UtbWl0ZXJsaW1pdDoxMDt9JiN4YTsJLnN0OXtmaWxsOiMwMDExMzU7c3Ryb2tlOiMwMDExMzU7c3Ryb2tlLXdpZHRoOjQ7fSYjeGE7CS5zdDEwe2ZpbGw6bm9uZTtzdHJva2U6IzAwMTEzNTtzdHJva2Utd2lkdGg6NDt9JiN4YTsJLnN0MTF7ZmlsbDojMjYyNjI2O3N0cm9rZTojMDAxMTM1O3N0cm9rZS13aWR0aDo0LjIzMzM7fSYjeGE7CS5zdDEye2ZpbGwtcnVsZTpldmVub2RkO2NsaXAtcnVsZTpldmVub2RkO2ZpbGw6bm9uZTtzdHJva2U6IzAwMTEzNTtzdHJva2Utd2lkdGg6NDtzdHJva2UtbWl0ZXJsaW1pdDoxMDt9JiN4YTsJLnN0MTN7ZmlsbC1ydWxlOmV2ZW5vZGQ7Y2xpcC1ydWxlOmV2ZW5vZGQ7ZmlsbDojMDAxMTM1O3N0cm9rZTojMDAxMTM1O3N0cm9rZS13aWR0aDo0O30mI3hhOwkuc3QxNHtmaWxsOiNGRkZGRkY7c3Ryb2tlOiMwMDExMzU7c3Ryb2tlLXdpZHRoOjQ7c3Ryb2tlLW1pdGVybGltaXQ6MTA7fSYjeGE7CS5zdDE1e2ZpbGw6bm9uZTtzdHJva2U6IzAwMTEzNTtzdHJva2Utd2lkdGg6NC4yMzMzO3N0cm9rZS1saW5lY2FwOnJvdW5kO3N0cm9rZS1saW5lam9pbjpyb3VuZDt9JiN4YTsJLnN0MTZ7ZmlsbDpub25lO3N0cm9rZTojMDAxMTM1O3N0cm9rZS13aWR0aDo0O3N0cm9rZS1saW5lY2FwOnJvdW5kO30mI3hhOwkuc3QxN3tmaWxsOiMwMDExMzU7c3Ryb2tlOiMwMDExMzU7c3Ryb2tlLW1pdGVybGltaXQ6MTA7fSYjeGE7CS5zdDE4e2ZpbGw6IzI2MjYyNjtzdHJva2U6IzAwMTEzNTtzdHJva2Utd2lkdGg6NDtzdHJva2UtbWl0ZXJsaW1pdDoxMDt9JiN4YTsJLnN0MTl7ZmlsbDojRkZGRkZGO3N0cm9rZTojMDAxMTM1O3N0cm9rZS13aWR0aDo0O3N0cm9rZS1saW5lY2FwOnJvdW5kO3N0cm9rZS1saW5lam9pbjpyb3VuZDtzdHJva2UtbWl0ZXJsaW1pdDoxMDt9JiN4YTsJLnN0MjB7ZmlsbDojMDAxMTM1O3N0cm9rZTojMDAxMTM1O3N0cm9rZS13aWR0aDo0O3N0cm9rZS1saW5lY2FwOnJvdW5kO3N0cm9rZS1saW5lam9pbjpyb3VuZDt9JiN4YTs8L3N0eWxlPiYjeGE7PHJlY3QgaGVpZ2h0PSIxMjAiIHdpZHRoPSIxMjAiIGNsYXNzPSJzdDAiLz4mI3hhOzxnPiYjeGE7CTxwYXRoIGQ9Ik0xMDAsOTEuMUgyMEgxMDB6IE04OS4xLDMyLjVjMC0wLjUsMC0xLTAuMi0xLjRjLTAuMi0wLjUtMC40LTAuOS0wLjgtMS4yYy0wLjMtMC4zLTAuOC0wLjYtMS4yLTAuOCYjMTA7JiM5OyYjOTtjLTAuNS0wLjItMC45LTAuMi0xLjQtMC4ySDM0LjZjLTAuNSwwLTEsMC0xLjQsMC4yYy0wLjUsMC4yLTAuOSwwLjQtMS4yLDAuOGMtMC4zLDAuMy0wLjYsMC44LTAuOCwxLjJjLTAuMiwwLjUtMC4yLDAuOS0wLjIsMS40JiMxMDsmIzk7JiM5O1Y3Nmg1OC4yVjMyLjV6IiBjbGFzcz0ic3Q0Ii8+JiN4YTs8L2c+JiN4YTs8L3N2Zz4=;fontFamily=Courier New;spacing=-4;" parent="x8B2lODSbnbWZ4_KUf8C-26" vertex="1">
          <mxGeometry width="50" height="50" as="geometry" />
        </mxCell>
        <mxCell id="x8B2lODSbnbWZ4_KUf8C-28" value="" style="shape=image;verticalLabelPosition=bottom;labelBackgroundColor=default;verticalAlign=top;aspect=fixed;imageAspect=0;image=data:image/svg+xml,PHN2ZyB4bWxucz0iaHR0cDovL3d3dy53My5vcmcvMjAwMC9zdmciIHZpZXdCb3g9IjAgMCAyNCAyNCI+PHBhdGggZD0ibTEyLjUwMyAwYy0uMTU1IDAtLjMxNS4wMDgtLjQ3OS4wMjEtNC4yMjcuMzMzLTMuMTA2IDQuODA3LTMuMTcgNi4yOTgtLjA3NyAxLjA5My0uMyAxLjk1NC0xLjA1MSAzLjAyMS0uODg1IDEuMDUxLTIuMTI3IDIuNzUtMi43MTYgNC41MjEtLjI3OC44MzItLjQxIDEuNjg0LS4yODcgMi40ODktLjAzOS4wMzQtLjA3Ni4wNjgtLjExMS4xMzUtLjI2LjI2OC0uNDQ5LjYwMS0uNjYyLjgzOS0uMTk5LjE5OS0uNDg1LjI2Ny0uNzk3LjQtLjMxMy4xMzYtLjY1OC4yNjktLjg2NC42ODEtLjA5LjE4OC0uMTM2LjM5My0uMTMyLjYwMSAwIC4xOTkuMDI3LjQwMS4wNTUuNTM2LjA1OC4zOTkuMTE2LjcyOS4wMzkuOTctLjI0OC42OC0uMjc5IDEuMTQ2LS4xMDUgMS40ODUuMTc0LjMzNC41MzUuNDY5LjkzOS42MDEuODExLjIgMS45MS4xMzUgMi43NzUuNTk5LjkyNi40NjcgMS44NjYuNjcxIDIuNjE2LjQ3LjUyNi0uMTE1Ljk3LS40NjMgMS4yMDgtLjk0NS41ODctLjAwMyAxLjIzLS4yNjkgMi4yNi0uMzM0LjY5OS0uMDU4IDEuNTc0LjI2NyAyLjU3OC4xOTkuMDI1LjEzNS4wNjMuMTk5LjExNC4zMzRsLjAwMy4wMDNjLjM5MS43NzggMS4xMTMgMS4xMzIgMS44ODQgMS4wNzEuNzcxLS4wNiAxLjU5Mi0uNTM2IDIuMjU3LTEuMzA2LjYzMS0uNzY1IDEuNjgzLTEuMDg0IDIuMzc4LTEuNTAzLjM0OC0uMTk5LjYyOS0uNDY5LjY0OS0uODUzLjAyMy0uNC0uMTk5LS44MTItLjcxNC0xLjM3N3YtLjA5N2wtLjAwMy0uMDAzYy0uMTctLjItLjI1LS41MzUtLjMzOC0uOTI2LS4wODUtLjQwMS0uMTgyLS43ODYtLjQ5Mi0xLjA0NmgtLjAwM2MtLjA1OS0uMDU0LS4xMjMtLjA2Ny0uMTg4LS4xMzUtLjA1Ni0uMDM4LS4xMjEtLjA2Mi0uMTktLjA2NC40MzEtMS4yNzguMjY0LTIuNTUtLjE3My0zLjY5NC0uNTMzLTEuNDEtMS40NjUtMi42MzgtMi4xNzUtMy40ODMtLjc5Ni0xLjAwNS0xLjU3Ni0xLjk1Ny0xLjU2MS0zLjM2OS4wMjctMi4xNTIuMjM3LTYuMTMzLTMuNTQ0LTYuMTM5em0uNTI5IDMuNDA1aC4wMTNjLjIxMyAwIC4zOTYuMDYyLjU4NC4xOTguMTkxLjEzNS4zMy4zMzIuNDM5LjUzMy4xMDUuMjU5LjE1OC40NTkuMTY2LjcyNCAwLS4wMi4wMDYtLjA0LjAwNi0uMDU5di4xMDRjLS4wMDItLjAwNy0uMDA0LS4wMTUtLjAwNC0uMDIxbC0uMDA0LS4wMjRjLS4wMDIuMjQzLS4wNTMuNDgzLS4xNS43MDYtLjA0Ny4xMjUtLjExOS4yNC0uMjEzLjMzNS0uMDI5LS4wMTYtLjA1Ny0uMDMtLjA4OC0uMDQyLS4xMDUtLjA0NS0uMTk5LS4wNjQtLjI4NS0uMTMzLS4wNzEtLjAyOC0uMTQ1LS4wNTEtLjIxOS0uMDY2LjA0OS0uMDU5LjE0NS0uMTMzLjE4Mi0uMTk4LjA1My0uMTI4LjA4Mi0uMjY0LjA4OC0uNDAydi0uMDE5Yy4wMDItLjEzNS0uMDE4LS4yNzEtLjA2MS0uNC0uMDQ1LS4xMzUtLjEwMS0uMjAxLS4xODMtLjMzNC0uMDg0LS4wNjYtLjE2Ny0uMTMyLS4yNjctLjEzMmgtLjAxNmMtLjA5MyAwLS4xNzYuMDMtLjI2Mi4xMzItLjA5NS4wOTQtLjE2Ni4yMDctLjIwNS4zMzQtLjA1My4xMjctLjA4NC4yNjQtLjA5LjR2LjAxOWMuMDAyLjA4OS4wMDguMTc5LjAyLjI2Ny0uMTkzLS4wNjctLjQzOC0uMTM1LS42MDctLjIwMi0uMDEtLjA2NS0uMDE2LS4xMzItLjAxOC0uMTk5di0uMDJjLS4wMDgtLjI2NC4wNDMtLjUyNi4xNS0uNzY5LjA4Mi0uMjE5LjIzMi0uNDA2LjQzLS41MzMuMTcxLS4xMjkuMzc5LS4xOTkuNTk0LS4xOTl6bS0yLjk2Mi4wNTloLjAzNmMuMTQyIDAgLjI3LjA0OC4zOTkuMTM1LjE0Ni4xMjkuMjY0LjI4OC4zNDQuNDY1LjA5LjE5OS4xNDEuNDAxLjE1My42Njd2LjAwNGMuMDA3LjEzNC4wMDYuMjAxLS4wMDIuMjY2di4wOGMtLjAzLjAwNy0uMDU2LjAxOC0uMDgzLjAyNC0uMTUyLjA1NS0uMjc0LjEzNS0uMzkzLjIuMDEyLS4wODkuMDEzLS4xNzkuMDAzLS4yNjd2LS4wMTVjLS4wMTItLjEzMy0uMDM5LS4xOTktLjA4Mi0uMzMzLS4wMzEtLjEwMi0uMDg4LS4xOTMtLjE2Ni0uMjY3LS4wNDktLjA0NS0uMTE1LS4wNjgtLjE4My0uMDY0aC0uMDIxYy0uMDcxLjAwNi0uMTMuMDQxLS4xODYuMTMyLS4wNjQuMDc3LS4xMDUuMTcxLS4xMi4yNy0uMDI3LjEwOC0uMDM1LjIxOS0uMDIzLjMzMXYuMDE0Yy4wMTIuMTM1LjAzNy4yMDEuMDgxLjMzNC4wNDUuMTM0LjA5Ny4yLjE2NS4yNjguMDExLjAwOS4wMjEuMDE4LjAzNC4wMjQtLjA3LjA1Ny0uMTE3LjA3LS4xNzYuMTM2LS4wMzcuMDI4LS4wOC4wNi0uMTMxLjA2OC0uMTA0LS4xMjUtLjE5Ni0uMjYtLjI3NS0uNDAyLS4wOTYtLjIxLS4xNDYtLjQzOC0uMTU1LS42NjctLjAxNy0uMjI2LjAxMS0uNDUyLjA4LS42NjguMDU1LS4xOTcuMTUyLS4zNzkuMjgzLS41MzUuMTI4LS4xMzMuMjYtLjIuNDE4LS4yem0xLjM3MSAxLjcwNmMuMzMxIDAgLjczMi4wNjUgMS4yMTUuMzk5LjI5My4yLjUyMy4yNjkgMS4wNTMuNDY4aC4wMDNjLjI1NS4xMzYuNDA1LjI2Ni40NzguMzk5di0uMTMxYy4wNzMuMTQ3LjA3OC4zMTguMDE2LjQ3LS4xMjMuMzExLS41MTYuNjQ0LTEuMDY0Ljg0M3YuMDAyYy0uMjY4LjEzNS0uNTAxLjMzMy0uNzc1LjQ2NS0uMjc2LjEzNS0uNTg4LjI5Mi0xLjAxMi4yNjctLjE1Mi4wMDgtLjMwNS0uMDE1LS40NDgtLjA2Ny0uMTEtLjA2LS4yMTgtLjEyNi0uMzIyLS4xOTgtLjE5NS0uMTM1LS4zNjMtLjMzMi0uNjEyLS40NjV2LS4wMDVoLS4wMDVjLS40LS4yNDYtLjYxNi0uNTEyLS42ODYtLjcxMS0uMDY5LS4yNjgtLjAwNS0uNDY5LjE5My0uNi4yMjQtLjEzNS4zOC0uMjcxLjQ4My0uMzM2LjEwNC0uMDc0LjE0My0uMTAyLjE3Ni0uMTMxaC4wMDJ2LS4wMDNjLjE2OS0uMjAyLjQzNi0uNDY5LjgzOS0uNjAxLjEzOS0uMDM2LjI5NC0uMDY1LjQ2Ni0uMDY1em0yLjc5OSAyLjE0M2MuMzU5IDEuNDE3IDEuMTk3IDMuNDc1IDEuNzM2IDQuNDczLjI4Ni41MzQuODU1IDEuNjU5IDEuMTAyIDMuMDI0LjE1Ni0uMDA1LjMyOS4wMTguNTEzLjA2NC42NDYtMS42NzEtLjU0Ni0zLjQ2Ny0xLjA4OS0zLjk2Ni0uMjIxLS4yMDEtLjIzMi0uMzM1LS4xMjMtLjMzNS41ODkuNTM0IDEuMzY1IDEuNTcyIDEuNjQ2IDIuNzU3LjEyOS41MzUuMTU5IDEuMTA0LjAyMSAxLjY3LjA2Ny4wMjguMTM1LjA2MS4yMDUuMDY3IDEuMDMyLjUzNCAxLjQxMy45MzggMS4yMyAxLjUzN3YtLjA0M2MtLjA2MS0uMDAzLS4xMiAwLS4xODEgMGgtLjAxNWMuMTUxLS40NjctLjE4Mi0uODI1LTEuMDY1LTEuMjI0LS45MTUtLjQtMS42NDYtLjMzNi0xLjc3MS40NjUtLjAwNy4wNDMtLjAxMi4wNjYtLjAxNy4xMzUtLjA2OC4wMjMtLjEzOS4wNTMtLjIwOS4wNjQtLjQzLjI2OC0uNjYyLjY2OS0uNzkzIDEuMTg3LS4xMy41MzMtLjE3IDEuMTU2LS4yMDUgMS44Njl2LjAwM2MtLjAyMS4zMzQtLjE3MS44MzgtLjMxOSAxLjM1MS0xLjUgMS4wNzItMy41OCAxLjUzOC01LjM0OS4zMzQtLjExMS0uMTkzLS4yNDYtLjM3NC0uNDAyLS41MzMtLjA3NC0uMTI1LS4xNjgtLjIzNy0uMjc1LS4zMzQuMTgyIDAgLjMzOC0uMDI5LjQ2NS0uMDY3LjE0NS0uMDY3LjI1Ny0uMTg4LjMxNC0uMzM0LjEwOC0uMjY3IDAtLjY5Ny0uMzQ1LTEuMTYzLS4zNDUtLjQ2Ny0uOTMxLS45OTUtMS43ODgtMS41MjEtLjYzLS4zOTktLjk4Ni0uODctMS4xNS0xLjM5Ni0uMTY1LS41MzQtLjE0My0xLjA4NS0uMDE1LTEuNjQ1LjI0NS0xLjA3Ljg3My0yLjExIDEuMjc0LTIuNzYzLjEwNy0uMDY1LjAzNy4xMzUtLjQwOC45NzQtLjM5Ni43NTEtMS4xNDEgMi40OTctLjEyMiAzLjg1NC4wMzgtLjk4OS4yNTgtMS45NjUuNjQ3LTIuODc2LjU2NC0xLjI3OCAxLjc0My0zLjUwNCAxLjgzNi01LjI2OC4wNDguMDM2LjIxNy4xMzUuMjg5LjIwMi4yMTguMTMzLjM4LjMzMy41OS40NjUuMjExLjIwMS40NzcuMzM1Ljg3Ni4zMzUuMDM5LjAwMy4wNzUuMDA2LjExMS4wMDYuNDExIDAgLjcyOS0uMTM0Ljk5Ni0uMjY4LjI5LS4xMzQuNTIxLS4zMzQuNzQtLjRoLjAwNWMuNDY3LS4xMzUuODM2LS40MDIgMS4wNDUtLjd6bTIuMTg2IDguOTU4Yy4wMzcuNjAxLjM0MyAxLjI0NS44ODIgMS4zNzcuNTg4LjEzNCAxLjQzNC0uMzMzIDEuNzkxLS43NjVsLjIxMS0uMDA5Yy4zMTUtLjAwOC41NzcuMDEuODQ3LjI2N2wuMDAzLjAwM2MuMjA4LjE5OS4zMDUuNTMxLjM5MS44NzYuMDg1LjQwMS4xNTQuNzguNDA5IDEuMDY2LjQ4Ni41MjcuNjQ1LjkwNi42MzYgMS4xNGwuMDAzLS4wMDZ2LjAxOGwtLjAwMy0uMDEyYy0uMDE1LjI2Mi0uMTg1LjM5Ni0uNDk4LjU5NS0uNjMuNDAxLTEuNzQ2LjcxMi0yLjQ1NyAxLjU3LS42MTguNzM3LTEuMzcxIDEuMTM5LTIuMDM2IDEuMTkxLS42NjQuMDUzLTEuMjM3LS4yLTEuNTc0LS44OThsLS4wMDUtLjAwM2MtLjIxLS40MDEtLjEyLTEuMDI1LjA1Ni0xLjY5LjE3Ni0uNjY4LjQyOC0xLjM0NS40NjMtMS44OTguMDM3LS43MTQuMDc2LTEuMzM1LjE5NS0xLjgxNC4xMi0uNDY1LjMwOC0uNzk3LjY0MS0uOTg0bC4wNDUtLjAyMnptLTEwLjgxNS4wNDloLjAxYy4wNTMgMCAuMTA1LjAwNS4xNTcuMDE0LjM3Ni4wNTUuNzA2LjMzMyAxLjAyMy43NTJsLjkxIDEuNjY0LjAwMy4wMDNjLjI0My41MzMuNzU0IDEuMDY0IDEuMTg5IDEuNjM4LjQzNC41OTguNzcgMS4xMzEuNzI5IDEuNTd2LjAwNmMtLjA1Ny43NDQtLjQ3OSAxLjE0OC0xLjEyNSAxLjI5NC0uNjQ1LjEzNS0xLjUyLjAwMi0yLjM5NS0uNDY0LS45NjgtLjUzNi0yLjExOC0uNDY5LTIuODU3LS42MDItLjM2OS0uMDY2LS42MTEtLjIwMS0uNzIzLS40MDEtLjExMS0uMTk5LS4xMTMtLjYwMS4xMjMtMS4yM3YtLjAwM2wuMDAyLS4wMDNjLjExNy0uMzM0LjAzLS43NTMtLjAyNy0xLjExOS0uMDU1LS40MDEtLjA4My0uNzA5LjA0My0uOTQuMTYtLjMzNC4zOTYtLjM5OS42ODktLjUzMy4yOTUtLjEzNS42NDEtLjIwMi45MTYtLjQ2OWguMDAydi0uMDAzYy4yNTYtLjI2OC40NDUtLjYwMS42NjgtLjgzOC4xOS0uMjAxLjM4LS4zMzYuNjYzLS4zMzZ6bTcuMTU5LTkuMDc0Yy0uNDM1LjIwMS0uOTQ1LjUzNS0xLjQ4OC41MzUtLjU0MiAwLS45Ny0uMjY3LTEuMjc5LS40NjYtLjE1NS0uMTM0LS4yOC0uMjY4LS4zNzQtLjMzNS0uMTY0LS4xMzQtLjE0NC0uMzM0LS4wNzQtLjMzNC4xMDkuMDE2LjEyOS4xMzUuMTk5LjIwMS4wOTYuMDY2LjIxNS4xOTkuMzYxLjMzMy4yOTEuMi42OC40NjcgMS4xNjYuNDY3LjQ4NSAwIDEuMDUzLS4yNjcgMS4zOTgtLjQ2Ni4xOTUtLjEzNS40NDUtLjMzNC42NDgtLjQ2Ny4xNTYtLjEzNy4xNDktLjI2OC4yNzktLjI2OC4xMjkuMDE2LjAzNC4xMzQtLjE0Ny4zMzMtLjE4MS4xMzUtLjQ2MS4zMzUtLjY5LjQ2OHYtLjAwMXptLTEuMDgyLTEuNTg0di0uMDIyYy0uMDA2LS4wMTkuMDEzLS4wNDIuMDI5LS4wNS4wNzQtLjA0My4xOC0uMDI3LjI2LjAwNC4wNjMgMCAuMTYuMDY3LjE1LjEzNS0uMDA2LjA0OS0uMDg1LjA2Ni0uMTM1LjA2Ni0uMDU1IDAtLjA5Mi0uMDQzLS4xNDEtLjA2OC0uMDUyLS4wMTgtLjE0Ni0uMDA4LS4xNjMtLjA2NXptLS41NTEgMGMtLjAyLjA1OC0uMTEzLjA0OS0uMTY2LjA2Ni0uMDQ3LjAyNS0uMDg2LjA2OC0uMTM5LjA2OC0uMDUxIDAtLjEzMS0uMDE5LS4xMzctLjA2OC0uMDA5LS4wNjYuMDg4LS4xMzMuMTUtLjEzMy4wODEtLjAzMS4xODQtLjA0Ny4yNTktLjAwNS4wMTkuMDA5LjAzNi4wMy4wMy4wNXYuMDIxaC4wMDN6Ii8+PC9zdmc+;" parent="x8B2lODSbnbWZ4_KUf8C-26" vertex="1">
          <mxGeometry x="17" y="13" width="16" height="16" as="geometry" />
        </mxCell>
        <mxCell id="x8B2lODSbnbWZ4_KUf8C-29" value="1" style="ellipse;whiteSpace=wrap;html=1;aspect=fixed;fontColor=#FFFFFF;fontSize=6;strokeColor=#0066CC;fontFamily=Courier New;fillColor=#66B2FF;rotation=0;" parent="x8B2lODSbnbWZ4_KUf8C-26" vertex="1">
          <mxGeometry y="21" width="8" height="8" as="geometry" />
        </mxCell>
        <mxCell id="x8B2lODSbnbWZ4_KUf8C-30" value="3" style="ellipse;whiteSpace=wrap;html=1;aspect=fixed;fontColor=#FFFFFF;fontSize=6;strokeColor=#0066CC;fontFamily=Courier New;fillColor=#66B2FF;rotation=0;" parent="1" vertex="1">
          <mxGeometry x="570" y="91" width="8" height="8" as="geometry" />
        </mxCell>
        <mxCell id="x8B2lODSbnbWZ4_KUf8C-31" style="edgeStyle=none;rounded=0;orthogonalLoop=1;jettySize=auto;html=1;endArrow=none;endFill=0;strokeColor=#99CCFF;strokeWidth=2;fontFamily=Courier New;entryX=1;entryY=0.5;entryDx=0;entryDy=0;exitX=0;exitY=0.5;exitDx=0;exitDy=0;" parent="1" source="x8B2lODSbnbWZ4_KUf8C-27" target="x8B2lODSbnbWZ4_KUf8C-30" edge="1">
          <mxGeometry relative="1" as="geometry">
            <mxPoint x="630" y="199.5" as="sourcePoint" />
            <mxPoint x="588" y="125.5" as="targetPoint" />
          </mxGeometry>
        </mxCell>
        <mxCell id="x8B2lODSbnbWZ4_KUf8C-32" value="1" style="ellipse;whiteSpace=wrap;html=1;aspect=fixed;fontColor=#FFFFFF;fontSize=6;strokeColor=#98A2AE;fontFamily=Courier New;fillColor=#BEC8D2;" parent="1" vertex="1">
          <mxGeometry x="230" y="256.5" width="8" height="8" as="geometry" />
        </mxCell>
        <mxCell id="x8B2lODSbnbWZ4_KUf8C-33" value="2" style="ellipse;whiteSpace=wrap;html=1;aspect=fixed;fontColor=#FFFFFF;fontSize=6;strokeColor=#98A2AE;fontFamily=Courier New;fillColor=#BEC8D2;" parent="1" vertex="1">
          <mxGeometry x="230" y="273" width="8" height="8" as="geometry" />
        </mxCell>
        <mxCell id="x8B2lODSbnbWZ4_KUf8C-34" value="4" style="ellipse;whiteSpace=wrap;html=1;aspect=fixed;fontColor=#FFFFFF;fontSize=6;strokeColor=#0066CC;fontFamily=Courier New;fillColor=#66B2FF;rotation=0;" parent="1" vertex="1">
          <mxGeometry x="288" y="256.5" width="8" height="8" as="geometry" />
        </mxCell>
        <mxCell id="x8B2lODSbnbWZ4_KUf8C-35" value="3" style="ellipse;whiteSpace=wrap;html=1;aspect=fixed;fontColor=#FFFFFF;fontSize=6;strokeColor=#0066CC;fontFamily=Courier New;fillColor=#66B2FF;rotation=0;" parent="1" vertex="1">
          <mxGeometry x="288" y="273" width="8" height="8" as="geometry" />
        </mxCell>
        <mxCell id="x8B2lODSbnbWZ4_KUf8C-36" value="" style="shape=image;verticalLabelPosition=bottom;labelBackgroundColor=default;verticalAlign=top;aspect=fixed;imageAspect=0;image=data:image/svg+xml,PHN2ZyB4bWxucz0iaHR0cDovL3d3dy53My5vcmcvMjAwMC9zdmciIHZpZXdCb3g9IjAgMCAyNCAyNCI+PHBhdGggZD0ibTEyLjUwMyAwYy0uMTU1IDAtLjMxNS4wMDgtLjQ3OS4wMjEtNC4yMjcuMzMzLTMuMTA2IDQuODA3LTMuMTcgNi4yOTgtLjA3NyAxLjA5My0uMyAxLjk1NC0xLjA1MSAzLjAyMS0uODg1IDEuMDUxLTIuMTI3IDIuNzUtMi43MTYgNC41MjEtLjI3OC44MzItLjQxIDEuNjg0LS4yODcgMi40ODktLjAzOS4wMzQtLjA3Ni4wNjgtLjExMS4xMzUtLjI2LjI2OC0uNDQ5LjYwMS0uNjYyLjgzOS0uMTk5LjE5OS0uNDg1LjI2Ny0uNzk3LjQtLjMxMy4xMzYtLjY1OC4yNjktLjg2NC42ODEtLjA5LjE4OC0uMTM2LjM5My0uMTMyLjYwMSAwIC4xOTkuMDI3LjQwMS4wNTUuNTM2LjA1OC4zOTkuMTE2LjcyOS4wMzkuOTctLjI0OC42OC0uMjc5IDEuMTQ2LS4xMDUgMS40ODUuMTc0LjMzNC41MzUuNDY5LjkzOS42MDEuODExLjIgMS45MS4xMzUgMi43NzUuNTk5LjkyNi40NjcgMS44NjYuNjcxIDIuNjE2LjQ3LjUyNi0uMTE1Ljk3LS40NjMgMS4yMDgtLjk0NS41ODctLjAwMyAxLjIzLS4yNjkgMi4yNi0uMzM0LjY5OS0uMDU4IDEuNTc0LjI2NyAyLjU3OC4xOTkuMDI1LjEzNS4wNjMuMTk5LjExNC4zMzRsLjAwMy4wMDNjLjM5MS43NzggMS4xMTMgMS4xMzIgMS44ODQgMS4wNzEuNzcxLS4wNiAxLjU5Mi0uNTM2IDIuMjU3LTEuMzA2LjYzMS0uNzY1IDEuNjgzLTEuMDg0IDIuMzc4LTEuNTAzLjM0OC0uMTk5LjYyOS0uNDY5LjY0OS0uODUzLjAyMy0uNC0uMTk5LS44MTItLjcxNC0xLjM3N3YtLjA5N2wtLjAwMy0uMDAzYy0uMTctLjItLjI1LS41MzUtLjMzOC0uOTI2LS4wODUtLjQwMS0uMTgyLS43ODYtLjQ5Mi0xLjA0NmgtLjAwM2MtLjA1OS0uMDU0LS4xMjMtLjA2Ny0uMTg4LS4xMzUtLjA1Ni0uMDM4LS4xMjEtLjA2Mi0uMTktLjA2NC40MzEtMS4yNzguMjY0LTIuNTUtLjE3My0zLjY5NC0uNTMzLTEuNDEtMS40NjUtMi42MzgtMi4xNzUtMy40ODMtLjc5Ni0xLjAwNS0xLjU3Ni0xLjk1Ny0xLjU2MS0zLjM2OS4wMjctMi4xNTIuMjM3LTYuMTMzLTMuNTQ0LTYuMTM5em0uNTI5IDMuNDA1aC4wMTNjLjIxMyAwIC4zOTYuMDYyLjU4NC4xOTguMTkxLjEzNS4zMy4zMzIuNDM5LjUzMy4xMDUuMjU5LjE1OC40NTkuMTY2LjcyNCAwLS4wMi4wMDYtLjA0LjAwNi0uMDU5di4xMDRjLS4wMDItLjAwNy0uMDA0LS4wMTUtLjAwNC0uMDIxbC0uMDA0LS4wMjRjLS4wMDIuMjQzLS4wNTMuNDgzLS4xNS43MDYtLjA0Ny4xMjUtLjExOS4yNC0uMjEzLjMzNS0uMDI5LS4wMTYtLjA1Ny0uMDMtLjA4OC0uMDQyLS4xMDUtLjA0NS0uMTk5LS4wNjQtLjI4NS0uMTMzLS4wNzEtLjAyOC0uMTQ1LS4wNTEtLjIxOS0uMDY2LjA0OS0uMDU5LjE0NS0uMTMzLjE4Mi0uMTk4LjA1My0uMTI4LjA4Mi0uMjY0LjA4OC0uNDAydi0uMDE5Yy4wMDItLjEzNS0uMDE4LS4yNzEtLjA2MS0uNC0uMDQ1LS4xMzUtLjEwMS0uMjAxLS4xODMtLjMzNC0uMDg0LS4wNjYtLjE2Ny0uMTMyLS4yNjctLjEzMmgtLjAxNmMtLjA5MyAwLS4xNzYuMDMtLjI2Mi4xMzItLjA5NS4wOTQtLjE2Ni4yMDctLjIwNS4zMzQtLjA1My4xMjctLjA4NC4yNjQtLjA5LjR2LjAxOWMuMDAyLjA4OS4wMDguMTc5LjAyLjI2Ny0uMTkzLS4wNjctLjQzOC0uMTM1LS42MDctLjIwMi0uMDEtLjA2NS0uMDE2LS4xMzItLjAxOC0uMTk5di0uMDJjLS4wMDgtLjI2NC4wNDMtLjUyNi4xNS0uNzY5LjA4Mi0uMjE5LjIzMi0uNDA2LjQzLS41MzMuMTcxLS4xMjkuMzc5LS4xOTkuNTk0LS4xOTl6bS0yLjk2Mi4wNTloLjAzNmMuMTQyIDAgLjI3LjA0OC4zOTkuMTM1LjE0Ni4xMjkuMjY0LjI4OC4zNDQuNDY1LjA5LjE5OS4xNDEuNDAxLjE1My42Njd2LjAwNGMuMDA3LjEzNC4wMDYuMjAxLS4wMDIuMjY2di4wOGMtLjAzLjAwNy0uMDU2LjAxOC0uMDgzLjAyNC0uMTUyLjA1NS0uMjc0LjEzNS0uMzkzLjIuMDEyLS4wODkuMDEzLS4xNzkuMDAzLS4yNjd2LS4wMTVjLS4wMTItLjEzMy0uMDM5LS4xOTktLjA4Mi0uMzMzLS4wMzEtLjEwMi0uMDg4LS4xOTMtLjE2Ni0uMjY3LS4wNDktLjA0NS0uMTE1LS4wNjgtLjE4My0uMDY0aC0uMDIxYy0uMDcxLjAwNi0uMTMuMDQxLS4xODYuMTMyLS4wNjQuMDc3LS4xMDUuMTcxLS4xMi4yNy0uMDI3LjEwOC0uMDM1LjIxOS0uMDIzLjMzMXYuMDE0Yy4wMTIuMTM1LjAzNy4yMDEuMDgxLjMzNC4wNDUuMTM0LjA5Ny4yLjE2NS4yNjguMDExLjAwOS4wMjEuMDE4LjAzNC4wMjQtLjA3LjA1Ny0uMTE3LjA3LS4xNzYuMTM2LS4wMzcuMDI4LS4wOC4wNi0uMTMxLjA2OC0uMTA0LS4xMjUtLjE5Ni0uMjYtLjI3NS0uNDAyLS4wOTYtLjIxLS4xNDYtLjQzOC0uMTU1LS42NjctLjAxNy0uMjI2LjAxMS0uNDUyLjA4LS42NjguMDU1LS4xOTcuMTUyLS4zNzkuMjgzLS41MzUuMTI4LS4xMzMuMjYtLjIuNDE4LS4yem0xLjM3MSAxLjcwNmMuMzMxIDAgLjczMi4wNjUgMS4yMTUuMzk5LjI5My4yLjUyMy4yNjkgMS4wNTMuNDY4aC4wMDNjLjI1NS4xMzYuNDA1LjI2Ni40NzguMzk5di0uMTMxYy4wNzMuMTQ3LjA3OC4zMTguMDE2LjQ3LS4xMjMuMzExLS41MTYuNjQ0LTEuMDY0Ljg0M3YuMDAyYy0uMjY4LjEzNS0uNTAxLjMzMy0uNzc1LjQ2NS0uMjc2LjEzNS0uNTg4LjI5Mi0xLjAxMi4yNjctLjE1Mi4wMDgtLjMwNS0uMDE1LS40NDgtLjA2Ny0uMTEtLjA2LS4yMTgtLjEyNi0uMzIyLS4xOTgtLjE5NS0uMTM1LS4zNjMtLjMzMi0uNjEyLS40NjV2LS4wMDVoLS4wMDVjLS40LS4yNDYtLjYxNi0uNTEyLS42ODYtLjcxMS0uMDY5LS4yNjgtLjAwNS0uNDY5LjE5My0uNi4yMjQtLjEzNS4zOC0uMjcxLjQ4My0uMzM2LjEwNC0uMDc0LjE0My0uMTAyLjE3Ni0uMTMxaC4wMDJ2LS4wMDNjLjE2OS0uMjAyLjQzNi0uNDY5LjgzOS0uNjAxLjEzOS0uMDM2LjI5NC0uMDY1LjQ2Ni0uMDY1em0yLjc5OSAyLjE0M2MuMzU5IDEuNDE3IDEuMTk3IDMuNDc1IDEuNzM2IDQuNDczLjI4Ni41MzQuODU1IDEuNjU5IDEuMTAyIDMuMDI0LjE1Ni0uMDA1LjMyOS4wMTguNTEzLjA2NC42NDYtMS42NzEtLjU0Ni0zLjQ2Ny0xLjA4OS0zLjk2Ni0uMjIxLS4yMDEtLjIzMi0uMzM1LS4xMjMtLjMzNS41ODkuNTM0IDEuMzY1IDEuNTcyIDEuNjQ2IDIuNzU3LjEyOS41MzUuMTU5IDEuMTA0LjAyMSAxLjY3LjA2Ny4wMjguMTM1LjA2MS4yMDUuMDY3IDEuMDMyLjUzNCAxLjQxMy45MzggMS4yMyAxLjUzN3YtLjA0M2MtLjA2MS0uMDAzLS4xMiAwLS4xODEgMGgtLjAxNWMuMTUxLS40NjctLjE4Mi0uODI1LTEuMDY1LTEuMjI0LS45MTUtLjQtMS42NDYtLjMzNi0xLjc3MS40NjUtLjAwNy4wNDMtLjAxMi4wNjYtLjAxNy4xMzUtLjA2OC4wMjMtLjEzOS4wNTMtLjIwOS4wNjQtLjQzLjI2OC0uNjYyLjY2OS0uNzkzIDEuMTg3LS4xMy41MzMtLjE3IDEuMTU2LS4yMDUgMS44Njl2LjAwM2MtLjAyMS4zMzQtLjE3MS44MzgtLjMxOSAxLjM1MS0xLjUgMS4wNzItMy41OCAxLjUzOC01LjM0OS4zMzQtLjExMS0uMTkzLS4yNDYtLjM3NC0uNDAyLS41MzMtLjA3NC0uMTI1LS4xNjgtLjIzNy0uMjc1LS4zMzQuMTgyIDAgLjMzOC0uMDI5LjQ2NS0uMDY3LjE0NS0uMDY3LjI1Ny0uMTg4LjMxNC0uMzM0LjEwOC0uMjY3IDAtLjY5Ny0uMzQ1LTEuMTYzLS4zNDUtLjQ2Ny0uOTMxLS45OTUtMS43ODgtMS41MjEtLjYzLS4zOTktLjk4Ni0uODctMS4xNS0xLjM5Ni0uMTY1LS41MzQtLjE0My0xLjA4NS0uMDE1LTEuNjQ1LjI0NS0xLjA3Ljg3My0yLjExIDEuMjc0LTIuNzYzLjEwNy0uMDY1LjAzNy4xMzUtLjQwOC45NzQtLjM5Ni43NTEtMS4xNDEgMi40OTctLjEyMiAzLjg1NC4wMzgtLjk4OS4yNTgtMS45NjUuNjQ3LTIuODc2LjU2NC0xLjI3OCAxLjc0My0zLjUwNCAxLjgzNi01LjI2OC4wNDguMDM2LjIxNy4xMzUuMjg5LjIwMi4yMTguMTMzLjM4LjMzMy41OS40NjUuMjExLjIwMS40NzcuMzM1Ljg3Ni4zMzUuMDM5LjAwMy4wNzUuMDA2LjExMS4wMDYuNDExIDAgLjcyOS0uMTM0Ljk5Ni0uMjY4LjI5LS4xMzQuNTIxLS4zMzQuNzQtLjRoLjAwNWMuNDY3LS4xMzUuODM2LS40MDIgMS4wNDUtLjd6bTIuMTg2IDguOTU4Yy4wMzcuNjAxLjM0MyAxLjI0NS44ODIgMS4zNzcuNTg4LjEzNCAxLjQzNC0uMzMzIDEuNzkxLS43NjVsLjIxMS0uMDA5Yy4zMTUtLjAwOC41NzcuMDEuODQ3LjI2N2wuMDAzLjAwM2MuMjA4LjE5OS4zMDUuNTMxLjM5MS44NzYuMDg1LjQwMS4xNTQuNzguNDA5IDEuMDY2LjQ4Ni41MjcuNjQ1LjkwNi42MzYgMS4xNGwuMDAzLS4wMDZ2LjAxOGwtLjAwMy0uMDEyYy0uMDE1LjI2Mi0uMTg1LjM5Ni0uNDk4LjU5NS0uNjMuNDAxLTEuNzQ2LjcxMi0yLjQ1NyAxLjU3LS42MTguNzM3LTEuMzcxIDEuMTM5LTIuMDM2IDEuMTkxLS42NjQuMDUzLTEuMjM3LS4yLTEuNTc0LS44OThsLS4wMDUtLjAwM2MtLjIxLS40MDEtLjEyLTEuMDI1LjA1Ni0xLjY5LjE3Ni0uNjY4LjQyOC0xLjM0NS40NjMtMS44OTguMDM3LS43MTQuMDc2LTEuMzM1LjE5NS0xLjgxNC4xMi0uNDY1LjMwOC0uNzk3LjY0MS0uOTg0bC4wNDUtLjAyMnptLTEwLjgxNS4wNDloLjAxYy4wNTMgMCAuMTA1LjAwNS4xNTcuMDE0LjM3Ni4wNTUuNzA2LjMzMyAxLjAyMy43NTJsLjkxIDEuNjY0LjAwMy4wMDNjLjI0My41MzMuNzU0IDEuMDY0IDEuMTg5IDEuNjM4LjQzNC41OTguNzcgMS4xMzEuNzI5IDEuNTd2LjAwNmMtLjA1Ny43NDQtLjQ3OSAxLjE0OC0xLjEyNSAxLjI5NC0uNjQ1LjEzNS0xLjUyLjAwMi0yLjM5NS0uNDY0LS45NjgtLjUzNi0yLjExOC0uNDY5LTIuODU3LS42MDItLjM2OS0uMDY2LS42MTEtLjIwMS0uNzIzLS40MDEtLjExMS0uMTk5LS4xMTMtLjYwMS4xMjMtMS4yM3YtLjAwM2wuMDAyLS4wMDNjLjExNy0uMzM0LjAzLS43NTMtLjAyNy0xLjExOS0uMDU1LS40MDEtLjA4My0uNzA5LjA0My0uOTQuMTYtLjMzNC4zOTYtLjM5OS42ODktLjUzMy4yOTUtLjEzNS42NDEtLjIwMi45MTYtLjQ2OWguMDAydi0uMDAzYy4yNTYtLjI2OC40NDUtLjYwMS42NjgtLjgzOC4xOS0uMjAxLjM4LS4zMzYuNjYzLS4zMzZ6bTcuMTU5LTkuMDc0Yy0uNDM1LjIwMS0uOTQ1LjUzNS0xLjQ4OC41MzUtLjU0MiAwLS45Ny0uMjY3LTEuMjc5LS40NjYtLjE1NS0uMTM0LS4yOC0uMjY4LS4zNzQtLjMzNS0uMTY0LS4xMzQtLjE0NC0uMzM0LS4wNzQtLjMzNC4xMDkuMDE2LjEyOS4xMzUuMTk5LjIwMS4wOTYuMDY2LjIxNS4xOTkuMzYxLjMzMy4yOTEuMi42OC40NjcgMS4xNjYuNDY3LjQ4NSAwIDEuMDUzLS4yNjcgMS4zOTgtLjQ2Ni4xOTUtLjEzNS40NDUtLjMzNC42NDgtLjQ2Ny4xNTYtLjEzNy4xNDktLjI2OC4yNzktLjI2OC4xMjkuMDE2LjAzNC4xMzQtLjE0Ny4zMzMtLjE4MS4xMzUtLjQ2MS4zMzUtLjY5LjQ2OHYtLjAwMXptLTEuMDgyLTEuNTg0di0uMDIyYy0uMDA2LS4wMTkuMDEzLS4wNDIuMDI5LS4wNS4wNzQtLjA0My4xOC0uMDI3LjI2LjAwNC4wNjMgMCAuMTYuMDY3LjE1LjEzNS0uMDA2LjA0OS0uMDg1LjA2Ni0uMTM1LjA2Ni0uMDU1IDAtLjA5Mi0uMDQzLS4xNDEtLjA2OC0uMDUyLS4wMTgtLjE0Ni0uMDA4LS4xNjMtLjA2NXptLS41NTEgMGMtLjAyLjA1OC0uMTEzLjA0OS0uMTY2LjA2Ni0uMDQ3LjAyNS0uMDg2LjA2OC0uMTM5LjA2OC0uMDUxIDAtLjEzMS0uMDE5LS4xMzctLjA2OC0uMDA5LS4wNjYuMDg4LS4xMzMuMTUtLjEzMy4wODEtLjAzMS4xODQtLjA0Ny4yNTktLjAwNS4wMTkuMDA5LjAzNi4wMy4wMy4wNXYuMDIxaC4wMDN6Ii8+PC9zdmc+;" parent="1" vertex="1">
          <mxGeometry x="302" y="138" width="16" height="16" as="geometry" />
        </mxCell>
        <mxCell id="x8B2lODSbnbWZ4_KUf8C-37" style="edgeStyle=none;rounded=0;orthogonalLoop=1;jettySize=auto;html=1;endArrow=none;endFill=0;strokeColor=#99CCFF;strokeWidth=2;fontFamily=Courier New;entryX=0;entryY=0.5;entryDx=0;entryDy=0;exitX=1;exitY=0.5;exitDx=0;exitDy=0;" parent="1" source="x8B2lODSbnbWZ4_KUf8C-34" target="x8B2lODSbnbWZ4_KUf8C-19" edge="1">
          <mxGeometry relative="1" as="geometry">
            <mxPoint x="488" y="105.5" as="sourcePoint" />
            <mxPoint x="522" y="105.5" as="targetPoint" />
          </mxGeometry>
        </mxCell>
        <mxCell id="x8B2lODSbnbWZ4_KUf8C-38" style="edgeStyle=none;rounded=0;orthogonalLoop=1;jettySize=auto;html=1;endArrow=none;endFill=0;strokeColor=#99CCFF;strokeWidth=2;fontFamily=Courier New;exitX=1;exitY=0.5;exitDx=0;exitDy=0;entryX=0;entryY=0;entryDx=0;entryDy=0;" parent="1" source="x8B2lODSbnbWZ4_KUf8C-35" target="x8B2lODSbnbWZ4_KUf8C-46" edge="1">
          <mxGeometry relative="1" as="geometry">
            <mxPoint x="338" y="106.5" as="sourcePoint" />
            <mxPoint x="412" y="195.5" as="targetPoint" />
          </mxGeometry>
        </mxCell>
        <mxCell id="x8B2lODSbnbWZ4_KUf8C-39" value="6" style="ellipse;whiteSpace=wrap;html=1;aspect=fixed;fontColor=#FFFFFF;fontSize=6;strokeColor=#98A2AE;fontFamily=Courier New;fillColor=#BEC8D2;" parent="1" vertex="1">
          <mxGeometry x="270" y="235.25" width="8" height="8" as="geometry" />
        </mxCell>
        <mxCell id="x8B2lODSbnbWZ4_KUf8C-40" style="edgeStyle=orthogonalEdgeStyle;rounded=0;orthogonalLoop=1;jettySize=auto;html=1;exitX=0;exitY=0.5;exitDx=0;exitDy=0;entryX=0.846;entryY=-0.063;entryDx=0;entryDy=0;endArrow=none;endFill=0;strokeWidth=2;strokeColor=#B3B3B3;entryPerimeter=0;" parent="1" source="x8B2lODSbnbWZ4_KUf8C-1" target="x8B2lODSbnbWZ4_KUf8C-3" edge="1">
          <mxGeometry relative="1" as="geometry">
            <mxPoint x="249.5" y="160" as="sourcePoint" />
            <mxPoint x="280" y="192.5" as="targetPoint" />
            <Array as="points">
              <mxPoint x="280" y="167" />
              <mxPoint x="280" y="227" />
            </Array>
          </mxGeometry>
        </mxCell>
        <mxCell id="x8B2lODSbnbWZ4_KUf8C-41" value="" style="shape=image;verticalLabelPosition=bottom;verticalAlign=top;imageAspect=0;aspect=fixed;image=data:image/svg+xml,PHN2ZyB4bWxuczp4bGluaz0iaHR0cDovL3d3dy53My5vcmcvMTk5OS94bGluayIgeG1sbnM9Imh0dHA6Ly93d3cudzMub3JnLzIwMDAvc3ZnIiB4bWw6c3BhY2U9InByZXNlcnZlIiBzdHlsZT0iZW5hYmxlLWJhY2tncm91bmQ6bmV3IDAgMCAxMjAgMTIwOyIgdmlld0JveD0iMCAwIDEyMCAxMjAiIHk9IjBweCIgeD0iMHB4IiBpZD0iTGF5ZXJfMSIgdmVyc2lvbj0iMS4xIj4mI3hhOzxzdHlsZSB0eXBlPSJ0ZXh0L2NzcyI+JiN4YTsJLnN0MHtmaWxsOiMwMDVBRkY7fSYjeGE7CS5zdDF7ZmlsbDojRkZGRkZGO30mI3hhOzwvc3R5bGU+JiN4YTs8cmVjdCBoZWlnaHQ9IjEyMCIgd2lkdGg9IjEyMCIgY2xhc3M9InN0MCIvPiYjeGE7PGc+JiN4YTsJPGc+JiN4YTsJCTxnPiYjeGE7CQkJPHBhdGggZD0iTTM4LjIsNTAuM2MwLjcsMC41LDEuOSwxLDMuNCwxLjVjMS41LDAuNSwzLjMsMC43LDUuMiwwLjdjMi4xLDAsMy43LTAuNCw0LjctMS4zYzEtMC45LDEuNS0yLDEuNS0zLjUmIzEwOyYjOTsmIzk7JiM5OyYjOTtjMC0wLjUtMC4xLTEtMC4yLTEuNWMtMC4xLTAuNS0wLjQtMS0wLjgtMS40Yy0wLjQtMC40LTAuOS0wLjgtMS41LTEuMmMtMC42LTAuNC0xLjQtMC43LTIuNC0xbC0zLjUtMWMtMi4zLTAuNi00LjEtMS42LTUuNS0yLjkmIzEwOyYjOTsmIzk7JiM5OyYjOTtjLTEuNC0xLjMtMi0zLTItNS4zYzAtMS4yLDAuMi0yLjMsMC42LTMuM3MxLjEtMS45LDEuOS0yLjdjMC44LTAuOCwxLjktMS40LDMuMS0xLjljMS4yLTAuNSwyLjYtMC43LDQuMi0wLjcmIzEwOyYjOTsmIzk7JiM5OyYjOTtjMS45LDAsMy43LDAuMiw1LjMsMC43YzEuNiwwLjUsMi44LDEsMy43LDEuNmwtMS40LDNjLTAuMy0wLjItMC43LTAuNC0xLjItMC42Yy0wLjUtMC4yLTEuMS0wLjQtMS44LTAuNiYjMTA7JiM5OyYjOTsmIzk7JiM5O2MtMC43LTAuMi0xLjQtMC4zLTIuMi0wLjVjLTAuOC0wLjEtMS42LTAuMi0yLjQtMC4yYy0xLjksMC0zLjMsMC40LTQuNCwxLjNjLTEsMC45LTEuNSwyLTEuNSwzLjVjMCwxLjMsMC40LDIuMywxLjIsMyYjMTA7JiM5OyYjOTsmIzk7JiM5O2MwLjgsMC43LDIuMSwxLjQsMy45LDEuOWwzLjUsMWMyLjUsMC43LDQuNCwxLjcsNS42LDNjMS4zLDEuMywxLjksMy4xLDEuOSw1LjRjMCwxLjMtMC4yLDIuNC0wLjcsMy41Yy0wLjUsMS4xLTEuMSwyLTIsMi43JiMxMDsmIzk7JiM5OyYjOTsmIzk7Yy0wLjksMC44LTEuOSwxLjMtMy4yLDEuOGMtMS4zLDAuNC0yLjcsMC42LTQuMywwLjZjLTEuNCwwLTIuNy0wLjEtMy45LTAuM2MtMS4yLTAuMi0yLjItMC41LTMtMC44Yy0wLjktMC4zLTEuNi0wLjYtMi4yLTAuOSYjMTA7JiM5OyYjOTsmIzk7JiM5O2MtMC42LTAuMy0xLTAuNS0xLjItMC43TDM4LjIsNTAuM3oiIGNsYXNzPSJzdDEiLz4mI3hhOwkJCTxwYXRoIGQ9Ik04Mi42LDU1LjRINzhsLTcuMS0xMmgtNC40djEyaC0zLjhWMjUuNmg4LjZjMS44LDAsMy40LDAuMyw0LjYsMC45YzEuMiwwLjYsMi4yLDEuMywzLDIuMiYjMTA7JiM5OyYjOTsmIzk7JiM5O2MwLjcsMC45LDEuMywxLjgsMS42LDIuOWMwLjMsMSwwLjUsMiwwLjUsMi45YzAsMi4xLTAuNSwzLjktMS42LDUuM2MtMS4xLDEuNC0yLjYsMi40LTQuNiwzTDgyLjYsNTUuNHogTTcxLDQwJiMxMDsmIzk7JiM5OyYjOTsmIzk7YzIsMCwzLjYtMC41LDQuNi0xLjVjMS0xLDEuNS0yLjMsMS41LTRjMC0xLjctMC41LTMtMS41LTRjLTEtMS0yLjQtMS41LTQuMy0xLjVoLTQuN3YxMUg3MXoiIGNsYXNzPSJzdDEiLz4mI3hhOwkJPC9nPiYjeGE7CQk8Zz4mI3hhOwkJCTxwYXRoIGQ9Ik00Ny42LDk1Yy0yLjIsMC00LjEtMC40LTUuOC0xLjFjLTEuNi0wLjctMy0xLjgtNC4xLTMuMmMtMS4xLTEuNC0xLjktMy0yLjUtNC45Yy0wLjYtMS45LTAuOC00LTAuOC02LjMmIzEwOyYjOTsmIzk7JiM5OyYjOTtjMC0yLjMsMC4zLTQuNCwwLjgtNi4zYzAuNS0xLjksMS40LTMuNSwyLjUtNC45YzEuMS0xLjQsMi41LTIuNSw0LjEtMy4yYzEuNi0wLjgsMy42LTEuMSw1LjgtMS4xYzIuMiwwLDQuMSwwLjQsNS43LDEuMSYjMTA7JiM5OyYjOTsmIzk7JiM5O2MxLjcsMC44LDMsMS44LDQuMSwzLjJjMS4xLDEuNCwxLjksMywyLjUsNC45YzAuNiwxLjksMC44LDQsMC44LDYuM2MwLDIuMy0wLjMsNC40LTAuOCw2LjNjLTAuNSwxLjktMS40LDMuNS0yLjUsNC45JiMxMDsmIzk7JiM5OyYjOTsmIzk7Yy0xLjEsMS40LTIuNSwyLjQtNC4xLDMuMkM1MS43LDk0LjcsNDkuOCw5NSw0Ny42LDk1eiBNNDcuNiw5MS41YzEuNSwwLDIuOS0wLjMsNC0wLjhjMS4xLTAuNiwyLjEtMS40LDIuOC0yLjQmIzEwOyYjOTsmIzk7JiM5OyYjOTtjMC43LTEsMS4zLTIuMywxLjYtMy44YzAuNC0xLjUsMC41LTMuMSwwLjUtNWMwLTEuOC0wLjItMy41LTAuNi00LjljLTAuNC0xLjUtMC45LTIuNy0xLjctMy44Yy0wLjctMS0xLjctMS44LTIuOC0yLjQmIzEwOyYjOTsmIzk7JiM5OyYjOTtjLTEuMS0wLjYtMi40LTAuOC00LTAuOGMtMS41LDAtMi44LDAuMy00LDAuOGMtMS4xLDAuNi0yLDEuNC0yLjgsMi40Yy0wLjcsMS0xLjMsMi4zLTEuNywzLjhjLTAuNCwxLjUtMC42LDMuMS0wLjYsNC45JiMxMDsmIzk7JiM5OyYjOTsmIzk7YzAsMS44LDAuMiwzLjUsMC41LDVjMC40LDEuNSwwLjksMi43LDEuNywzLjhjMC43LDEsMS43LDEuOCwyLjgsMi40QzQ0LjgsOTEuMiw0Ni4xLDkxLjUsNDcuNiw5MS41eiIgY2xhc3M9InN0MSIvPiYjeGE7CQkJPHBhdGggZD0iTTY2LjgsODkuM2MwLjcsMC41LDEuOSwxLDMuNCwxLjVjMS41LDAuNSwzLjMsMC43LDUuMiwwLjdjMi4xLDAsMy43LTAuNCw0LjctMS4zYzEtMC45LDEuNS0yLDEuNS0zLjUmIzEwOyYjOTsmIzk7JiM5OyYjOTtjMC0wLjUtMC4xLTEtMC4yLTEuNWMtMC4xLTAuNS0wLjQtMS0wLjgtMS40Yy0wLjQtMC40LTAuOS0wLjgtMS41LTEuMmMtMC42LTAuNC0xLjQtMC43LTIuNC0xbC0zLjUtMWMtMi4zLTAuNi00LjEtMS42LTUuNS0yLjkmIzEwOyYjOTsmIzk7JiM5OyYjOTtjLTEuNC0xLjMtMi0zLTItNS4zYzAtMS4yLDAuMi0yLjMsMC42LTMuM3MxLjEtMS45LDEuOS0yLjdjMC44LTAuOCwxLjktMS40LDMuMS0xLjljMS4yLTAuNSwyLjYtMC43LDQuMi0wLjcmIzEwOyYjOTsmIzk7JiM5OyYjOTtjMS45LDAsMy43LDAuMiw1LjMsMC43YzEuNiwwLjUsMi44LDEsMy43LDEuNmwtMS40LDNjLTAuMy0wLjItMC43LTAuNC0xLjItMC42Yy0wLjUtMC4yLTEuMS0wLjQtMS44LTAuNiYjMTA7JiM5OyYjOTsmIzk7JiM5O2MtMC43LTAuMi0xLjQtMC4zLTIuMi0wLjVjLTAuOC0wLjEtMS42LTAuMi0yLjQtMC4yYy0xLjksMC0zLjMsMC40LTQuNCwxLjNjLTEsMC45LTEuNSwyLTEuNSwzLjVjMCwxLjMsMC40LDIuMywxLjIsMyYjMTA7JiM5OyYjOTsmIzk7JiM5O2MwLjgsMC43LDIuMSwxLjQsMy45LDEuOWwzLjUsMWMyLjUsMC43LDQuNCwxLjcsNS42LDNjMS4zLDEuMywxLjksMy4xLDEuOSw1LjRjMCwxLjMtMC4yLDIuNC0wLjcsMy41cy0xLjEsMi0yLDIuNyYjMTA7JiM5OyYjOTsmIzk7JiM5O2MtMC45LDAuOC0xLjksMS4zLTMuMiwxLjhDNzguNCw5NC44LDc3LDk1LDc1LjQsOTVjLTEuNCwwLTIuNy0wLjEtMy45LTAuM2MtMS4yLTAuMi0yLjItMC41LTMtMC44Yy0wLjktMC4zLTEuNi0wLjYtMi4yLTAuOSYjMTA7JiM5OyYjOTsmIzk7JiM5O2MtMC42LTAuMy0xLTAuNS0xLjItMC43TDY2LjgsODkuM3oiIGNsYXNzPSJzdDEiLz4mI3hhOwkJPC9nPiYjeGE7CTwvZz4mI3hhOzwvZz4mI3hhOzwvc3ZnPg==;fontFamily=Courier New;" parent="1" vertex="1">
          <mxGeometry x="238" y="243.25" width="12" height="12" as="geometry" />
        </mxCell>
        <mxCell id="x8B2lODSbnbWZ4_KUf8C-42" value="" style="shape=image;verticalLabelPosition=bottom;verticalAlign=top;imageAspect=0;aspect=fixed;image=data:image/svg+xml,PHN2ZyB4bWxuczp4bGluaz0iaHR0cDovL3d3dy53My5vcmcvMTk5OS94bGluayIgeG1sbnM9Imh0dHA6Ly93d3cudzMub3JnLzIwMDAvc3ZnIiB4bWw6c3BhY2U9InByZXNlcnZlIiBzdHlsZT0iZW5hYmxlLWJhY2tncm91bmQ6bmV3IDAgMCAxMjAgMTIwOyIgdmlld0JveD0iMCAwIDEyMCAxMjAiIHk9IjBweCIgeD0iMHB4IiBpZD0iTGF5ZXJfMSIgdmVyc2lvbj0iMS4xIj4mI3hhOzxzdHlsZSB0eXBlPSJ0ZXh0L2NzcyI+JiN4YTsJLnN0MHtmaWxsOiMwMDVBRkY7fSYjeGE7CS5zdDF7ZmlsbDojRkZGRkZGO30mI3hhOzwvc3R5bGU+JiN4YTs8cmVjdCBoZWlnaHQ9IjEyMCIgd2lkdGg9IjEyMCIgY2xhc3M9InN0MCIvPiYjeGE7PGc+JiN4YTsJPGc+JiN4YTsJCTxwYXRoIGQ9Ik0zOC4yLDUwLjNjMC43LDAuNSwxLjksMSwzLjQsMS41YzEuNSwwLjUsMy4zLDAuNyw1LjIsMC43YzIuMSwwLDMuNy0wLjQsNC43LTEuM2MxLTAuOSwxLjUtMiwxLjUtMy41JiMxMDsmIzk7JiM5OyYjOTtjMC0wLjUtMC4xLTEtMC4yLTEuNWMtMC4xLTAuNS0wLjQtMS0wLjgtMS40Yy0wLjQtMC40LTAuOS0wLjgtMS41LTEuMmMtMC42LTAuNC0xLjQtMC43LTIuNC0xbC0zLjUtMWMtMi4zLTAuNi00LjEtMS42LTUuNS0yLjkmIzEwOyYjOTsmIzk7JiM5O2MtMS40LTEuMy0yLTMtMi01LjNjMC0xLjIsMC4yLTIuMywwLjYtMy4zczEuMS0xLjksMS45LTIuN2MwLjgtMC44LDEuOS0xLjQsMy4xLTEuOWMxLjItMC41LDIuNi0wLjcsNC4yLTAuNyYjMTA7JiM5OyYjOTsmIzk7YzEuOSwwLDMuNywwLjIsNS4zLDAuN2MxLjYsMC41LDIuOCwxLDMuNywxLjZsLTEuNCwzYy0wLjMtMC4yLTAuNy0wLjQtMS4yLTAuNmMtMC41LTAuMi0xLjEtMC40LTEuOC0wLjYmIzEwOyYjOTsmIzk7JiM5O2MtMC43LTAuMi0xLjQtMC4zLTIuMi0wLjVjLTAuOC0wLjEtMS42LTAuMi0yLjQtMC4yYy0xLjksMC0zLjMsMC40LTQuNCwxLjNjLTEsMC45LTEuNSwyLTEuNSwzLjVjMCwxLjMsMC40LDIuMywxLjIsMyYjMTA7JiM5OyYjOTsmIzk7YzAuOCwwLjcsMi4xLDEuNCwzLjksMS45bDMuNSwxYzIuNSwwLjcsNC40LDEuNyw1LjYsM2MxLjMsMS4zLDEuOSwzLjEsMS45LDUuNGMwLDEuMy0wLjIsMi40LTAuNywzLjVjLTAuNSwxLjEtMS4xLDItMiwyLjcmIzEwOyYjOTsmIzk7JiM5O2MtMC45LDAuOC0xLjksMS4zLTMuMiwxLjhjLTEuMywwLjQtMi43LDAuNi00LjMsMC42Yy0xLjQsMC0yLjctMC4xLTMuOS0wLjNjLTEuMi0wLjItMi4yLTAuNS0zLTAuOGMtMC45LTAuMy0xLjYtMC42LTIuMi0wLjkmIzEwOyYjOTsmIzk7JiM5O2MtMC42LTAuMy0xLTAuNS0xLjItMC43TDM4LjIsNTAuM3oiIGNsYXNzPSJzdDEiLz4mI3hhOwkJPHBhdGggZD0iTTgyLjYsNTUuNEg3OGwtNy4xLTEyaC00LjR2MTJoLTMuOFYyNS42aDguNmMxLjgsMCwzLjQsMC4zLDQuNiwwLjljMS4yLDAuNiwyLjIsMS4zLDMsMi4yJiMxMDsmIzk7JiM5OyYjOTtjMC43LDAuOSwxLjMsMS44LDEuNiwyLjljMC4zLDEsMC41LDIsMC41LDIuOWMwLDIuMS0wLjUsMy45LTEuNiw1LjNjLTEuMSwxLjQtMi42LDIuNC00LjYsM0w4Mi42LDU1LjR6IE03MSw0MCYjMTA7JiM5OyYjOTsmIzk7YzIsMCwzLjYtMC41LDQuNi0xLjVjMS0xLDEuNS0yLjMsMS41LTRjMC0xLjctMC41LTMtMS41LTRjLTEtMS0yLjQtMS41LTQuMy0xLjVoLTQuN3YxMUg3MXoiIGNsYXNzPSJzdDEiLz4mI3hhOwk8L2c+JiN4YTsJPGc+JiN4YTsJCTxwYXRoIGQ9Ik0zOS4xLDkzSDI3LjNWNzIuMkgzMHYxOC40aDkuMVY5M3oiIGNsYXNzPSJzdDEiLz4mI3hhOwkJPHBhdGggZD0iTTQzLjYsNzUuMmMtMC41LDAtMS0wLjItMS4zLTAuNWMtMC4zLTAuMy0wLjUtMC44LTAuNS0xLjNjMC0wLjUsMC4yLTAuOSwwLjUtMS4zYzAuMy0wLjMsMC43LTAuNSwxLjMtMC41JiMxMDsmIzk7JiM5OyYjOTtzMSwwLjIsMS4zLDAuNWMwLjMsMC4zLDAuNSwwLjgsMC41LDEuM3MtMC4yLDEtMC41LDEuM0M0NC42LDc1LDQ0LjEsNzUuMiw0My42LDc1LjJ6IE00NC45LDkzaC0yLjZWNzguMmgyLjZWOTN6IiBjbGFzcz0ic3QxIi8+JiN4YTsJCTxwYXRoIGQ9Ik02MS44LDkzaC0yLjZ2LTkuMWMwLTAuOC0wLjEtMS40LTAuMi0xLjljLTAuMS0wLjUtMC40LTAuOS0wLjYtMS4yYy0wLjMtMC4zLTAuNi0wLjUtMS0wLjZzLTAuOC0wLjItMS4yLTAuMiYjMTA7JiM5OyYjOTsmIzk7Yy0wLjgsMC0xLjQsMC4yLTIsMC41Yy0wLjUsMC4zLTEsMC43LTEuMywxLjJjLTAuMywwLjUtMC42LDEuMS0wLjcsMS44Yy0wLjEsMC43LTAuMiwxLjQtMC4yLDIuMVY5M2gtMi42Vjc4LjJoMi40bDAuMSwyJiMxMDsmIzk7JiM5OyYjOTtjMC4xLTAuMiwwLjMtMC41LDAuNi0wLjhjMC4zLTAuMywwLjYtMC42LDEtMC44YzAuNC0wLjIsMC45LTAuNCwxLjQtMC42YzAuNS0wLjIsMS4yLTAuMiwxLjktMC4yYzEuNywwLDMsMC41LDMuOSwxLjUmIzEwOyYjOTsmIzk7JiM5O2MwLjksMSwxLjMsMi4zLDEuMyw0LjFWOTN6IiBjbGFzcz0ic3QxIi8+JiN4YTsJCTxwYXRoIGQ9Ik03OC41LDkzaC0yLjRMNzYsOTFjLTAuMSwwLjItMC4zLDAuNS0wLjYsMC44Yy0wLjMsMC4zLTAuNiwwLjUtMSwwLjhDNzQsOTIuOCw3My42LDkzLDczLDkzLjImIzEwOyYjOTsmIzk7JiM5O2MtMC41LDAuMi0xLjIsMC4yLTEuOCwwLjJjLTEuNywwLTMtMC41LTMuOS0xLjVjLTAuOS0xLTEuMy0yLjMtMS4zLTQuMXYtOS43aDIuNnY5LjNjMCwwLjcsMC4xLDEuMywwLjIsMS44JiMxMDsmIzk7JiM5OyYjOTtjMC4xLDAuNSwwLjQsMC44LDAuNiwxLjFjMC4zLDAuMywwLjYsMC41LDEsMC42YzAuNCwwLjEsMC44LDAuMiwxLjIsMC4yYzAuOCwwLDEuNC0wLjIsMi0wLjVjMC41LTAuMywxLTAuNywxLjMtMS4yJiMxMDsmIzk7JiM5OyYjOTtjMC4zLTAuNSwwLjYtMS4xLDAuNy0xLjhjMC4xLTAuNywwLjItMS40LDAuMi0yLjF2LTcuM2gyLjZWOTN6IiBjbGFzcz0ic3QxIi8+JiN4YTsJCTxwYXRoIGQ9Ik05NC44LDkzaC0zLjFsLTMuOS01LjZMODMuOCw5M0g4MWw1LjMtNy43bC01LTcuMmgzLjFsMy40LDQuOWwzLjQtNC45aDIuOGwtNC44LDYuOUw5NC44LDkzeiIgY2xhc3M9InN0MSIvPiYjeGE7CTwvZz4mI3hhOzwvZz4mI3hhOzwvc3ZnPg==;fontFamily=Courier New;" parent="1" vertex="1">
          <mxGeometry x="420" y="80.5" width="13" height="13" as="geometry" />
        </mxCell>
        <mxCell id="x8B2lODSbnbWZ4_KUf8C-43" value="" style="shape=image;verticalLabelPosition=bottom;verticalAlign=top;imageAspect=0;aspect=fixed;image=data:image/svg+xml,PHN2ZyB4bWxuczp4bGluaz0iaHR0cDovL3d3dy53My5vcmcvMTk5OS94bGluayIgeG1sbnM9Imh0dHA6Ly93d3cudzMub3JnLzIwMDAvc3ZnIiB4bWw6c3BhY2U9InByZXNlcnZlIiBzdHlsZT0iZW5hYmxlLWJhY2tncm91bmQ6bmV3IDAgMCAxMjAgMTIwOyIgdmlld0JveD0iMCAwIDEyMCAxMjAiIHk9IjBweCIgeD0iMHB4IiBpZD0iTGF5ZXJfMSIgdmVyc2lvbj0iMS4xIj4mI3hhOzxzdHlsZSB0eXBlPSJ0ZXh0L2NzcyI+JiN4YTsJLnN0MHtmaWxsOiMwMDVBRkY7fSYjeGE7CS5zdDF7ZmlsbDojRkZGRkZGO30mI3hhOzwvc3R5bGU+JiN4YTs8cmVjdCBoZWlnaHQ9IjEyMCIgd2lkdGg9IjEyMCIgY2xhc3M9InN0MCIvPiYjeGE7PGc+JiN4YTsJPGc+JiN4YTsJCTxwYXRoIGQ9Ik0zOC4yLDUwLjNjMC43LDAuNSwxLjksMSwzLjQsMS41YzEuNSwwLjUsMy4zLDAuNyw1LjIsMC43YzIuMSwwLDMuNy0wLjQsNC43LTEuM2MxLTAuOSwxLjUtMiwxLjUtMy41JiMxMDsmIzk7JiM5OyYjOTtjMC0wLjUtMC4xLTEtMC4yLTEuNWMtMC4xLTAuNS0wLjQtMS0wLjgtMS40Yy0wLjQtMC40LTAuOS0wLjgtMS41LTEuMmMtMC42LTAuNC0xLjQtMC43LTIuNC0xbC0zLjUtMWMtMi4zLTAuNi00LjEtMS42LTUuNS0yLjkmIzEwOyYjOTsmIzk7JiM5O2MtMS40LTEuMy0yLTMtMi01LjNjMC0xLjIsMC4yLTIuMywwLjYtMy4zczEuMS0xLjksMS45LTIuN2MwLjgtMC44LDEuOS0xLjQsMy4xLTEuOWMxLjItMC41LDIuNi0wLjcsNC4yLTAuNyYjMTA7JiM5OyYjOTsmIzk7YzEuOSwwLDMuNywwLjIsNS4zLDAuN2MxLjYsMC41LDIuOCwxLDMuNywxLjZsLTEuNCwzYy0wLjMtMC4yLTAuNy0wLjQtMS4yLTAuNmMtMC41LTAuMi0xLjEtMC40LTEuOC0wLjYmIzEwOyYjOTsmIzk7JiM5O2MtMC43LTAuMi0xLjQtMC4zLTIuMi0wLjVjLTAuOC0wLjEtMS42LTAuMi0yLjQtMC4yYy0xLjksMC0zLjMsMC40LTQuNCwxLjNjLTEsMC45LTEuNSwyLTEuNSwzLjVjMCwxLjMsMC40LDIuMywxLjIsMyYjMTA7JiM5OyYjOTsmIzk7YzAuOCwwLjcsMi4xLDEuNCwzLjksMS45bDMuNSwxYzIuNSwwLjcsNC40LDEuNyw1LjYsM2MxLjMsMS4zLDEuOSwzLjEsMS45LDUuNGMwLDEuMy0wLjIsMi40LTAuNywzLjVjLTAuNSwxLjEtMS4xLDItMiwyLjcmIzEwOyYjOTsmIzk7JiM5O2MtMC45LDAuOC0xLjksMS4zLTMuMiwxLjhjLTEuMywwLjQtMi43LDAuNi00LjMsMC42Yy0xLjQsMC0yLjctMC4xLTMuOS0wLjNjLTEuMi0wLjItMi4yLTAuNS0zLTAuOGMtMC45LTAuMy0xLjYtMC42LTIuMi0wLjkmIzEwOyYjOTsmIzk7JiM5O2MtMC42LTAuMy0xLTAuNS0xLjItMC43TDM4LjIsNTAuM3oiIGNsYXNzPSJzdDEiLz4mI3hhOwkJPHBhdGggZD0iTTgyLjYsNTUuNEg3OGwtNy4xLTEyaC00LjR2MTJoLTMuOFYyNS42aDguNmMxLjgsMCwzLjQsMC4zLDQuNiwwLjljMS4yLDAuNiwyLjIsMS4zLDMsMi4yJiMxMDsmIzk7JiM5OyYjOTtjMC43LDAuOSwxLjMsMS44LDEuNiwyLjljMC4zLDEsMC41LDIsMC41LDIuOWMwLDIuMS0wLjUsMy45LTEuNiw1LjNjLTEuMSwxLjQtMi42LDIuNC00LjYsM0w4Mi42LDU1LjR6IE03MSw0MCYjMTA7JiM5OyYjOTsmIzk7YzIsMCwzLjYtMC41LDQuNi0xLjVjMS0xLDEuNS0yLjMsMS41LTRjMC0xLjctMC41LTMtMS41LTRjLTEtMS0yLjQtMS41LTQuMy0xLjVoLTQuN3YxMUg3MXoiIGNsYXNzPSJzdDEiLz4mI3hhOwk8L2c+JiN4YTsJPGc+JiN4YTsJCTxwYXRoIGQ9Ik0zOS4xLDkzSDI3LjNWNzIuMkgzMHYxOC40aDkuMVY5M3oiIGNsYXNzPSJzdDEiLz4mI3hhOwkJPHBhdGggZD0iTTQzLjYsNzUuMmMtMC41LDAtMS0wLjItMS4zLTAuNWMtMC4zLTAuMy0wLjUtMC44LTAuNS0xLjNjMC0wLjUsMC4yLTAuOSwwLjUtMS4zYzAuMy0wLjMsMC43LTAuNSwxLjMtMC41JiMxMDsmIzk7JiM5OyYjOTtzMSwwLjIsMS4zLDAuNWMwLjMsMC4zLDAuNSwwLjgsMC41LDEuM3MtMC4yLDEtMC41LDEuM0M0NC42LDc1LDQ0LjEsNzUuMiw0My42LDc1LjJ6IE00NC45LDkzaC0yLjZWNzguMmgyLjZWOTN6IiBjbGFzcz0ic3QxIi8+JiN4YTsJCTxwYXRoIGQ9Ik02MS44LDkzaC0yLjZ2LTkuMWMwLTAuOC0wLjEtMS40LTAuMi0xLjljLTAuMS0wLjUtMC40LTAuOS0wLjYtMS4yYy0wLjMtMC4zLTAuNi0wLjUtMS0wLjZzLTAuOC0wLjItMS4yLTAuMiYjMTA7JiM5OyYjOTsmIzk7Yy0wLjgsMC0xLjQsMC4yLTIsMC41Yy0wLjUsMC4zLTEsMC43LTEuMywxLjJjLTAuMywwLjUtMC42LDEuMS0wLjcsMS44Yy0wLjEsMC43LTAuMiwxLjQtMC4yLDIuMVY5M2gtMi42Vjc4LjJoMi40bDAuMSwyJiMxMDsmIzk7JiM5OyYjOTtjMC4xLTAuMiwwLjMtMC41LDAuNi0wLjhjMC4zLTAuMywwLjYtMC42LDEtMC44YzAuNC0wLjIsMC45LTAuNCwxLjQtMC42YzAuNS0wLjIsMS4yLTAuMiwxLjktMC4yYzEuNywwLDMsMC41LDMuOSwxLjUmIzEwOyYjOTsmIzk7JiM5O2MwLjksMSwxLjMsMi4zLDEuMyw0LjFWOTN6IiBjbGFzcz0ic3QxIi8+JiN4YTsJCTxwYXRoIGQ9Ik03OC41LDkzaC0yLjRMNzYsOTFjLTAuMSwwLjItMC4zLDAuNS0wLjYsMC44Yy0wLjMsMC4zLTAuNiwwLjUtMSwwLjhDNzQsOTIuOCw3My42LDkzLDczLDkzLjImIzEwOyYjOTsmIzk7JiM5O2MtMC41LDAuMi0xLjIsMC4yLTEuOCwwLjJjLTEuNywwLTMtMC41LTMuOS0xLjVjLTAuOS0xLTEuMy0yLjMtMS4zLTQuMXYtOS43aDIuNnY5LjNjMCwwLjcsMC4xLDEuMywwLjIsMS44JiMxMDsmIzk7JiM5OyYjOTtjMC4xLDAuNSwwLjQsMC44LDAuNiwxLjFjMC4zLDAuMywwLjYsMC41LDEsMC42YzAuNCwwLjEsMC44LDAuMiwxLjIsMC4yYzAuOCwwLDEuNC0wLjIsMi0wLjVjMC41LTAuMywxLTAuNywxLjMtMS4yJiMxMDsmIzk7JiM5OyYjOTtjMC4zLTAuNSwwLjYtMS4xLDAuNy0xLjhjMC4xLTAuNywwLjItMS40LDAuMi0yLjF2LTcuM2gyLjZWOTN6IiBjbGFzcz0ic3QxIi8+JiN4YTsJCTxwYXRoIGQ9Ik05NC44LDkzaC0zLjFsLTMuOS01LjZMODMuOCw5M0g4MWw1LjMtNy43bC01LTcuMmgzLjFsMy40LDQuOWwzLjQtNC45aDIuOGwtNC44LDYuOUw5NC44LDkzeiIgY2xhc3M9InN0MSIvPiYjeGE7CTwvZz4mI3hhOzwvZz4mI3hhOzwvc3ZnPg==;fontFamily=Courier New;" parent="1" vertex="1">
          <mxGeometry x="420" y="240.5" width="13" height="13" as="geometry" />
        </mxCell>
        <mxCell id="x8B2lODSbnbWZ4_KUf8C-44" value="" style="shape=image;verticalLabelPosition=bottom;verticalAlign=top;imageAspect=0;aspect=fixed;image=data:image/svg+xml,PHN2ZyB4bWxuczp4bGluaz0iaHR0cDovL3d3dy53My5vcmcvMTk5OS94bGluayIgeG1sbnM9Imh0dHA6Ly93d3cudzMub3JnLzIwMDAvc3ZnIiB4bWw6c3BhY2U9InByZXNlcnZlIiBzdHlsZT0iZW5hYmxlLWJhY2tncm91bmQ6bmV3IDAgMCAxMjAgMTIwOyIgdmlld0JveD0iMCAwIDEyMCAxMjAiIHk9IjBweCIgeD0iMHB4IiBpZD0iTGF5ZXJfMSIgdmVyc2lvbj0iMS4xIj4mI3hhOzxzdHlsZSB0eXBlPSJ0ZXh0L2NzcyI+JiN4YTsJLnN0MHtmaWxsOiMwMDVBRkY7fSYjeGE7CS5zdDF7ZmlsbDojRkZGRkZGO30mI3hhOzwvc3R5bGU+JiN4YTs8cmVjdCBoZWlnaHQ9IjEyMCIgd2lkdGg9IjEyMCIgY2xhc3M9InN0MCIvPiYjeGE7PGc+JiN4YTsJPGc+JiN4YTsJCTxwYXRoIGQ9Ik0zOC4yLDUwLjNjMC43LDAuNSwxLjksMSwzLjQsMS41YzEuNSwwLjUsMy4zLDAuNyw1LjIsMC43YzIuMSwwLDMuNy0wLjQsNC43LTEuM2MxLTAuOSwxLjUtMiwxLjUtMy41JiMxMDsmIzk7JiM5OyYjOTtjMC0wLjUtMC4xLTEtMC4yLTEuNWMtMC4xLTAuNS0wLjQtMS0wLjgtMS40Yy0wLjQtMC40LTAuOS0wLjgtMS41LTEuMmMtMC42LTAuNC0xLjQtMC43LTIuNC0xbC0zLjUtMWMtMi4zLTAuNi00LjEtMS42LTUuNS0yLjkmIzEwOyYjOTsmIzk7JiM5O2MtMS40LTEuMy0yLTMtMi01LjNjMC0xLjIsMC4yLTIuMywwLjYtMy4zczEuMS0xLjksMS45LTIuN2MwLjgtMC44LDEuOS0xLjQsMy4xLTEuOWMxLjItMC41LDIuNi0wLjcsNC4yLTAuNyYjMTA7JiM5OyYjOTsmIzk7YzEuOSwwLDMuNywwLjIsNS4zLDAuN2MxLjYsMC41LDIuOCwxLDMuNywxLjZsLTEuNCwzYy0wLjMtMC4yLTAuNy0wLjQtMS4yLTAuNmMtMC41LTAuMi0xLjEtMC40LTEuOC0wLjYmIzEwOyYjOTsmIzk7JiM5O2MtMC43LTAuMi0xLjQtMC4zLTIuMi0wLjVjLTAuOC0wLjEtMS42LTAuMi0yLjQtMC4yYy0xLjksMC0zLjMsMC40LTQuNCwxLjNjLTEsMC45LTEuNSwyLTEuNSwzLjVjMCwxLjMsMC40LDIuMywxLjIsMyYjMTA7JiM5OyYjOTsmIzk7YzAuOCwwLjcsMi4xLDEuNCwzLjksMS45bDMuNSwxYzIuNSwwLjcsNC40LDEuNyw1LjYsM2MxLjMsMS4zLDEuOSwzLjEsMS45LDUuNGMwLDEuMy0wLjIsMi40LTAuNywzLjVjLTAuNSwxLjEtMS4xLDItMiwyLjcmIzEwOyYjOTsmIzk7JiM5O2MtMC45LDAuOC0xLjksMS4zLTMuMiwxLjhjLTEuMywwLjQtMi43LDAuNi00LjMsMC42Yy0xLjQsMC0yLjctMC4xLTMuOS0wLjNjLTEuMi0wLjItMi4yLTAuNS0zLTAuOGMtMC45LTAuMy0xLjYtMC42LTIuMi0wLjkmIzEwOyYjOTsmIzk7JiM5O2MtMC42LTAuMy0xLTAuNS0xLjItMC43TDM4LjIsNTAuM3oiIGNsYXNzPSJzdDEiLz4mI3hhOwkJPHBhdGggZD0iTTgyLjYsNTUuNEg3OGwtNy4xLTEyaC00LjR2MTJoLTMuOFYyNS42aDguNmMxLjgsMCwzLjQsMC4zLDQuNiwwLjljMS4yLDAuNiwyLjIsMS4zLDMsMi4yJiMxMDsmIzk7JiM5OyYjOTtjMC43LDAuOSwxLjMsMS44LDEuNiwyLjljMC4zLDEsMC41LDIsMC41LDIuOWMwLDIuMS0wLjUsMy45LTEuNiw1LjNjLTEuMSwxLjQtMi42LDIuNC00LjYsM0w4Mi42LDU1LjR6IE03MSw0MCYjMTA7JiM5OyYjOTsmIzk7YzIsMCwzLjYtMC41LDQuNi0xLjVjMS0xLDEuNS0yLjMsMS41LTRjMC0xLjctMC41LTMtMS41LTRjLTEtMS0yLjQtMS41LTQuMy0xLjVoLTQuN3YxMUg3MXoiIGNsYXNzPSJzdDEiLz4mI3hhOwk8L2c+JiN4YTsJPGc+JiN4YTsJCTxwYXRoIGQ9Ik0zOS4xLDkzSDI3LjNWNzIuMkgzMHYxOC40aDkuMVY5M3oiIGNsYXNzPSJzdDEiLz4mI3hhOwkJPHBhdGggZD0iTTQzLjYsNzUuMmMtMC41LDAtMS0wLjItMS4zLTAuNWMtMC4zLTAuMy0wLjUtMC44LTAuNS0xLjNjMC0wLjUsMC4yLTAuOSwwLjUtMS4zYzAuMy0wLjMsMC43LTAuNSwxLjMtMC41JiMxMDsmIzk7JiM5OyYjOTtzMSwwLjIsMS4zLDAuNWMwLjMsMC4zLDAuNSwwLjgsMC41LDEuM3MtMC4yLDEtMC41LDEuM0M0NC42LDc1LDQ0LjEsNzUuMiw0My42LDc1LjJ6IE00NC45LDkzaC0yLjZWNzguMmgyLjZWOTN6IiBjbGFzcz0ic3QxIi8+JiN4YTsJCTxwYXRoIGQ9Ik02MS44LDkzaC0yLjZ2LTkuMWMwLTAuOC0wLjEtMS40LTAuMi0xLjljLTAuMS0wLjUtMC40LTAuOS0wLjYtMS4yYy0wLjMtMC4zLTAuNi0wLjUtMS0wLjZzLTAuOC0wLjItMS4yLTAuMiYjMTA7JiM5OyYjOTsmIzk7Yy0wLjgsMC0xLjQsMC4yLTIsMC41Yy0wLjUsMC4zLTEsMC43LTEuMywxLjJjLTAuMywwLjUtMC42LDEuMS0wLjcsMS44Yy0wLjEsMC43LTAuMiwxLjQtMC4yLDIuMVY5M2gtMi42Vjc4LjJoMi40bDAuMSwyJiMxMDsmIzk7JiM5OyYjOTtjMC4xLTAuMiwwLjMtMC41LDAuNi0wLjhjMC4zLTAuMywwLjYtMC42LDEtMC44YzAuNC0wLjIsMC45LTAuNCwxLjQtMC42YzAuNS0wLjIsMS4yLTAuMiwxLjktMC4yYzEuNywwLDMsMC41LDMuOSwxLjUmIzEwOyYjOTsmIzk7JiM5O2MwLjksMSwxLjMsMi4zLDEuMyw0LjFWOTN6IiBjbGFzcz0ic3QxIi8+JiN4YTsJCTxwYXRoIGQ9Ik03OC41LDkzaC0yLjRMNzYsOTFjLTAuMSwwLjItMC4zLDAuNS0wLjYsMC44Yy0wLjMsMC4zLTAuNiwwLjUtMSwwLjhDNzQsOTIuOCw3My42LDkzLDczLDkzLjImIzEwOyYjOTsmIzk7JiM5O2MtMC41LDAuMi0xLjIsMC4yLTEuOCwwLjJjLTEuNywwLTMtMC41LTMuOS0xLjVjLTAuOS0xLTEuMy0yLjMtMS4zLTQuMXYtOS43aDIuNnY5LjNjMCwwLjcsMC4xLDEuMywwLjIsMS44JiMxMDsmIzk7JiM5OyYjOTtjMC4xLDAuNSwwLjQsMC44LDAuNiwxLjFjMC4zLDAuMywwLjYsMC41LDEsMC42YzAuNCwwLjEsMC44LDAuMiwxLjIsMC4yYzAuOCwwLDEuNC0wLjIsMi0wLjVjMC41LTAuMywxLTAuNywxLjMtMS4yJiMxMDsmIzk7JiM5OyYjOTtjMC4zLTAuNSwwLjYtMS4xLDAuNy0xLjhjMC4xLTAuNywwLjItMS40LDAuMi0yLjF2LTcuM2gyLjZWOTN6IiBjbGFzcz0ic3QxIi8+JiN4YTsJCTxwYXRoIGQ9Ik05NC44LDkzaC0zLjFsLTMuOS01LjZMODMuOCw5M0g4MWw1LjMtNy43bC01LTcuMmgzLjFsMy40LDQuOWwzLjQtNC45aDIuOGwtNC44LDYuOUw5NC44LDkzeiIgY2xhc3M9InN0MSIvPiYjeGE7CTwvZz4mI3hhOzwvZz4mI3hhOzwvc3ZnPg==;fontFamily=Courier New;" parent="1" vertex="1">
          <mxGeometry x="520" y="80.5" width="13" height="13" as="geometry" />
        </mxCell>
        <mxCell id="x8B2lODSbnbWZ4_KUf8C-45" value="" style="shape=image;verticalLabelPosition=bottom;verticalAlign=top;imageAspect=0;aspect=fixed;image=data:image/svg+xml,PHN2ZyB4bWxuczp4bGluaz0iaHR0cDovL3d3dy53My5vcmcvMTk5OS94bGluayIgeG1sbnM9Imh0dHA6Ly93d3cudzMub3JnLzIwMDAvc3ZnIiB4bWw6c3BhY2U9InByZXNlcnZlIiBzdHlsZT0iZW5hYmxlLWJhY2tncm91bmQ6bmV3IDAgMCAxMjAgMTIwOyIgdmlld0JveD0iMCAwIDEyMCAxMjAiIHk9IjBweCIgeD0iMHB4IiBpZD0iTGF5ZXJfMSIgdmVyc2lvbj0iMS4xIj4mI3hhOzxzdHlsZSB0eXBlPSJ0ZXh0L2NzcyI+JiN4YTsJLnN0MHtmaWxsOiMwMDVBRkY7fSYjeGE7CS5zdDF7ZmlsbDojRkZGRkZGO30mI3hhOzwvc3R5bGU+JiN4YTs8cmVjdCBoZWlnaHQ9IjEyMCIgd2lkdGg9IjEyMCIgY2xhc3M9InN0MCIvPiYjeGE7PGc+JiN4YTsJPGc+JiN4YTsJCTxwYXRoIGQ9Ik0zOC4yLDUwLjNjMC43LDAuNSwxLjksMSwzLjQsMS41YzEuNSwwLjUsMy4zLDAuNyw1LjIsMC43YzIuMSwwLDMuNy0wLjQsNC43LTEuM2MxLTAuOSwxLjUtMiwxLjUtMy41JiMxMDsmIzk7JiM5OyYjOTtjMC0wLjUtMC4xLTEtMC4yLTEuNWMtMC4xLTAuNS0wLjQtMS0wLjgtMS40Yy0wLjQtMC40LTAuOS0wLjgtMS41LTEuMmMtMC42LTAuNC0xLjQtMC43LTIuNC0xbC0zLjUtMWMtMi4zLTAuNi00LjEtMS42LTUuNS0yLjkmIzEwOyYjOTsmIzk7JiM5O2MtMS40LTEuMy0yLTMtMi01LjNjMC0xLjIsMC4yLTIuMywwLjYtMy4zczEuMS0xLjksMS45LTIuN2MwLjgtMC44LDEuOS0xLjQsMy4xLTEuOWMxLjItMC41LDIuNi0wLjcsNC4yLTAuNyYjMTA7JiM5OyYjOTsmIzk7YzEuOSwwLDMuNywwLjIsNS4zLDAuN2MxLjYsMC41LDIuOCwxLDMuNywxLjZsLTEuNCwzYy0wLjMtMC4yLTAuNy0wLjQtMS4yLTAuNmMtMC41LTAuMi0xLjEtMC40LTEuOC0wLjYmIzEwOyYjOTsmIzk7JiM5O2MtMC43LTAuMi0xLjQtMC4zLTIuMi0wLjVjLTAuOC0wLjEtMS42LTAuMi0yLjQtMC4yYy0xLjksMC0zLjMsMC40LTQuNCwxLjNjLTEsMC45LTEuNSwyLTEuNSwzLjVjMCwxLjMsMC40LDIuMywxLjIsMyYjMTA7JiM5OyYjOTsmIzk7YzAuOCwwLjcsMi4xLDEuNCwzLjksMS45bDMuNSwxYzIuNSwwLjcsNC40LDEuNyw1LjYsM2MxLjMsMS4zLDEuOSwzLjEsMS45LDUuNGMwLDEuMy0wLjIsMi40LTAuNywzLjVjLTAuNSwxLjEtMS4xLDItMiwyLjcmIzEwOyYjOTsmIzk7JiM5O2MtMC45LDAuOC0xLjksMS4zLTMuMiwxLjhjLTEuMywwLjQtMi43LDAuNi00LjMsMC42Yy0xLjQsMC0yLjctMC4xLTMuOS0wLjNjLTEuMi0wLjItMi4yLTAuNS0zLTAuOGMtMC45LTAuMy0xLjYtMC42LTIuMi0wLjkmIzEwOyYjOTsmIzk7JiM5O2MtMC42LTAuMy0xLTAuNS0xLjItMC43TDM4LjIsNTAuM3oiIGNsYXNzPSJzdDEiLz4mI3hhOwkJPHBhdGggZD0iTTgyLjYsNTUuNEg3OGwtNy4xLTEyaC00LjR2MTJoLTMuOFYyNS42aDguNmMxLjgsMCwzLjQsMC4zLDQuNiwwLjljMS4yLDAuNiwyLjIsMS4zLDMsMi4yJiMxMDsmIzk7JiM5OyYjOTtjMC43LDAuOSwxLjMsMS44LDEuNiwyLjljMC4zLDEsMC41LDIsMC41LDIuOWMwLDIuMS0wLjUsMy45LTEuNiw1LjNjLTEuMSwxLjQtMi42LDIuNC00LjYsM0w4Mi42LDU1LjR6IE03MSw0MCYjMTA7JiM5OyYjOTsmIzk7YzIsMCwzLjYtMC41LDQuNi0xLjVjMS0xLDEuNS0yLjMsMS41LTRjMC0xLjctMC41LTMtMS41LTRjLTEtMS0yLjQtMS41LTQuMy0xLjVoLTQuN3YxMUg3MXoiIGNsYXNzPSJzdDEiLz4mI3hhOwk8L2c+JiN4YTsJPGc+JiN4YTsJCTxwYXRoIGQ9Ik0zOS4xLDkzSDI3LjNWNzIuMkgzMHYxOC40aDkuMVY5M3oiIGNsYXNzPSJzdDEiLz4mI3hhOwkJPHBhdGggZD0iTTQzLjYsNzUuMmMtMC41LDAtMS0wLjItMS4zLTAuNWMtMC4zLTAuMy0wLjUtMC44LTAuNS0xLjNjMC0wLjUsMC4yLTAuOSwwLjUtMS4zYzAuMy0wLjMsMC43LTAuNSwxLjMtMC41JiMxMDsmIzk7JiM5OyYjOTtzMSwwLjIsMS4zLDAuNWMwLjMsMC4zLDAuNSwwLjgsMC41LDEuM3MtMC4yLDEtMC41LDEuM0M0NC42LDc1LDQ0LjEsNzUuMiw0My42LDc1LjJ6IE00NC45LDkzaC0yLjZWNzguMmgyLjZWOTN6IiBjbGFzcz0ic3QxIi8+JiN4YTsJCTxwYXRoIGQ9Ik02MS44LDkzaC0yLjZ2LTkuMWMwLTAuOC0wLjEtMS40LTAuMi0xLjljLTAuMS0wLjUtMC40LTAuOS0wLjYtMS4yYy0wLjMtMC4zLTAuNi0wLjUtMS0wLjZzLTAuOC0wLjItMS4yLTAuMiYjMTA7JiM5OyYjOTsmIzk7Yy0wLjgsMC0xLjQsMC4yLTIsMC41Yy0wLjUsMC4zLTEsMC43LTEuMywxLjJjLTAuMywwLjUtMC42LDEuMS0wLjcsMS44Yy0wLjEsMC43LTAuMiwxLjQtMC4yLDIuMVY5M2gtMi42Vjc4LjJoMi40bDAuMSwyJiMxMDsmIzk7JiM5OyYjOTtjMC4xLTAuMiwwLjMtMC41LDAuNi0wLjhjMC4zLTAuMywwLjYtMC42LDEtMC44YzAuNC0wLjIsMC45LTAuNCwxLjQtMC42YzAuNS0wLjIsMS4yLTAuMiwxLjktMC4yYzEuNywwLDMsMC41LDMuOSwxLjUmIzEwOyYjOTsmIzk7JiM5O2MwLjksMSwxLjMsMi4zLDEuMyw0LjFWOTN6IiBjbGFzcz0ic3QxIi8+JiN4YTsJCTxwYXRoIGQ9Ik03OC41LDkzaC0yLjRMNzYsOTFjLTAuMSwwLjItMC4zLDAuNS0wLjYsMC44Yy0wLjMsMC4zLTAuNiwwLjUtMSwwLjhDNzQsOTIuOCw3My42LDkzLDczLDkzLjImIzEwOyYjOTsmIzk7JiM5O2MtMC41LDAuMi0xLjIsMC4yLTEuOCwwLjJjLTEuNywwLTMtMC41LTMuOS0xLjVjLTAuOS0xLTEuMy0yLjMtMS4zLTQuMXYtOS43aDIuNnY5LjNjMCwwLjcsMC4xLDEuMywwLjIsMS44JiMxMDsmIzk7JiM5OyYjOTtjMC4xLDAuNSwwLjQsMC44LDAuNiwxLjFjMC4zLDAuMywwLjYsMC41LDEsMC42YzAuNCwwLjEsMC44LDAuMiwxLjIsMC4yYzAuOCwwLDEuNC0wLjIsMi0wLjVjMC41LTAuMywxLTAuNywxLjMtMS4yJiMxMDsmIzk7JiM5OyYjOTtjMC4zLTAuNSwwLjYtMS4xLDAuNy0xLjhjMC4xLTAuNywwLjItMS40LDAuMi0yLjF2LTcuM2gyLjZWOTN6IiBjbGFzcz0ic3QxIi8+JiN4YTsJCTxwYXRoIGQ9Ik05NC44LDkzaC0zLjFsLTMuOS01LjZMODMuOCw5M0g4MWw1LjMtNy43bC01LTcuMmgzLjFsMy40LDQuOWwzLjQtNC45aDIuOGwtNC44LDYuOUw5NC44LDkzeiIgY2xhc3M9InN0MSIvPiYjeGE7CTwvZz4mI3hhOzwvZz4mI3hhOzwvc3ZnPg==;fontFamily=Courier New;" parent="1" vertex="1">
          <mxGeometry x="520" y="240.5" width="13" height="13" as="geometry" />
        </mxCell>
        <mxCell id="x8B2lODSbnbWZ4_KUf8C-46" value="32" style="ellipse;whiteSpace=wrap;html=1;aspect=fixed;fontColor=#FFFFFF;fontSize=6;strokeColor=#0066CC;fontFamily=Courier New;fillColor=#66B2FF;rotation=0;" parent="1" vertex="1">
          <mxGeometry x="412" y="251" width="8" height="8" as="geometry" />
        </mxCell>
        <mxCell id="x8B2lODSbnbWZ4_KUf8C-47" value="" style="endArrow=classic;startArrow=classic;html=1;rounded=0;exitX=0.968;exitY=0.136;exitDx=0;exitDy=0;exitPerimeter=0;entryX=0.851;entryY=0.934;entryDx=0;entryDy=0;entryPerimeter=0;" parent="1" source="x8B2lODSbnbWZ4_KUf8C-49" edge="1" target="x8B2lODSbnbWZ4_KUf8C-27">
          <mxGeometry width="50" height="50" relative="1" as="geometry">
            <mxPoint x="522" y="315.5" as="sourcePoint" />
            <mxPoint x="682" y="115.5" as="targetPoint" />
          </mxGeometry>
        </mxCell>
        <mxCell id="x8B2lODSbnbWZ4_KUf8C-48" value="" style="endArrow=classic;startArrow=classic;html=1;rounded=0;exitX=0.983;exitY=0.812;exitDx=0;exitDy=0;exitPerimeter=0;entryX=1;entryY=0;entryDx=0;entryDy=0;" parent="1" source="x8B2lODSbnbWZ4_KUf8C-49" target="x8B2lODSbnbWZ4_KUf8C-21" edge="1">
          <mxGeometry width="50" height="50" relative="1" as="geometry">
            <mxPoint x="358" y="177.5" as="sourcePoint" />
            <mxPoint x="692" y="125.5" as="targetPoint" />
          </mxGeometry>
        </mxCell>
        <mxCell id="x8B2lODSbnbWZ4_KUf8C-49" value="&lt;div&gt;Probe client&lt;/div&gt;" style="ellipse;whiteSpace=wrap;html=1;fillColor=#66CC00;" parent="1" vertex="1">
          <mxGeometry x="277" y="158.5" width="77" height="22" as="geometry" />
        </mxCell>
        <mxCell id="x8B2lODSbnbWZ4_KUf8C-50" value="Anycast 192.168.31.1&lt;div&gt;Probe responder&lt;/div&gt;" style="ellipse;whiteSpace=wrap;html=1;fillColor=#3399FF;" parent="1" vertex="1">
          <mxGeometry x="729" y="243.25" width="130" height="50" as="geometry" />
        </mxCell>
        <mxCell id="x8B2lODSbnbWZ4_KUf8C-51" value="Anycast 192.168.31.1&lt;div&gt;Probe responder&lt;/div&gt;" style="ellipse;whiteSpace=wrap;html=1;fillColor=#3399FF;" parent="1" vertex="1">
          <mxGeometry x="729" y="70" width="130" height="50" as="geometry" />
        </mxCell>
        <mxCell id="-OyiW3cvwBVk7mZ4qOBk-1" value=".1" style="text;strokeColor=none;align=center;fillColor=none;html=1;verticalAlign=middle;whiteSpace=wrap;rounded=0;" vertex="1" parent="1">
          <mxGeometry x="578" y="93.5" width="30" height="30" as="geometry" />
        </mxCell>
        <mxCell id="-OyiW3cvwBVk7mZ4qOBk-4" value=".13" style="text;strokeColor=none;align=center;fillColor=none;html=1;verticalAlign=middle;whiteSpace=wrap;rounded=0;" vertex="1" parent="1">
          <mxGeometry x="657" y="95" width="30" height="30" as="geometry" />
        </mxCell>
        <mxCell id="-OyiW3cvwBVk7mZ4qOBk-6" value=".1" style="text;strokeColor=none;align=center;fillColor=none;html=1;verticalAlign=middle;whiteSpace=wrap;rounded=0;" vertex="1" parent="1">
          <mxGeometry x="570" y="243.25" width="30" height="30" as="geometry" />
        </mxCell>
        <mxCell id="-OyiW3cvwBVk7mZ4qOBk-7" value=".11" style="text;strokeColor=none;align=center;fillColor=none;html=1;verticalAlign=middle;whiteSpace=wrap;rounded=0;" vertex="1" parent="1">
          <mxGeometry x="653" y="244.25" width="30" height="30" as="geometry" />
        </mxCell>
        <mxCell id="-OyiW3cvwBVk7mZ4qOBk-10" value="&lt;span style=&quot;orphans: 2; text-align: center; text-indent: 0px; widows: 2; background-color: rgb(236, 236, 236); text-decoration-thickness: initial; text-decoration-style: initial; text-decoration-color: initial; float: none; display: inline !important; color: rgb(0, 0, 0);&quot;&gt;&lt;div style=&quot;&quot;&gt;&lt;font face=&quot;Courier New&quot;&gt;&lt;span style=&quot;text-wrap-mode: nowrap;&quot;&gt;ipvrf201 irb0&lt;/span&gt;&lt;/font&gt;&lt;/div&gt;&lt;div style=&quot;&quot;&gt;&lt;font face=&quot;Courier New&quot;&gt;&lt;span style=&quot;text-wrap-mode: nowrap;&quot;&gt;macvrf201&lt;/span&gt;&lt;/font&gt;&lt;/div&gt;&lt;div style=&quot;&quot;&gt;&lt;font face=&quot;Courier New&quot;&gt;&lt;span style=&quot;text-wrap-mode: nowrap;&quot;&gt;192.168.30.0/24&lt;/span&gt;&lt;/font&gt;&lt;/div&gt;&lt;/span&gt;" style="text;whiteSpace=wrap;html=1;fillColor=#E1D5E7;" vertex="1" parent="1">
          <mxGeometry x="541" y="148" width="112" height="56" as="geometry" />
        </mxCell>
      </root>
    </mxGraphModel>
  </diagram>
  <diagram id="Network Topology" name="Network Topology">
    <mxGraphModel dx="1334" dy="801" grid="0" gridSize="10" guides="1" tooltips="1" connect="1" arrows="1" fold="1" page="1" pageScale="1" pageWidth="3650" pageHeight="575" background="none" math="0" shadow="0">
      <root>
        <mxCell id="0" />
        <mxCell id="1" parent="0" />
        <object label="pe2" id="clab-srexperts-pe2">
          <mxCell style="shape=image;imageAlign=center;imageVerticalAlign=middle;labelPosition=left;align=right;verticalLabelPosition=top;spacingLeft=0;verticalAlign=bottom;spacingTop=0;spacing=0;editableCssRules=\.st[0-2]$;labelBackgroundColor=none;aspect=fixed;imageAspect=0;image=data:image/svg+xml,PHN2ZyB4bWxuczp4bGluaz0iaHR0cDovL3d3dy53My5vcmcvMTk5OS94bGluayIgeG1sbnM9Imh0dHA6Ly93d3cudzMub3JnLzIwMDAvc3ZnIiB4bWw6c3BhY2U9InByZXNlcnZlIiBzdHlsZT0iZW5hYmxlLWJhY2tncm91bmQ6bmV3IDAgMCAxMjAgMTIwOyIgdmlld0JveD0iMCAwIDEyMCAxMjAiIHk9IjBweCIgeD0iMHB4IiBpZD0iTGF5ZXJfMSIgdmVyc2lvbj0iMS4xIj4mI3hhOzxzdHlsZSB0eXBlPSJ0ZXh0L2NzcyI+JiN4YTsJLnN0MHtmaWxsOiMwMDExMzU7fSYjeGE7CS5zdDF7ZmlsbDpub25lO3N0cm9rZTojRkZGRkZGO3N0cm9rZS13aWR0aDo0O3N0cm9rZS1saW5lY2FwOnJvdW5kO3N0cm9rZS1saW5lam9pbjpyb3VuZDtzdHJva2UtbWl0ZXJsaW1pdDoxMDt9JiN4YTsJLnN0MntmaWxsOiNGRkZGRkY7fSYjeGE7CS5zdDN7ZmlsbDpub25lO3N0cm9rZTojRkZGRkZGO3N0cm9rZS13aWR0aDo0O3N0cm9rZS1taXRlcmxpbWl0OjEwO30mI3hhOwkuc3Q0e2ZpbGw6bm9uZTtzdHJva2U6I0ZGRkZGRjtzdHJva2Utd2lkdGg6NDtzdHJva2UtbGluZWNhcDpyb3VuZDtzdHJva2UtbGluZWpvaW46cm91bmQ7fSYjeGE7CS5zdDV7ZmlsbDojRkZGRkZGO3N0cm9rZTojRkZGRkZGO3N0cm9rZS13aWR0aDo0O3N0cm9rZS1saW5lY2FwOnJvdW5kO3N0cm9rZS1saW5lam9pbjpyb3VuZDtzdHJva2UtbWl0ZXJsaW1pdDoxMDt9JiN4YTsJLnN0NntmaWxsOm5vbmU7c3Ryb2tlOiNGRkZGRkY7c3Ryb2tlLXdpZHRoOjQuMjMzMztzdHJva2UtbGluZWNhcDpyb3VuZDtzdHJva2UtbGluZWpvaW46cm91bmQ7c3Ryb2tlLW1pdGVybGltaXQ6MTA7fSYjeGE7CS5zdDd7ZmlsbDpub25lO3N0cm9rZTojRkZGRkZGO3N0cm9rZS13aWR0aDo0O3N0cm9rZS1saW5lY2FwOnJvdW5kO3N0cm9rZS1taXRlcmxpbWl0OjEwO30mI3hhOwkuc3Q4e2ZpbGw6I0ZGRkZGRjtzdHJva2U6I0ZGRkZGRjtzdHJva2Utd2lkdGg6NDtzdHJva2UtbWl0ZXJsaW1pdDoxMDt9JiN4YTsJLnN0OXtmaWxsOiNGRkZGRkY7c3Ryb2tlOiNGRkZGRkY7c3Ryb2tlLXdpZHRoOjQ7fSYjeGE7CS5zdDEwe2ZpbGw6bm9uZTtzdHJva2U6I0ZGRkZGRjtzdHJva2Utd2lkdGg6NDt9JiN4YTsJLnN0MTF7ZmlsbDojMjYyNjI2O3N0cm9rZTojRkZGRkZGO3N0cm9rZS13aWR0aDo0LjIzMzM7fSYjeGE7CS5zdDEye2ZpbGwtcnVsZTpldmVub2RkO2NsaXAtcnVsZTpldmVub2RkO2ZpbGw6bm9uZTtzdHJva2U6I0ZGRkZGRjtzdHJva2Utd2lkdGg6NDtzdHJva2UtbWl0ZXJsaW1pdDoxMDt9JiN4YTsJLnN0MTN7ZmlsbC1ydWxlOmV2ZW5vZGQ7Y2xpcC1ydWxlOmV2ZW5vZGQ7ZmlsbDojRkZGRkZGO3N0cm9rZTojRkZGRkZGO3N0cm9rZS13aWR0aDo0O30mI3hhOwkuc3QxNHtmaWxsOm5vbmU7c3Ryb2tlOiNGRkZGRkY7c3Ryb2tlLXdpZHRoOjQuMjMzMztzdHJva2UtbGluZWNhcDpyb3VuZDtzdHJva2UtbGluZWpvaW46cm91bmQ7fSYjeGE7CS5zdDE1e2ZpbGw6bm9uZTtzdHJva2U6I0ZGRkZGRjtzdHJva2Utd2lkdGg6NDtzdHJva2UtbGluZWNhcDpyb3VuZDt9JiN4YTsJLnN0MTZ7ZmlsbDojRkZGRkZGO3N0cm9rZTojRkZGRkZGO3N0cm9rZS1taXRlcmxpbWl0OjEwO30mI3hhOwkuc3QxN3tmaWxsOiMyNjI2MjY7c3Ryb2tlOiNGRkZGRkY7c3Ryb2tlLXdpZHRoOjQ7c3Ryb2tlLW1pdGVybGltaXQ6MTA7fSYjeGE7CS5zdDE4e2ZpbGw6I0ZGRkZGRjtzdHJva2U6I0ZGRkZGRjtzdHJva2Utd2lkdGg6NDtzdHJva2UtbGluZWNhcDpyb3VuZDtzdHJva2UtbGluZWpvaW46cm91bmQ7fSYjeGE7PC9zdHlsZT4mI3hhOzxyZWN0IGhlaWdodD0iMTIwIiB3aWR0aD0iMTIwIiBjbGFzcz0ic3QwIi8+JiN4YTs8Zz4mI3hhOwk8cGF0aCBkPSJNMTAwLDkxLjFIMjBIMTAweiBNODkuMSwzMi41YzAtMC41LDAtMS0wLjItMS40Yy0wLjItMC41LTAuNC0wLjktMC44LTEuMmMtMC4zLTAuMy0wLjgtMC42LTEuMi0wLjgmIzEwOyYjOTsmIzk7Yy0wLjUtMC4yLTAuOS0wLjItMS40LTAuMkgzNC42Yy0wLjUsMC0xLDAtMS40LDAuMmMtMC41LDAuMi0wLjksMC40LTEuMiwwLjhjLTAuMywwLjMtMC42LDAuOC0wLjgsMS4yYy0wLjIsMC41LTAuMiwwLjktMC4yLDEuNCYjMTA7JiM5OyYjOTtWNzZoNTguMlYzMi41eiIgY2xhc3M9InN0NCIvPiYjeGE7PC9nPiYjeGE7PC9zdmc+;" parent="1" vertex="1">
            <mxGeometry x="77" y="316" width="75" height="75" as="geometry" />
          </mxCell>
        </object>
        <object label="client02" id="clab-srexperts-client02">
          <mxCell style="shape=image;imageAlign=center;imageVerticalAlign=middle;labelPosition=left;align=right;verticalLabelPosition=top;spacingLeft=0;verticalAlign=bottom;spacingTop=0;spacing=0;editableCssRules=\.st[0-2]$;labelBackgroundColor=none;aspect=fixed;imageAspect=0;image=data:image/svg+xml,PHN2ZyB4bWxuczp4bGluaz0iaHR0cDovL3d3dy53My5vcmcvMTk5OS94bGluayIgeG1sbnM9Imh0dHA6Ly93d3cudzMub3JnLzIwMDAvc3ZnIiB4bWw6c3BhY2U9InByZXNlcnZlIiBzdHlsZT0iZW5hYmxlLWJhY2tncm91bmQ6bmV3IDAgMCAxMjAgMTIwOyIgdmlld0JveD0iMCAwIDEyMCAxMjAiIHk9IjBweCIgeD0iMHB4IiBpZD0iTGF5ZXJfMSIgdmVyc2lvbj0iMS4xIj4mI3hhOzxzdHlsZSB0eXBlPSJ0ZXh0L2NzcyI+JiN4YTsJLnN0MHtmaWxsOiMwMDExMzU7fSYjeGE7CS5zdDF7ZmlsbDpub25lO3N0cm9rZTojRkZGRkZGO3N0cm9rZS13aWR0aDo0O3N0cm9rZS1saW5lY2FwOnJvdW5kO3N0cm9rZS1saW5lam9pbjpyb3VuZDtzdHJva2UtbWl0ZXJsaW1pdDoxMDt9JiN4YTsJLnN0MntmaWxsOiNGRkZGRkY7fSYjeGE7CS5zdDN7ZmlsbDpub25lO3N0cm9rZTojRkZGRkZGO3N0cm9rZS13aWR0aDo0O3N0cm9rZS1taXRlcmxpbWl0OjEwO30mI3hhOwkuc3Q0e2ZpbGw6bm9uZTtzdHJva2U6I0ZGRkZGRjtzdHJva2Utd2lkdGg6NDtzdHJva2UtbGluZWNhcDpyb3VuZDtzdHJva2UtbGluZWpvaW46cm91bmQ7fSYjeGE7CS5zdDV7ZmlsbDojRkZGRkZGO3N0cm9rZTojRkZGRkZGO3N0cm9rZS13aWR0aDo0O3N0cm9rZS1saW5lY2FwOnJvdW5kO3N0cm9rZS1saW5lam9pbjpyb3VuZDtzdHJva2UtbWl0ZXJsaW1pdDoxMDt9JiN4YTsJLnN0NntmaWxsOm5vbmU7c3Ryb2tlOiNGRkZGRkY7c3Ryb2tlLXdpZHRoOjQuMjMzMztzdHJva2UtbGluZWNhcDpyb3VuZDtzdHJva2UtbGluZWpvaW46cm91bmQ7c3Ryb2tlLW1pdGVybGltaXQ6MTA7fSYjeGE7CS5zdDd7ZmlsbDpub25lO3N0cm9rZTojRkZGRkZGO3N0cm9rZS13aWR0aDo0O3N0cm9rZS1saW5lY2FwOnJvdW5kO3N0cm9rZS1taXRlcmxpbWl0OjEwO30mI3hhOwkuc3Q4e2ZpbGw6I0ZGRkZGRjtzdHJva2U6I0ZGRkZGRjtzdHJva2Utd2lkdGg6NDtzdHJva2UtbWl0ZXJsaW1pdDoxMDt9JiN4YTsJLnN0OXtmaWxsOiNGRkZGRkY7c3Ryb2tlOiNGRkZGRkY7c3Ryb2tlLXdpZHRoOjQ7fSYjeGE7CS5zdDEwe2ZpbGw6bm9uZTtzdHJva2U6I0ZGRkZGRjtzdHJva2Utd2lkdGg6NDt9JiN4YTsJLnN0MTF7ZmlsbDojMjYyNjI2O3N0cm9rZTojRkZGRkZGO3N0cm9rZS13aWR0aDo0LjIzMzM7fSYjeGE7CS5zdDEye2ZpbGwtcnVsZTpldmVub2RkO2NsaXAtcnVsZTpldmVub2RkO2ZpbGw6bm9uZTtzdHJva2U6I0ZGRkZGRjtzdHJva2Utd2lkdGg6NDtzdHJva2UtbWl0ZXJsaW1pdDoxMDt9JiN4YTsJLnN0MTN7ZmlsbC1ydWxlOmV2ZW5vZGQ7Y2xpcC1ydWxlOmV2ZW5vZGQ7ZmlsbDojRkZGRkZGO3N0cm9rZTojRkZGRkZGO3N0cm9rZS13aWR0aDo0O30mI3hhOwkuc3QxNHtmaWxsOm5vbmU7c3Ryb2tlOiNGRkZGRkY7c3Ryb2tlLXdpZHRoOjQuMjMzMztzdHJva2UtbGluZWNhcDpyb3VuZDtzdHJva2UtbGluZWpvaW46cm91bmQ7fSYjeGE7CS5zdDE1e2ZpbGw6bm9uZTtzdHJva2U6I0ZGRkZGRjtzdHJva2Utd2lkdGg6NDtzdHJva2UtbGluZWNhcDpyb3VuZDt9JiN4YTsJLnN0MTZ7ZmlsbDojRkZGRkZGO3N0cm9rZTojRkZGRkZGO3N0cm9rZS1taXRlcmxpbWl0OjEwO30mI3hhOwkuc3QxN3tmaWxsOiMyNjI2MjY7c3Ryb2tlOiNGRkZGRkY7c3Ryb2tlLXdpZHRoOjQ7c3Ryb2tlLW1pdGVybGltaXQ6MTA7fSYjeGE7CS5zdDE4e2ZpbGw6I0ZGRkZGRjtzdHJva2U6I0ZGRkZGRjtzdHJva2Utd2lkdGg6NDtzdHJva2UtbGluZWNhcDpyb3VuZDtzdHJva2UtbGluZWpvaW46cm91bmQ7fSYjeGE7PC9zdHlsZT4mI3hhOzxyZWN0IGhlaWdodD0iMTIwIiB3aWR0aD0iMTIwIiBjbGFzcz0ic3QwIi8+JiN4YTs8Zz4mI3hhOwk8cGF0aCBkPSJNMTAwLDkxLjFIMjBIMTAweiBNODkuMSwzMi41YzAtMC41LDAtMS0wLjItMS40Yy0wLjItMC41LTAuNC0wLjktMC44LTEuMmMtMC4zLTAuMy0wLjgtMC42LTEuMi0wLjgmIzEwOyYjOTsmIzk7Yy0wLjUtMC4yLTAuOS0wLjItMS40LTAuMkgzNC42Yy0wLjUsMC0xLDAtMS40LDAuMmMtMC41LDAuMi0wLjksMC40LTEuMiwwLjhjLTAuMywwLjMtMC42LDAuOC0wLjgsMS4yYy0wLjIsMC41LTAuMiwwLjktMC4yLDEuNCYjMTA7JiM5OyYjOTtWNzZoNTguMlYzMi41eiIgY2xhc3M9InN0NCIvPiYjeGE7PC9nPiYjeGE7PC9zdmc+;" parent="1" vertex="1">
            <mxGeometry x="77" y="163" width="75" height="75" as="geometry" />
          </mxCell>
        </object>
        <object label="spine11" id="clab-srexperts-spine11">
          <mxCell style="shape=image;imageAlign=center;imageVerticalAlign=middle;labelPosition=left;align=right;verticalLabelPosition=top;spacingLeft=0;verticalAlign=bottom;spacingTop=0;spacing=0;editableCssRules=\.st[0-2]$;labelBackgroundColor=none;aspect=fixed;imageAspect=0;image=data:image/svg+xml,PHN2ZyB4bWxuczp4bGluaz0iaHR0cDovL3d3dy53My5vcmcvMTk5OS94bGluayIgeG1sbnM9Imh0dHA6Ly93d3cudzMub3JnLzIwMDAvc3ZnIiB4bWw6c3BhY2U9InByZXNlcnZlIiBzdHlsZT0iZW5hYmxlLWJhY2tncm91bmQ6bmV3IDAgMCAxMjAgMTIwOyIgdmlld0JveD0iMCAwIDEyMCAxMjAiIHk9IjBweCIgeD0iMHB4IiBpZD0iTGF5ZXJfMSIgdmVyc2lvbj0iMS4xIj4mI3hhOzxzdHlsZSB0eXBlPSJ0ZXh0L2NzcyI+JiN4YTsJLnN0MHtmaWxsOiMwMDExMzU7fSYjeGE7CS5zdDF7ZmlsbDpub25lO3N0cm9rZTojRkZGRkZGO3N0cm9rZS13aWR0aDo0O3N0cm9rZS1saW5lY2FwOnJvdW5kO3N0cm9rZS1saW5lam9pbjpyb3VuZDtzdHJva2UtbWl0ZXJsaW1pdDoxMDt9JiN4YTsJLnN0MntmaWxsOiNGRkZGRkY7fSYjeGE7CS5zdDN7ZmlsbDpub25lO3N0cm9rZTojRkZGRkZGO3N0cm9rZS13aWR0aDo0O3N0cm9rZS1taXRlcmxpbWl0OjEwO30mI3hhOwkuc3Q0e2ZpbGw6bm9uZTtzdHJva2U6I0ZGRkZGRjtzdHJva2Utd2lkdGg6NDtzdHJva2UtbGluZWNhcDpyb3VuZDtzdHJva2UtbGluZWpvaW46cm91bmQ7fSYjeGE7CS5zdDV7ZmlsbDojRkZGRkZGO3N0cm9rZTojRkZGRkZGO3N0cm9rZS13aWR0aDo0O3N0cm9rZS1saW5lY2FwOnJvdW5kO3N0cm9rZS1saW5lam9pbjpyb3VuZDtzdHJva2UtbWl0ZXJsaW1pdDoxMDt9JiN4YTsJLnN0NntmaWxsOm5vbmU7c3Ryb2tlOiNGRkZGRkY7c3Ryb2tlLXdpZHRoOjQuMjMzMztzdHJva2UtbGluZWNhcDpyb3VuZDtzdHJva2UtbGluZWpvaW46cm91bmQ7c3Ryb2tlLW1pdGVybGltaXQ6MTA7fSYjeGE7CS5zdDd7ZmlsbDpub25lO3N0cm9rZTojRkZGRkZGO3N0cm9rZS13aWR0aDo0O3N0cm9rZS1saW5lY2FwOnJvdW5kO3N0cm9rZS1taXRlcmxpbWl0OjEwO30mI3hhOwkuc3Q4e2ZpbGw6I0ZGRkZGRjtzdHJva2U6I0ZGRkZGRjtzdHJva2Utd2lkdGg6NDtzdHJva2UtbWl0ZXJsaW1pdDoxMDt9JiN4YTsJLnN0OXtmaWxsOiNGRkZGRkY7c3Ryb2tlOiNGRkZGRkY7c3Ryb2tlLXdpZHRoOjQ7fSYjeGE7CS5zdDEwe2ZpbGw6bm9uZTtzdHJva2U6I0ZGRkZGRjtzdHJva2Utd2lkdGg6NDt9JiN4YTsJLnN0MTF7ZmlsbDojMjYyNjI2O3N0cm9rZTojRkZGRkZGO3N0cm9rZS13aWR0aDo0LjIzMzM7fSYjeGE7CS5zdDEye2ZpbGwtcnVsZTpldmVub2RkO2NsaXAtcnVsZTpldmVub2RkO2ZpbGw6bm9uZTtzdHJva2U6I0ZGRkZGRjtzdHJva2Utd2lkdGg6NDtzdHJva2UtbWl0ZXJsaW1pdDoxMDt9JiN4YTsJLnN0MTN7ZmlsbC1ydWxlOmV2ZW5vZGQ7Y2xpcC1ydWxlOmV2ZW5vZGQ7ZmlsbDojRkZGRkZGO3N0cm9rZTojRkZGRkZGO3N0cm9rZS13aWR0aDo0O30mI3hhOwkuc3QxNHtmaWxsOm5vbmU7c3Ryb2tlOiNGRkZGRkY7c3Ryb2tlLXdpZHRoOjQuMjMzMztzdHJva2UtbGluZWNhcDpyb3VuZDtzdHJva2UtbGluZWpvaW46cm91bmQ7fSYjeGE7CS5zdDE1e2ZpbGw6bm9uZTtzdHJva2U6I0ZGRkZGRjtzdHJva2Utd2lkdGg6NDtzdHJva2UtbGluZWNhcDpyb3VuZDt9JiN4YTsJLnN0MTZ7ZmlsbDojRkZGRkZGO3N0cm9rZTojRkZGRkZGO3N0cm9rZS1taXRlcmxpbWl0OjEwO30mI3hhOwkuc3QxN3tmaWxsOiMyNjI2MjY7c3Ryb2tlOiNGRkZGRkY7c3Ryb2tlLXdpZHRoOjQ7c3Ryb2tlLW1pdGVybGltaXQ6MTA7fSYjeGE7CS5zdDE4e2ZpbGw6I0ZGRkZGRjtzdHJva2U6I0ZGRkZGRjtzdHJva2Utd2lkdGg6NDtzdHJva2UtbGluZWNhcDpyb3VuZDtzdHJva2UtbGluZWpvaW46cm91bmQ7fSYjeGE7PC9zdHlsZT4mI3hhOzxyZWN0IGhlaWdodD0iMTIwIiB3aWR0aD0iMTIwIiBjbGFzcz0ic3QwIi8+JiN4YTs8Zz4mI3hhOwk8cGF0aCBkPSJNMTAwLDkxLjFIMjBIMTAweiBNODkuMSwzMi41YzAtMC41LDAtMS0wLjItMS40Yy0wLjItMC41LTAuNC0wLjktMC44LTEuMmMtMC4zLTAuMy0wLjgtMC42LTEuMi0wLjgmIzEwOyYjOTsmIzk7Yy0wLjUtMC4yLTAuOS0wLjItMS40LTAuMkgzNC42Yy0wLjUsMC0xLDAtMS40LDAuMmMtMC41LDAuMi0wLjksMC40LTEuMiwwLjhjLTAuMywwLjMtMC42LDAuOC0wLjgsMS4yYy0wLjIsMC41LTAuMiwwLjktMC4yLDEuNCYjMTA7JiM5OyYjOTtWNzZoNTguMlYzMi41eiIgY2xhc3M9InN0NCIvPiYjeGE7PC9nPiYjeGE7PC9zdmc+;" parent="1" vertex="1">
            <mxGeometry x="304" y="339" width="75" height="75" as="geometry" />
          </mxCell>
        </object>
        <object label="spine12" id="clab-srexperts-spine12">
          <mxCell style="shape=image;imageAlign=center;imageVerticalAlign=middle;labelPosition=left;align=right;verticalLabelPosition=top;spacingLeft=0;verticalAlign=bottom;spacingTop=0;spacing=0;editableCssRules=\.st[0-2]$;labelBackgroundColor=none;aspect=fixed;imageAspect=0;image=data:image/svg+xml,PHN2ZyB4bWxuczp4bGluaz0iaHR0cDovL3d3dy53My5vcmcvMTk5OS94bGluayIgeG1sbnM9Imh0dHA6Ly93d3cudzMub3JnLzIwMDAvc3ZnIiB4bWw6c3BhY2U9InByZXNlcnZlIiBzdHlsZT0iZW5hYmxlLWJhY2tncm91bmQ6bmV3IDAgMCAxMjAgMTIwOyIgdmlld0JveD0iMCAwIDEyMCAxMjAiIHk9IjBweCIgeD0iMHB4IiBpZD0iTGF5ZXJfMSIgdmVyc2lvbj0iMS4xIj4mI3hhOzxzdHlsZSB0eXBlPSJ0ZXh0L2NzcyI+JiN4YTsJLnN0MHtmaWxsOiMwMDExMzU7fSYjeGE7CS5zdDF7ZmlsbDpub25lO3N0cm9rZTojRkZGRkZGO3N0cm9rZS13aWR0aDo0O3N0cm9rZS1saW5lY2FwOnJvdW5kO3N0cm9rZS1saW5lam9pbjpyb3VuZDtzdHJva2UtbWl0ZXJsaW1pdDoxMDt9JiN4YTsJLnN0MntmaWxsOiNGRkZGRkY7fSYjeGE7CS5zdDN7ZmlsbDpub25lO3N0cm9rZTojRkZGRkZGO3N0cm9rZS13aWR0aDo0O3N0cm9rZS1taXRlcmxpbWl0OjEwO30mI3hhOwkuc3Q0e2ZpbGw6bm9uZTtzdHJva2U6I0ZGRkZGRjtzdHJva2Utd2lkdGg6NDtzdHJva2UtbGluZWNhcDpyb3VuZDtzdHJva2UtbGluZWpvaW46cm91bmQ7fSYjeGE7CS5zdDV7ZmlsbDojRkZGRkZGO3N0cm9rZTojRkZGRkZGO3N0cm9rZS13aWR0aDo0O3N0cm9rZS1saW5lY2FwOnJvdW5kO3N0cm9rZS1saW5lam9pbjpyb3VuZDtzdHJva2UtbWl0ZXJsaW1pdDoxMDt9JiN4YTsJLnN0NntmaWxsOm5vbmU7c3Ryb2tlOiNGRkZGRkY7c3Ryb2tlLXdpZHRoOjQuMjMzMztzdHJva2UtbGluZWNhcDpyb3VuZDtzdHJva2UtbGluZWpvaW46cm91bmQ7c3Ryb2tlLW1pdGVybGltaXQ6MTA7fSYjeGE7CS5zdDd7ZmlsbDpub25lO3N0cm9rZTojRkZGRkZGO3N0cm9rZS13aWR0aDo0O3N0cm9rZS1saW5lY2FwOnJvdW5kO3N0cm9rZS1taXRlcmxpbWl0OjEwO30mI3hhOwkuc3Q4e2ZpbGw6I0ZGRkZGRjtzdHJva2U6I0ZGRkZGRjtzdHJva2Utd2lkdGg6NDtzdHJva2UtbWl0ZXJsaW1pdDoxMDt9JiN4YTsJLnN0OXtmaWxsOiNGRkZGRkY7c3Ryb2tlOiNGRkZGRkY7c3Ryb2tlLXdpZHRoOjQ7fSYjeGE7CS5zdDEwe2ZpbGw6bm9uZTtzdHJva2U6I0ZGRkZGRjtzdHJva2Utd2lkdGg6NDt9JiN4YTsJLnN0MTF7ZmlsbDojMjYyNjI2O3N0cm9rZTojRkZGRkZGO3N0cm9rZS13aWR0aDo0LjIzMzM7fSYjeGE7CS5zdDEye2ZpbGwtcnVsZTpldmVub2RkO2NsaXAtcnVsZTpldmVub2RkO2ZpbGw6bm9uZTtzdHJva2U6I0ZGRkZGRjtzdHJva2Utd2lkdGg6NDtzdHJva2UtbWl0ZXJsaW1pdDoxMDt9JiN4YTsJLnN0MTN7ZmlsbC1ydWxlOmV2ZW5vZGQ7Y2xpcC1ydWxlOmV2ZW5vZGQ7ZmlsbDojRkZGRkZGO3N0cm9rZTojRkZGRkZGO3N0cm9rZS13aWR0aDo0O30mI3hhOwkuc3QxNHtmaWxsOm5vbmU7c3Ryb2tlOiNGRkZGRkY7c3Ryb2tlLXdpZHRoOjQuMjMzMztzdHJva2UtbGluZWNhcDpyb3VuZDtzdHJva2UtbGluZWpvaW46cm91bmQ7fSYjeGE7CS5zdDE1e2ZpbGw6bm9uZTtzdHJva2U6I0ZGRkZGRjtzdHJva2Utd2lkdGg6NDtzdHJva2UtbGluZWNhcDpyb3VuZDt9JiN4YTsJLnN0MTZ7ZmlsbDojRkZGRkZGO3N0cm9rZTojRkZGRkZGO3N0cm9rZS1taXRlcmxpbWl0OjEwO30mI3hhOwkuc3QxN3tmaWxsOiMyNjI2MjY7c3Ryb2tlOiNGRkZGRkY7c3Ryb2tlLXdpZHRoOjQ7c3Ryb2tlLW1pdGVybGltaXQ6MTA7fSYjeGE7CS5zdDE4e2ZpbGw6I0ZGRkZGRjtzdHJva2U6I0ZGRkZGRjtzdHJva2Utd2lkdGg6NDtzdHJva2UtbGluZWNhcDpyb3VuZDtzdHJva2UtbGluZWpvaW46cm91bmQ7fSYjeGE7PC9zdHlsZT4mI3hhOzxyZWN0IGhlaWdodD0iMTIwIiB3aWR0aD0iMTIwIiBjbGFzcz0ic3QwIiB4PSIwIi8+JiN4YTs8Zz4mI3hhOwk8Zz4mI3hhOwkJPHBhdGggZD0iTTQ5LjcsNzBMMjAuMSw5OS44IiBjbGFzcz0ic3QxIi8+JiN4YTsJPC9nPiYjeGE7CTxnPiYjeGE7CQk8cGF0aCBkPSJNOTcuNyw5Ny40TDY4LDY3LjkiIGNsYXNzPSJzdDEiLz4mI3hhOwk8L2c+JiN4YTsJPGc+JiN4YTsJCTxwYXRoIGQ9Ik03MC40LDQ5LjdMOTkuOSwyMCIgY2xhc3M9InN0MSIvPiYjeGE7CTwvZz4mI3hhOwk8cGF0aCBkPSJNMjIuMywyMi4zTDUyLDUxLjkiIGNsYXNzPSJzdDEiLz4mI3hhOwk8cGF0aCBkPSJNMjAuMSwzMy45bDAtMTAuN2MwLTEuOCwxLjMtMywzLjEtMy4xbDEwLjgsMCIgY2xhc3M9InN0MSIvPiYjeGE7CTxwYXRoIGQ9Ik0zOC40LDY4bDEwLjcsMGMxLjgsMCwzLDEuMywzLjEsMy4xbDAsMTAuOCIgY2xhc3M9InN0MSIvPiYjeGE7CTxwYXRoIGQ9Ik05OS44LDg2LjJsMCwxMC43YzAsMS44LTEuMywzLTMuMSwzLjFsLTEwLjgsMCIgY2xhc3M9InN0MSIvPiYjeGE7CTxwYXRoIGQ9Ik04MS44LDUxLjlsLTEwLjcsMGMtMS44LDAtMy0xLjMtMy4xLTMuMUw2OCwzOCIgY2xhc3M9InN0MSIvPiYjeGE7PC9nPiYjeGE7PC9zdmc+;" parent="1" vertex="1">
            <mxGeometry x="297" y="99" width="75" height="75" as="geometry" />
          </mxCell>
        </object>
        <object label="leaf11" id="clab-srexperts-leaf11">
          <mxCell style="shape=image;imageAlign=center;imageVerticalAlign=middle;labelPosition=left;align=right;verticalLabelPosition=top;spacingLeft=0;verticalAlign=bottom;spacingTop=0;spacing=0;editableCssRules=\.st[0-2]$;labelBackgroundColor=none;aspect=fixed;imageAspect=0;image=data:image/svg+xml,PHN2ZyB4bWxuczp4bGluaz0iaHR0cDovL3d3dy53My5vcmcvMTk5OS94bGluayIgeG1sbnM9Imh0dHA6Ly93d3cudzMub3JnLzIwMDAvc3ZnIiB4bWw6c3BhY2U9InByZXNlcnZlIiBzdHlsZT0iZW5hYmxlLWJhY2tncm91bmQ6bmV3IDAgMCAxMjAgMTIwOyIgdmlld0JveD0iMCAwIDEyMCAxMjAiIHk9IjBweCIgeD0iMHB4IiBpZD0iTGF5ZXJfMSIgdmVyc2lvbj0iMS4xIj4mI3hhOzxzdHlsZSB0eXBlPSJ0ZXh0L2NzcyI+JiN4YTsJLnN0MHtmaWxsOiMwMDExMzU7fSYjeGE7CS5zdDF7ZmlsbDpub25lO3N0cm9rZTojRkZGRkZGO3N0cm9rZS13aWR0aDo0O3N0cm9rZS1saW5lY2FwOnJvdW5kO3N0cm9rZS1saW5lam9pbjpyb3VuZDtzdHJva2UtbWl0ZXJsaW1pdDoxMDt9JiN4YTsJLnN0MntmaWxsOiNGRkZGRkY7fSYjeGE7CS5zdDN7ZmlsbDpub25lO3N0cm9rZTojRkZGRkZGO3N0cm9rZS13aWR0aDo0O3N0cm9rZS1taXRlcmxpbWl0OjEwO30mI3hhOwkuc3Q0e2ZpbGw6bm9uZTtzdHJva2U6I0ZGRkZGRjtzdHJva2Utd2lkdGg6NDtzdHJva2UtbGluZWNhcDpyb3VuZDtzdHJva2UtbGluZWpvaW46cm91bmQ7fSYjeGE7CS5zdDV7ZmlsbDojRkZGRkZGO3N0cm9rZTojRkZGRkZGO3N0cm9rZS13aWR0aDo0O3N0cm9rZS1saW5lY2FwOnJvdW5kO3N0cm9rZS1saW5lam9pbjpyb3VuZDtzdHJva2UtbWl0ZXJsaW1pdDoxMDt9JiN4YTsJLnN0NntmaWxsOm5vbmU7c3Ryb2tlOiNGRkZGRkY7c3Ryb2tlLXdpZHRoOjQuMjMzMztzdHJva2UtbGluZWNhcDpyb3VuZDtzdHJva2UtbGluZWpvaW46cm91bmQ7c3Ryb2tlLW1pdGVybGltaXQ6MTA7fSYjeGE7CS5zdDd7ZmlsbDpub25lO3N0cm9rZTojRkZGRkZGO3N0cm9rZS13aWR0aDo0O3N0cm9rZS1saW5lY2FwOnJvdW5kO3N0cm9rZS1taXRlcmxpbWl0OjEwO30mI3hhOwkuc3Q4e2ZpbGw6I0ZGRkZGRjtzdHJva2U6I0ZGRkZGRjtzdHJva2Utd2lkdGg6NDtzdHJva2UtbWl0ZXJsaW1pdDoxMDt9JiN4YTsJLnN0OXtmaWxsOiNGRkZGRkY7c3Ryb2tlOiNGRkZGRkY7c3Ryb2tlLXdpZHRoOjQ7fSYjeGE7CS5zdDEwe2ZpbGw6bm9uZTtzdHJva2U6I0ZGRkZGRjtzdHJva2Utd2lkdGg6NDt9JiN4YTsJLnN0MTF7ZmlsbDojMjYyNjI2O3N0cm9rZTojRkZGRkZGO3N0cm9rZS13aWR0aDo0LjIzMzM7fSYjeGE7CS5zdDEye2ZpbGwtcnVsZTpldmVub2RkO2NsaXAtcnVsZTpldmVub2RkO2ZpbGw6bm9uZTtzdHJva2U6I0ZGRkZGRjtzdHJva2Utd2lkdGg6NDtzdHJva2UtbWl0ZXJsaW1pdDoxMDt9JiN4YTsJLnN0MTN7ZmlsbC1ydWxlOmV2ZW5vZGQ7Y2xpcC1ydWxlOmV2ZW5vZGQ7ZmlsbDojRkZGRkZGO3N0cm9rZTojRkZGRkZGO3N0cm9rZS13aWR0aDo0O30mI3hhOwkuc3QxNHtmaWxsOm5vbmU7c3Ryb2tlOiNGRkZGRkY7c3Ryb2tlLXdpZHRoOjQuMjMzMztzdHJva2UtbGluZWNhcDpyb3VuZDtzdHJva2UtbGluZWpvaW46cm91bmQ7fSYjeGE7CS5zdDE1e2ZpbGw6bm9uZTtzdHJva2U6I0ZGRkZGRjtzdHJva2Utd2lkdGg6NDtzdHJva2UtbGluZWNhcDpyb3VuZDt9JiN4YTsJLnN0MTZ7ZmlsbDojRkZGRkZGO3N0cm9rZTojRkZGRkZGO3N0cm9rZS1taXRlcmxpbWl0OjEwO30mI3hhOwkuc3QxN3tmaWxsOiMyNjI2MjY7c3Ryb2tlOiNGRkZGRkY7c3Ryb2tlLXdpZHRoOjQ7c3Ryb2tlLW1pdGVybGltaXQ6MTA7fSYjeGE7CS5zdDE4e2ZpbGw6I0ZGRkZGRjtzdHJva2U6I0ZGRkZGRjtzdHJva2Utd2lkdGg6NDtzdHJva2UtbGluZWNhcDpyb3VuZDtzdHJva2UtbGluZWpvaW46cm91bmQ7fSYjeGE7PC9zdHlsZT4mI3hhOzxyZWN0IGhlaWdodD0iMTIwIiB3aWR0aD0iMTIwIiBjbGFzcz0ic3QwIi8+JiN4YTs8Zz4mI3hhOwk8cGF0aCBkPSJNMTAwLDkxLjFIMjBIMTAweiBNODkuMSwzMi41YzAtMC41LDAtMS0wLjItMS40Yy0wLjItMC41LTAuNC0wLjktMC44LTEuMmMtMC4zLTAuMy0wLjgtMC42LTEuMi0wLjgmIzEwOyYjOTsmIzk7Yy0wLjUtMC4yLTAuOS0wLjItMS40LTAuMkgzNC42Yy0wLjUsMC0xLDAtMS40LDAuMmMtMC41LDAuMi0wLjksMC40LTEuMiwwLjhjLTAuMywwLjMtMC42LDAuOC0wLjgsMS4yYy0wLjIsMC41LTAuMiwwLjktMC4yLDEuNCYjMTA7JiM5OyYjOTtWNzZoNTguMlYzMi41eiIgY2xhc3M9InN0NCIvPiYjeGE7PC9nPiYjeGE7PC9zdmc+;" parent="1" vertex="1">
            <mxGeometry x="530" y="337" width="75" height="75" as="geometry" />
          </mxCell>
        </object>
        <object label="leaf13" id="clab-srexperts-leaf13">
          <mxCell style="shape=image;imageAlign=center;imageVerticalAlign=middle;labelPosition=left;align=right;verticalLabelPosition=top;spacingLeft=0;verticalAlign=bottom;spacingTop=0;spacing=0;editableCssRules=\.st[0-2]$;labelBackgroundColor=none;aspect=fixed;imageAspect=0;image=data:image/svg+xml,PHN2ZyB4bWxuczp4bGluaz0iaHR0cDovL3d3dy53My5vcmcvMTk5OS94bGluayIgeG1sbnM9Imh0dHA6Ly93d3cudzMub3JnLzIwMDAvc3ZnIiB4bWw6c3BhY2U9InByZXNlcnZlIiBzdHlsZT0iZW5hYmxlLWJhY2tncm91bmQ6bmV3IDAgMCAxMjAgMTIwOyIgdmlld0JveD0iMCAwIDEyMCAxMjAiIHk9IjBweCIgeD0iMHB4IiBpZD0iTGF5ZXJfMSIgdmVyc2lvbj0iMS4xIj4mI3hhOzxzdHlsZSB0eXBlPSJ0ZXh0L2NzcyI+JiN4YTsJLnN0MHtmaWxsOiMwMDExMzU7fSYjeGE7CS5zdDF7ZmlsbDpub25lO3N0cm9rZTojRkZGRkZGO3N0cm9rZS13aWR0aDo0O3N0cm9rZS1saW5lY2FwOnJvdW5kO3N0cm9rZS1saW5lam9pbjpyb3VuZDtzdHJva2UtbWl0ZXJsaW1pdDoxMDt9JiN4YTsJLnN0MntmaWxsOiNGRkZGRkY7fSYjeGE7CS5zdDN7ZmlsbDpub25lO3N0cm9rZTojRkZGRkZGO3N0cm9rZS13aWR0aDo0O3N0cm9rZS1taXRlcmxpbWl0OjEwO30mI3hhOwkuc3Q0e2ZpbGw6bm9uZTtzdHJva2U6I0ZGRkZGRjtzdHJva2Utd2lkdGg6NDtzdHJva2UtbGluZWNhcDpyb3VuZDtzdHJva2UtbGluZWpvaW46cm91bmQ7fSYjeGE7CS5zdDV7ZmlsbDojRkZGRkZGO3N0cm9rZTojRkZGRkZGO3N0cm9rZS13aWR0aDo0O3N0cm9rZS1saW5lY2FwOnJvdW5kO3N0cm9rZS1saW5lam9pbjpyb3VuZDtzdHJva2UtbWl0ZXJsaW1pdDoxMDt9JiN4YTsJLnN0NntmaWxsOm5vbmU7c3Ryb2tlOiNGRkZGRkY7c3Ryb2tlLXdpZHRoOjQuMjMzMztzdHJva2UtbGluZWNhcDpyb3VuZDtzdHJva2UtbGluZWpvaW46cm91bmQ7c3Ryb2tlLW1pdGVybGltaXQ6MTA7fSYjeGE7CS5zdDd7ZmlsbDpub25lO3N0cm9rZTojRkZGRkZGO3N0cm9rZS13aWR0aDo0O3N0cm9rZS1saW5lY2FwOnJvdW5kO3N0cm9rZS1taXRlcmxpbWl0OjEwO30mI3hhOwkuc3Q4e2ZpbGw6I0ZGRkZGRjtzdHJva2U6I0ZGRkZGRjtzdHJva2Utd2lkdGg6NDtzdHJva2UtbWl0ZXJsaW1pdDoxMDt9JiN4YTsJLnN0OXtmaWxsOiNGRkZGRkY7c3Ryb2tlOiNGRkZGRkY7c3Ryb2tlLXdpZHRoOjQ7fSYjeGE7CS5zdDEwe2ZpbGw6bm9uZTtzdHJva2U6I0ZGRkZGRjtzdHJva2Utd2lkdGg6NDt9JiN4YTsJLnN0MTF7ZmlsbDojMjYyNjI2O3N0cm9rZTojRkZGRkZGO3N0cm9rZS13aWR0aDo0LjIzMzM7fSYjeGE7CS5zdDEye2ZpbGwtcnVsZTpldmVub2RkO2NsaXAtcnVsZTpldmVub2RkO2ZpbGw6bm9uZTtzdHJva2U6I0ZGRkZGRjtzdHJva2Utd2lkdGg6NDtzdHJva2UtbWl0ZXJsaW1pdDoxMDt9JiN4YTsJLnN0MTN7ZmlsbC1ydWxlOmV2ZW5vZGQ7Y2xpcC1ydWxlOmV2ZW5vZGQ7ZmlsbDojRkZGRkZGO3N0cm9rZTojRkZGRkZGO3N0cm9rZS13aWR0aDo0O30mI3hhOwkuc3QxNHtmaWxsOm5vbmU7c3Ryb2tlOiNGRkZGRkY7c3Ryb2tlLXdpZHRoOjQuMjMzMztzdHJva2UtbGluZWNhcDpyb3VuZDtzdHJva2UtbGluZWpvaW46cm91bmQ7fSYjeGE7CS5zdDE1e2ZpbGw6bm9uZTtzdHJva2U6I0ZGRkZGRjtzdHJva2Utd2lkdGg6NDtzdHJva2UtbGluZWNhcDpyb3VuZDt9JiN4YTsJLnN0MTZ7ZmlsbDojRkZGRkZGO3N0cm9rZTojRkZGRkZGO3N0cm9rZS1taXRlcmxpbWl0OjEwO30mI3hhOwkuc3QxN3tmaWxsOiMyNjI2MjY7c3Ryb2tlOiNGRkZGRkY7c3Ryb2tlLXdpZHRoOjQ7c3Ryb2tlLW1pdGVybGltaXQ6MTA7fSYjeGE7CS5zdDE4e2ZpbGw6I0ZGRkZGRjtzdHJva2U6I0ZGRkZGRjtzdHJva2Utd2lkdGg6NDtzdHJva2UtbGluZWNhcDpyb3VuZDtzdHJva2UtbGluZWpvaW46cm91bmQ7fSYjeGE7PC9zdHlsZT4mI3hhOzxyZWN0IGhlaWdodD0iMTIwIiB3aWR0aD0iMTIwIiBjbGFzcz0ic3QwIi8+JiN4YTs8Zz4mI3hhOwk8cGF0aCBkPSJNMTAwLDkxLjFIMjBIMTAweiBNODkuMSwzMi41YzAtMC41LDAtMS0wLjItMS40Yy0wLjItMC41LTAuNC0wLjktMC44LTEuMmMtMC4zLTAuMy0wLjgtMC42LTEuMi0wLjgmIzEwOyYjOTsmIzk7Yy0wLjUtMC4yLTAuOS0wLjItMS40LTAuMkgzNC42Yy0wLjUsMC0xLDAtMS40LDAuMmMtMC41LDAuMi0wLjksMC40LTEuMiwwLjhjLTAuMywwLjMtMC42LDAuOC0wLjgsMS4yYy0wLjIsMC41LTAuMiwwLjktMC4yLDEuNCYjMTA7JiM5OyYjOTtWNzZoNTguMlYzMi41eiIgY2xhc3M9InN0NCIvPiYjeGE7PC9nPiYjeGE7PC9zdmc+;" parent="1" vertex="1">
            <mxGeometry x="520" y="92" width="75" height="75" as="geometry" />
          </mxCell>
        </object>
        <object label="client11" id="clab-srexperts-client11">
          <mxCell style="shape=image;imageAlign=center;imageVerticalAlign=middle;labelPosition=left;align=right;verticalLabelPosition=top;spacingLeft=0;verticalAlign=bottom;spacingTop=0;spacing=0;editableCssRules=\.st[0-2]$;labelBackgroundColor=none;aspect=fixed;imageAspect=0;image=data:image/svg+xml,PHN2ZyB4bWxuczp4bGluaz0iaHR0cDovL3d3dy53My5vcmcvMTk5OS94bGluayIgeG1sbnM9Imh0dHA6Ly93d3cudzMub3JnLzIwMDAvc3ZnIiB4bWw6c3BhY2U9InByZXNlcnZlIiBzdHlsZT0iZW5hYmxlLWJhY2tncm91bmQ6bmV3IDAgMCAxMjAgMTIwOyIgdmlld0JveD0iMCAwIDEyMCAxMjAiIHk9IjBweCIgeD0iMHB4IiBpZD0iTGF5ZXJfMSIgdmVyc2lvbj0iMS4xIj4mI3hhOzxzdHlsZSB0eXBlPSJ0ZXh0L2NzcyI+JiN4YTsJLnN0MHtmaWxsOiMwMDExMzU7fSYjeGE7CS5zdDF7ZmlsbDpub25lO3N0cm9rZTojRkZGRkZGO3N0cm9rZS13aWR0aDo0O3N0cm9rZS1saW5lY2FwOnJvdW5kO3N0cm9rZS1saW5lam9pbjpyb3VuZDtzdHJva2UtbWl0ZXJsaW1pdDoxMDt9JiN4YTsJLnN0MntmaWxsOiNGRkZGRkY7fSYjeGE7CS5zdDN7ZmlsbDpub25lO3N0cm9rZTojRkZGRkZGO3N0cm9rZS13aWR0aDo0O3N0cm9rZS1taXRlcmxpbWl0OjEwO30mI3hhOwkuc3Q0e2ZpbGw6bm9uZTtzdHJva2U6I0ZGRkZGRjtzdHJva2Utd2lkdGg6NDtzdHJva2UtbGluZWNhcDpyb3VuZDtzdHJva2UtbGluZWpvaW46cm91bmQ7fSYjeGE7CS5zdDV7ZmlsbDojRkZGRkZGO3N0cm9rZTojRkZGRkZGO3N0cm9rZS13aWR0aDo0O3N0cm9rZS1saW5lY2FwOnJvdW5kO3N0cm9rZS1saW5lam9pbjpyb3VuZDtzdHJva2UtbWl0ZXJsaW1pdDoxMDt9JiN4YTsJLnN0NntmaWxsOm5vbmU7c3Ryb2tlOiNGRkZGRkY7c3Ryb2tlLXdpZHRoOjQuMjMzMztzdHJva2UtbGluZWNhcDpyb3VuZDtzdHJva2UtbGluZWpvaW46cm91bmQ7c3Ryb2tlLW1pdGVybGltaXQ6MTA7fSYjeGE7CS5zdDd7ZmlsbDpub25lO3N0cm9rZTojRkZGRkZGO3N0cm9rZS13aWR0aDo0O3N0cm9rZS1saW5lY2FwOnJvdW5kO3N0cm9rZS1taXRlcmxpbWl0OjEwO30mI3hhOwkuc3Q4e2ZpbGw6I0ZGRkZGRjtzdHJva2U6I0ZGRkZGRjtzdHJva2Utd2lkdGg6NDtzdHJva2UtbWl0ZXJsaW1pdDoxMDt9JiN4YTsJLnN0OXtmaWxsOiNGRkZGRkY7c3Ryb2tlOiNGRkZGRkY7c3Ryb2tlLXdpZHRoOjQ7fSYjeGE7CS5zdDEwe2ZpbGw6bm9uZTtzdHJva2U6I0ZGRkZGRjtzdHJva2Utd2lkdGg6NDt9JiN4YTsJLnN0MTF7ZmlsbDojMjYyNjI2O3N0cm9rZTojRkZGRkZGO3N0cm9rZS13aWR0aDo0LjIzMzM7fSYjeGE7CS5zdDEye2ZpbGwtcnVsZTpldmVub2RkO2NsaXAtcnVsZTpldmVub2RkO2ZpbGw6bm9uZTtzdHJva2U6I0ZGRkZGRjtzdHJva2Utd2lkdGg6NDtzdHJva2UtbWl0ZXJsaW1pdDoxMDt9JiN4YTsJLnN0MTN7ZmlsbC1ydWxlOmV2ZW5vZGQ7Y2xpcC1ydWxlOmV2ZW5vZGQ7ZmlsbDojRkZGRkZGO3N0cm9rZTojRkZGRkZGO3N0cm9rZS13aWR0aDo0O30mI3hhOwkuc3QxNHtmaWxsOm5vbmU7c3Ryb2tlOiNGRkZGRkY7c3Ryb2tlLXdpZHRoOjQuMjMzMztzdHJva2UtbGluZWNhcDpyb3VuZDtzdHJva2UtbGluZWpvaW46cm91bmQ7fSYjeGE7CS5zdDE1e2ZpbGw6bm9uZTtzdHJva2U6I0ZGRkZGRjtzdHJva2Utd2lkdGg6NDtzdHJva2UtbGluZWNhcDpyb3VuZDt9JiN4YTsJLnN0MTZ7ZmlsbDojRkZGRkZGO3N0cm9rZTojRkZGRkZGO3N0cm9rZS1taXRlcmxpbWl0OjEwO30mI3hhOwkuc3QxN3tmaWxsOiMyNjI2MjY7c3Ryb2tlOiNGRkZGRkY7c3Ryb2tlLXdpZHRoOjQ7c3Ryb2tlLW1pdGVybGltaXQ6MTA7fSYjeGE7CS5zdDE4e2ZpbGw6I0ZGRkZGRjtzdHJva2U6I0ZGRkZGRjtzdHJva2Utd2lkdGg6NDtzdHJva2UtbGluZWNhcDpyb3VuZDtzdHJva2UtbGluZWpvaW46cm91bmQ7fSYjeGE7PC9zdHlsZT4mI3hhOzxyZWN0IGhlaWdodD0iMTIwIiB3aWR0aD0iMTIwIiBjbGFzcz0ic3QwIi8+JiN4YTs8Zz4mI3hhOwk8cGF0aCBkPSJNMTAwLDkxLjFIMjBIMTAweiBNODkuMSwzMi41YzAtMC41LDAtMS0wLjItMS40Yy0wLjItMC41LTAuNC0wLjktMC44LTEuMmMtMC4zLTAuMy0wLjgtMC42LTEuMi0wLjgmIzEwOyYjOTsmIzk7Yy0wLjUtMC4yLTAuOS0wLjItMS40LTAuMkgzNC42Yy0wLjUsMC0xLDAtMS40LDAuMmMtMC41LDAuMi0wLjksMC40LTEuMiwwLjhjLTAuMywwLjMtMC42LDAuOC0wLjgsMS4yYy0wLjIsMC41LTAuMiwwLjktMC4yLDEuNCYjMTA7JiM5OyYjOTtWNzZoNTguMlYzMi41eiIgY2xhc3M9InN0NCIvPiYjeGE7PC9nPiYjeGE7PC9zdmc+;" parent="1" vertex="1">
            <mxGeometry x="745" y="330" width="75" height="75" as="geometry" />
          </mxCell>
        </object>
        <object label="client13" id="clab-srexperts-client13">
          <mxCell style="shape=image;imageAlign=center;imageVerticalAlign=middle;labelPosition=left;align=right;verticalLabelPosition=top;spacingLeft=0;verticalAlign=bottom;spacingTop=0;spacing=0;editableCssRules=\.st[0-2]$;labelBackgroundColor=none;aspect=fixed;imageAspect=0;image=data:image/svg+xml,PHN2ZyB4bWxuczp4bGluaz0iaHR0cDovL3d3dy53My5vcmcvMTk5OS94bGluayIgeG1sbnM9Imh0dHA6Ly93d3cudzMub3JnLzIwMDAvc3ZnIiB4bWw6c3BhY2U9InByZXNlcnZlIiBzdHlsZT0iZW5hYmxlLWJhY2tncm91bmQ6bmV3IDAgMCAxMjAgMTIwOyIgdmlld0JveD0iMCAwIDEyMCAxMjAiIHk9IjBweCIgeD0iMHB4IiBpZD0iTGF5ZXJfMSIgdmVyc2lvbj0iMS4xIj4mI3hhOzxzdHlsZSB0eXBlPSJ0ZXh0L2NzcyI+JiN4YTsJLnN0MHtmaWxsOiMwMDExMzU7fSYjeGE7CS5zdDF7ZmlsbDpub25lO3N0cm9rZTojRkZGRkZGO3N0cm9rZS13aWR0aDo0O3N0cm9rZS1saW5lY2FwOnJvdW5kO3N0cm9rZS1saW5lam9pbjpyb3VuZDtzdHJva2UtbWl0ZXJsaW1pdDoxMDt9JiN4YTsJLnN0MntmaWxsOiNGRkZGRkY7fSYjeGE7CS5zdDN7ZmlsbDpub25lO3N0cm9rZTojRkZGRkZGO3N0cm9rZS13aWR0aDo0O3N0cm9rZS1taXRlcmxpbWl0OjEwO30mI3hhOwkuc3Q0e2ZpbGw6bm9uZTtzdHJva2U6I0ZGRkZGRjtzdHJva2Utd2lkdGg6NDtzdHJva2UtbGluZWNhcDpyb3VuZDtzdHJva2UtbGluZWpvaW46cm91bmQ7fSYjeGE7CS5zdDV7ZmlsbDojRkZGRkZGO3N0cm9rZTojRkZGRkZGO3N0cm9rZS13aWR0aDo0O3N0cm9rZS1saW5lY2FwOnJvdW5kO3N0cm9rZS1saW5lam9pbjpyb3VuZDtzdHJva2UtbWl0ZXJsaW1pdDoxMDt9JiN4YTsJLnN0NntmaWxsOm5vbmU7c3Ryb2tlOiNGRkZGRkY7c3Ryb2tlLXdpZHRoOjQuMjMzMztzdHJva2UtbGluZWNhcDpyb3VuZDtzdHJva2UtbGluZWpvaW46cm91bmQ7c3Ryb2tlLW1pdGVybGltaXQ6MTA7fSYjeGE7CS5zdDd7ZmlsbDpub25lO3N0cm9rZTojRkZGRkZGO3N0cm9rZS13aWR0aDo0O3N0cm9rZS1saW5lY2FwOnJvdW5kO3N0cm9rZS1taXRlcmxpbWl0OjEwO30mI3hhOwkuc3Q4e2ZpbGw6I0ZGRkZGRjtzdHJva2U6I0ZGRkZGRjtzdHJva2Utd2lkdGg6NDtzdHJva2UtbWl0ZXJsaW1pdDoxMDt9JiN4YTsJLnN0OXtmaWxsOiNGRkZGRkY7c3Ryb2tlOiNGRkZGRkY7c3Ryb2tlLXdpZHRoOjQ7fSYjeGE7CS5zdDEwe2ZpbGw6bm9uZTtzdHJva2U6I0ZGRkZGRjtzdHJva2Utd2lkdGg6NDt9JiN4YTsJLnN0MTF7ZmlsbDojMjYyNjI2O3N0cm9rZTojRkZGRkZGO3N0cm9rZS13aWR0aDo0LjIzMzM7fSYjeGE7CS5zdDEye2ZpbGwtcnVsZTpldmVub2RkO2NsaXAtcnVsZTpldmVub2RkO2ZpbGw6bm9uZTtzdHJva2U6I0ZGRkZGRjtzdHJva2Utd2lkdGg6NDtzdHJva2UtbWl0ZXJsaW1pdDoxMDt9JiN4YTsJLnN0MTN7ZmlsbC1ydWxlOmV2ZW5vZGQ7Y2xpcC1ydWxlOmV2ZW5vZGQ7ZmlsbDojRkZGRkZGO3N0cm9rZTojRkZGRkZGO3N0cm9rZS13aWR0aDo0O30mI3hhOwkuc3QxNHtmaWxsOm5vbmU7c3Ryb2tlOiNGRkZGRkY7c3Ryb2tlLXdpZHRoOjQuMjMzMztzdHJva2UtbGluZWNhcDpyb3VuZDtzdHJva2UtbGluZWpvaW46cm91bmQ7fSYjeGE7CS5zdDE1e2ZpbGw6bm9uZTtzdHJva2U6I0ZGRkZGRjtzdHJva2Utd2lkdGg6NDtzdHJva2UtbGluZWNhcDpyb3VuZDt9JiN4YTsJLnN0MTZ7ZmlsbDojRkZGRkZGO3N0cm9rZTojRkZGRkZGO3N0cm9rZS1taXRlcmxpbWl0OjEwO30mI3hhOwkuc3QxN3tmaWxsOiMyNjI2MjY7c3Ryb2tlOiNGRkZGRkY7c3Ryb2tlLXdpZHRoOjQ7c3Ryb2tlLW1pdGVybGltaXQ6MTA7fSYjeGE7CS5zdDE4e2ZpbGw6I0ZGRkZGRjtzdHJva2U6I0ZGRkZGRjtzdHJva2Utd2lkdGg6NDtzdHJva2UtbGluZWNhcDpyb3VuZDtzdHJva2UtbGluZWpvaW46cm91bmQ7fSYjeGE7PC9zdHlsZT4mI3hhOzxyZWN0IGhlaWdodD0iMTIwIiB3aWR0aD0iMTIwIiBjbGFzcz0ic3QwIi8+JiN4YTs8Zz4mI3hhOwk8cGF0aCBkPSJNMTAwLDkxLjFIMjBIMTAweiBNODkuMSwzMi41YzAtMC41LDAtMS0wLjItMS40Yy0wLjItMC41LTAuNC0wLjktMC44LTEuMmMtMC4zLTAuMy0wLjgtMC42LTEuMi0wLjgmIzEwOyYjOTsmIzk7Yy0wLjUtMC4yLTAuOS0wLjItMS40LTAuMkgzNC42Yy0wLjUsMC0xLDAtMS40LDAuMmMtMC41LDAuMi0wLjksMC40LTEuMiwwLjhjLTAuMywwLjMtMC42LDAuOC0wLjgsMS4yYy0wLjIsMC41LTAuMiwwLjktMC4yLDEuNCYjMTA7JiM5OyYjOTtWNzZoNTguMlYzMi41eiIgY2xhc3M9InN0NCIvPiYjeGE7PC9nPiYjeGE7PC9zdmc+;" parent="1" vertex="1">
            <mxGeometry x="732" y="92" width="75" height="75" as="geometry" />
          </mxCell>
        </object>
        <object label="" src_label="eth3" trgt_label="e1-32" source="clab-srexperts-pe2" target="clab-srexperts-spine11" id="link_id:link:clab-srexperts-pe2:eth3:clab-srexperts-spine11:e1-32">
          <mxCell style="endArrow=none;jumpStyle=gap;exitY=0.67;exitX=0.994;exitDx=0;exitDy=0;exitPerimeter=0;entryX=0;entryY=0.75;entryDx=0;entryDy=0;" parent="1" source="clab-srexperts-pe2" target="clab-srexperts-spine11" edge="1">
            <mxGeometry relative="1" as="geometry">
              <mxPoint x="295" y="354" as="targetPoint" />
            </mxGeometry>
          </mxCell>
        </object>
        <mxCell id="link_id:link:clab-srexperts-pe2:eth3:clab-srexperts-spine11:e1-32-src" value="eth3" style="edgeLabel;html=1;align=center;verticalAlign=middle;resizable=0;points=[];;" parent="link_id:link:clab-srexperts-pe2:eth3:clab-srexperts-spine11:e1-32" vertex="1" connectable="0">
          <mxGeometry x="-0.5" relative="1" as="geometry">
            <mxPoint as="offset" />
          </mxGeometry>
        </mxCell>
        <mxCell id="link_id:link:clab-srexperts-pe2:eth3:clab-srexperts-spine11:e1-32-trgt" value="e1-32" style="edgeLabel;html=1;align=center;verticalAlign=middle;resizable=0;points=[];;" parent="link_id:link:clab-srexperts-pe2:eth3:clab-srexperts-spine11:e1-32" vertex="1" connectable="0">
          <mxGeometry x="0.5" relative="-1" as="geometry">
            <mxPoint as="offset" />
          </mxGeometry>
        </mxCell>
        <object label="" src_label="eth4" trgt_label="e1-32" source="clab-srexperts-pe2" target="clab-srexperts-spine12" id="link_id:link:clab-srexperts-pe2:eth4:clab-srexperts-spine12:e1-32">
          <mxCell style="endArrow=none;jumpStyle=gap;entryY=0.25;exitY=0.25;entryX=0;exitX=1;entryDx=0;entryDy=0;exitDx=0;exitDy=0;" parent="1" source="clab-srexperts-pe2" target="clab-srexperts-spine12" edge="1">
            <mxGeometry relative="1" as="geometry" />
          </mxCell>
        </object>
        <mxCell id="link_id:link:clab-srexperts-pe2:eth4:clab-srexperts-spine12:e1-32-src" value="eth4" style="edgeLabel;html=1;align=center;verticalAlign=middle;resizable=0;points=[];;" parent="link_id:link:clab-srexperts-pe2:eth4:clab-srexperts-spine12:e1-32" vertex="1" connectable="0">
          <mxGeometry x="-0.5" relative="1" as="geometry">
            <mxPoint as="offset" />
          </mxGeometry>
        </mxCell>
        <mxCell id="link_id:link:clab-srexperts-pe2:eth4:clab-srexperts-spine12:e1-32-trgt" value="e1-32" style="edgeLabel;html=1;align=center;verticalAlign=middle;resizable=0;points=[];;" parent="link_id:link:clab-srexperts-pe2:eth4:clab-srexperts-spine12:e1-32" vertex="1" connectable="0">
          <mxGeometry x="0.5" relative="-1" as="geometry">
            <mxPoint as="offset" />
          </mxGeometry>
        </mxCell>
        <object label="" src_label="eth6" trgt_label="eth1" source="clab-srexperts-pe2" target="clab-srexperts-client02" id="link_id:link:clab-srexperts-pe2:eth6:clab-srexperts-client02:eth1">
          <mxCell style="endArrow=none;jumpStyle=gap;entryY=1;exitY=0;entryX=0.5;exitX=0.5;exitDx=0;exitDy=0;entryDx=0;entryDy=0;" parent="1" source="clab-srexperts-pe2" target="clab-srexperts-client02" edge="1">
            <mxGeometry relative="1" as="geometry" />
          </mxCell>
        </object>
        <mxCell id="link_id:link:clab-srexperts-pe2:eth6:clab-srexperts-client02:eth1-src" value="eth6" style="edgeLabel;html=1;align=center;verticalAlign=middle;resizable=0;points=[];;" parent="link_id:link:clab-srexperts-pe2:eth6:clab-srexperts-client02:eth1" vertex="1" connectable="0">
          <mxGeometry x="-0.5" relative="1" as="geometry">
            <mxPoint as="offset" />
          </mxGeometry>
        </mxCell>
        <mxCell id="mJRCXT1ans_yqYWfk_LJ-2" value="eth1" style="edgeLabel;html=1;align=center;verticalAlign=middle;resizable=0;points=[];" parent="link_id:link:clab-srexperts-pe2:eth6:clab-srexperts-client02:eth1" vertex="1" connectable="0">
          <mxGeometry x="0.6357" y="1" relative="1" as="geometry">
            <mxPoint as="offset" />
          </mxGeometry>
        </mxCell>
        <object label="" src_label="e1-1" trgt_label="e1-49" source="clab-srexperts-spine11" target="clab-srexperts-leaf11" id="link_id:link:clab-srexperts-spine11:e1-1:clab-srexperts-leaf11:e1-49">
          <mxCell style="endArrow=none;jumpStyle=gap;entryY=0.75;exitY=0.656;entryX=0;exitX=0.992;entryDx=0;entryDy=0;exitDx=0;exitDy=0;exitPerimeter=0;" parent="1" source="clab-srexperts-spine11" target="clab-srexperts-leaf11" edge="1">
            <mxGeometry relative="1" as="geometry" />
          </mxCell>
        </object>
        <mxCell id="link_id:link:clab-srexperts-spine11:e1-1:clab-srexperts-leaf11:e1-49-src" value="e1-1" style="edgeLabel;html=1;align=center;verticalAlign=middle;resizable=0;points=[];;" parent="link_id:link:clab-srexperts-spine11:e1-1:clab-srexperts-leaf11:e1-49" vertex="1" connectable="0">
          <mxGeometry x="-0.5" relative="1" as="geometry">
            <mxPoint as="offset" />
          </mxGeometry>
        </mxCell>
        <mxCell id="link_id:link:clab-srexperts-spine11:e1-1:clab-srexperts-leaf11:e1-49-trgt" value="e1-49" style="edgeLabel;html=1;align=center;verticalAlign=middle;resizable=0;points=[];;" parent="link_id:link:clab-srexperts-spine11:e1-1:clab-srexperts-leaf11:e1-49" vertex="1" connectable="0">
          <mxGeometry x="0.5" relative="-1" as="geometry">
            <mxPoint as="offset" />
          </mxGeometry>
        </mxCell>
        <object label="" src_label="e1-3" trgt_label="e1-49" source="clab-srexperts-spine11" target="clab-srexperts-leaf13" id="link_id:link:clab-srexperts-spine11:e1-3:clab-srexperts-leaf13:e1-49">
          <mxCell style="endArrow=none;jumpStyle=gap;entryY=0.5;exitY=0.25;entryX=0;exitX=1;entryDx=0;entryDy=0;exitDx=0;exitDy=0;" parent="1" source="clab-srexperts-spine11" target="clab-srexperts-leaf13" edge="1">
            <mxGeometry relative="1" as="geometry" />
          </mxCell>
        </object>
        <mxCell id="link_id:link:clab-srexperts-spine11:e1-3:clab-srexperts-leaf13:e1-49-src" value="e1-3" style="edgeLabel;html=1;align=center;verticalAlign=middle;resizable=0;points=[];;" parent="link_id:link:clab-srexperts-spine11:e1-3:clab-srexperts-leaf13:e1-49" vertex="1" connectable="0">
          <mxGeometry x="-0.5" relative="1" as="geometry">
            <mxPoint as="offset" />
          </mxGeometry>
        </mxCell>
        <mxCell id="link_id:link:clab-srexperts-spine11:e1-3:clab-srexperts-leaf13:e1-49-trgt" value="e1-49" style="edgeLabel;html=1;align=center;verticalAlign=middle;resizable=0;points=[];;" parent="link_id:link:clab-srexperts-spine11:e1-3:clab-srexperts-leaf13:e1-49" vertex="1" connectable="0">
          <mxGeometry x="0.5" relative="-1" as="geometry">
            <mxPoint as="offset" />
          </mxGeometry>
        </mxCell>
        <object label="" src_label="e1-1" trgt_label="e1-50" source="clab-srexperts-spine12" target="clab-srexperts-leaf11" id="link_id:link:clab-srexperts-spine12:e1-1:clab-srexperts-leaf11:e1-50">
          <mxCell style="endArrow=none;jumpStyle=gap;entryY=0.5;exitY=0.623;entryX=0;exitX=0.996;entryDx=0;entryDy=0;exitDx=0;exitDy=0;exitPerimeter=0;" parent="1" source="clab-srexperts-spine12" target="clab-srexperts-leaf11" edge="1">
            <mxGeometry relative="1" as="geometry" />
          </mxCell>
        </object>
        <mxCell id="link_id:link:clab-srexperts-spine12:e1-1:clab-srexperts-leaf11:e1-50-src" value="e1-1" style="edgeLabel;html=1;align=center;verticalAlign=middle;resizable=0;points=[];;" parent="link_id:link:clab-srexperts-spine12:e1-1:clab-srexperts-leaf11:e1-50" vertex="1" connectable="0">
          <mxGeometry x="-0.5" relative="1" as="geometry">
            <mxPoint as="offset" />
          </mxGeometry>
        </mxCell>
        <mxCell id="link_id:link:clab-srexperts-spine12:e1-1:clab-srexperts-leaf11:e1-50-trgt" value="e1-50" style="edgeLabel;html=1;align=center;verticalAlign=middle;resizable=0;points=[];;" parent="link_id:link:clab-srexperts-spine12:e1-1:clab-srexperts-leaf11:e1-50" vertex="1" connectable="0">
          <mxGeometry x="0.5" relative="-1" as="geometry">
            <mxPoint as="offset" />
          </mxGeometry>
        </mxCell>
        <object label="" src_label="e1-3" trgt_label="e1-50" source="clab-srexperts-spine12" target="clab-srexperts-leaf13" id="link_id:link:clab-srexperts-spine12:e1-3:clab-srexperts-leaf13:e1-50">
          <mxCell style="endArrow=none;jumpStyle=gap;entryY=0.25;exitY=0.179;entryX=0;exitX=0.957;entryDx=0;entryDy=0;exitDx=0;exitDy=0;exitPerimeter=0;" parent="1" source="clab-srexperts-spine12" target="clab-srexperts-leaf13" edge="1">
            <mxGeometry relative="1" as="geometry" />
          </mxCell>
        </object>
        <mxCell id="link_id:link:clab-srexperts-spine12:e1-3:clab-srexperts-leaf13:e1-50-src" value="e1-3" style="edgeLabel;html=1;align=center;verticalAlign=middle;resizable=0;points=[];;" parent="link_id:link:clab-srexperts-spine12:e1-3:clab-srexperts-leaf13:e1-50" vertex="1" connectable="0">
          <mxGeometry x="-0.5" relative="1" as="geometry">
            <mxPoint as="offset" />
          </mxGeometry>
        </mxCell>
        <mxCell id="link_id:link:clab-srexperts-spine12:e1-3:clab-srexperts-leaf13:e1-50-trgt" value="e1-50" style="edgeLabel;html=1;align=center;verticalAlign=middle;resizable=0;points=[];;" parent="link_id:link:clab-srexperts-spine12:e1-3:clab-srexperts-leaf13:e1-50" vertex="1" connectable="0">
          <mxGeometry x="0.5" relative="-1" as="geometry">
            <mxPoint as="offset" />
          </mxGeometry>
        </mxCell>
        <object label="" src_label="e1-1" trgt_label="eth1" source="clab-srexperts-leaf11" target="clab-srexperts-client11" id="link_id:link:clab-srexperts-leaf11:e1-1:clab-srexperts-client11:eth1">
          <mxCell style="endArrow=none;jumpStyle=gap;exitY=0.5;exitX=1;exitDx=0;exitDy=0;" parent="1" source="clab-srexperts-leaf11" target="clab-srexperts-client11" edge="1">
            <mxGeometry relative="1" as="geometry" />
          </mxCell>
        </object>
        <mxCell id="link_id:link:clab-srexperts-leaf11:e1-1:clab-srexperts-client11:eth1-src" value="e1-1" style="edgeLabel;html=1;align=center;verticalAlign=middle;resizable=0;points=[];;" parent="link_id:link:clab-srexperts-leaf11:e1-1:clab-srexperts-client11:eth1" vertex="1" connectable="0">
          <mxGeometry x="-0.5" relative="1" as="geometry">
            <mxPoint as="offset" />
          </mxGeometry>
        </mxCell>
        <mxCell id="link_id:link:clab-srexperts-leaf11:e1-1:clab-srexperts-client11:eth1-trgt" value="eth1" style="edgeLabel;html=1;align=center;verticalAlign=middle;resizable=0;points=[];;" parent="link_id:link:clab-srexperts-leaf11:e1-1:clab-srexperts-client11:eth1" vertex="1" connectable="0">
          <mxGeometry x="0.5" relative="-1" as="geometry">
            <mxPoint as="offset" />
          </mxGeometry>
        </mxCell>
        <object label="" src_label="e1-3" trgt_label="eth1" source="clab-srexperts-leaf13" target="clab-srexperts-client13" id="link_id:link:clab-srexperts-leaf13:e1-3:clab-srexperts-client13:eth1">
          <mxCell style="endArrow=none;jumpStyle=gap;entryY=0.5;exitY=0.5;entryX=0;exitX=1;exitDx=0;exitDy=0;entryDx=0;entryDy=0;" parent="1" source="clab-srexperts-leaf13" target="clab-srexperts-client13" edge="1">
            <mxGeometry relative="1" as="geometry" />
          </mxCell>
        </object>
        <mxCell id="link_id:link:clab-srexperts-leaf13:e1-3:clab-srexperts-client13:eth1-src" value="e1-3" style="edgeLabel;html=1;align=center;verticalAlign=middle;resizable=0;points=[];;" parent="link_id:link:clab-srexperts-leaf13:e1-3:clab-srexperts-client13:eth1" vertex="1" connectable="0">
          <mxGeometry x="-0.5" relative="1" as="geometry">
            <mxPoint as="offset" />
          </mxGeometry>
        </mxCell>
        <mxCell id="link_id:link:clab-srexperts-leaf13:e1-3:clab-srexperts-client13:eth1-trgt" value="eth1" style="edgeLabel;html=1;align=center;verticalAlign=middle;resizable=0;points=[];;" parent="link_id:link:clab-srexperts-leaf13:e1-3:clab-srexperts-client13:eth1" vertex="1" connectable="0">
          <mxGeometry x="0.5" relative="-1" as="geometry">
            <mxPoint as="offset" />
          </mxGeometry>
        </mxCell>
        <mxCell id="mJRCXT1ans_yqYWfk_LJ-3" value="Anycast 192.168.31.1&lt;div&gt;Probe responder&lt;/div&gt;" style="ellipse;whiteSpace=wrap;html=1;fillColor=#3399FF;" parent="1" vertex="1">
          <mxGeometry x="789" y="273" width="144" height="61" as="geometry" />
        </mxCell>
        <mxCell id="mJRCXT1ans_yqYWfk_LJ-8" value="&lt;div&gt;Probe client&lt;/div&gt;" style="ellipse;whiteSpace=wrap;html=1;fillColor=#66CC00;" parent="1" vertex="1">
          <mxGeometry x="39" y="184.5" width="151" height="32" as="geometry" />
        </mxCell>
        <mxCell id="mJRCXT1ans_yqYWfk_LJ-9" value="" style="endArrow=classic;startArrow=classic;html=1;rounded=0;exitX=0.974;exitY=0.219;exitDx=0;exitDy=0;entryX=0;entryY=0.5;entryDx=0;entryDy=0;exitPerimeter=0;strokeColor=#3399FF;" parent="1" source="mJRCXT1ans_yqYWfk_LJ-8" target="mJRCXT1ans_yqYWfk_LJ-10" edge="1">
          <mxGeometry width="50" height="50" relative="1" as="geometry">
            <mxPoint x="227" y="33" as="sourcePoint" />
            <mxPoint x="759" y="203" as="targetPoint" />
          </mxGeometry>
        </mxCell>
        <mxCell id="mJRCXT1ans_yqYWfk_LJ-10" value="Anycast 192.168.31.1&lt;div&gt;Probe responder&lt;/div&gt;" style="ellipse;whiteSpace=wrap;html=1;fillColor=#3399FF;" parent="1" vertex="1">
          <mxGeometry x="789" y="155.5" width="144" height="61" as="geometry" />
        </mxCell>
        <mxCell id="mJRCXT1ans_yqYWfk_LJ-11" value="" style="endArrow=classic;startArrow=classic;html=1;rounded=0;entryX=0.053;entryY=0.267;entryDx=0;entryDy=0;entryPerimeter=0;strokeColor=#3399FF;" parent="1" target="mJRCXT1ans_yqYWfk_LJ-3" edge="1">
          <mxGeometry width="50" height="50" relative="1" as="geometry">
            <mxPoint x="185" y="210" as="sourcePoint" />
            <mxPoint x="848" y="301" as="targetPoint" />
          </mxGeometry>
        </mxCell>
      </root>
    </mxGraphModel>
  </diagram>
</mxfile>
